<?xml version="1.0" encoding="UTF-8"?><svg id="a" xmlns="http://www.w3.org/2000/svg" viewBox="0 0 287.8 97.45"><g id="b"><g id="c"><g id="d"><path d="M235.43,26.59l-.02-21.34,4.82-5.09v26.43h-4.8ZM236.11,5.63c0,.63.02,3.02.02,20.26h3.41V2.04l-3.43,3.59ZM245.69,4.97h-4.9V.12s9.4,0,9.4,0l-4.5,4.85ZM241.48,4.27h3.9l3.2-3.45h-7.1s0,3.45,0,3.45ZM234.76,5.05h-6.34V.2s10.84,0,10.84,0l-4.5,4.85ZM229.12,4.35h5.33l3.2-3.45h-8.54s0,3.45,0,3.45Z"/><path d="M270.1,26.63v-.35s.02-26.19.02-26.19h7.2s0,5,0,5h-2.22v5.76s2.22,0,2.22,0v4.82h-2.22s0,5.99,0,5.99h2.23v4.97h-7.22ZM270.82.78l-.02,25.14h5.82v-3.57h-2.23s0-7.39,0-7.39h2.22s0-3.42,0-3.42h-2.22s0-7.16,0-7.16h2.22V.78h-5.8ZM277.86,26.62v-4.96l9.91.02-4.82,4.93h-5.08ZM278.56,22.36v3.56h4.09s3.46-3.54,3.46-3.54l-7.55-.02ZM277.86,15.64v-4.8h5.35s-5.35,4.8-5.35,4.8ZM278.56,11.54v2.41l2.88-2.41h-2.88ZM283.02,5.08h-5.16V.08h9.94s-4.78,5-4.78,5ZM278.56,4.38h4.16s3.44-3.6,3.44-3.6h-7.6v3.6Z"/><path d="M250.87,26.59V8.9h12.52s.03-8.89.03-8.89h4.72s0,13.34,0,13.34h-4.61s-.02,0-.02,0h-7.78s0,8.33,0,8.33l-4.88,4.91ZM251.57,9.6v15.29s3.48-3.5,3.48-3.5v-8.74s12.39,0,12.39,0V.7c-1.88,0-2.83,0-3.33,0l-.02,8.9h-12.52ZM263.26,26.58v-12.7s4.89-.01,4.89-.01l.06,7.83-4.95,4.88ZM263.97,14.57v10.33s3.54-3.49,3.54-3.49l-.06-6.84h-3.48ZM255.72,8.34h-4.85v-.35c0-2.78,0-5.4,0-7.63V0h4.9s-.05,8.33-.05,8.33ZM251.57,7.64h3.46l.04-6.93h-3.5c0,2.06,0,4.43,0,6.93Z"/></g></g><g id="e"><path d="M228.09,61.92h-5.09v-16.43s-4.36,3.31-4.36,3.31l-9.69-6.46.05-7.18,9.65,6.53,9.4-6.67.04,26.9ZM223.7,61.22h3.69l-.04-24.85-8.7,6.16-8.97-6.07-.03,5.5,8.95,6.05,5.09-3.92v17.12ZM208.95,61.92v-3.03s5.06,3.03,5.06,3.03h0s-5.06,0-5.06,0ZM209.65,61.38l2.51.05-2.51-1.44c0,.65,0,.98,0,1.39ZM214.01,61.11l-5.06-3.18v-14.9s5.05,3.35,5.05,3.35v14.73ZM209.65,57.54l3.66,2.3-.02-13.1-3.65-2.38c0,2.62.01,11.7,0,13.18Z"/><path d="M149.16,62.54v-14.31s5-5,5-5v3.03h8.02s-4.75,4.83-4.75,4.83h-3.28v6.49s-5,4.97-5,4.97ZM149.87,48.52v12.34s3.59-3.58,3.59-3.58v-6.9s3.69,0,3.69,0l3.37-3.43h-7.05v-2.04l-3.59,3.6ZM149.17,47.45v-12.39s11.92,0,11.92,0l-4.98,5.44h-1.94s0,1.95,0,1.95l-4.99,5ZM149.86,35.76v10s3.6-3.6,3.6-3.6v-2.37h2.35s3.58-4.03,3.58-4.03h-9.54ZM156.87,40.5l4.98-5.44h4.99s-4.76,5.44-4.76,5.44h-5.21ZM158.55,39.81h.02c1.44,0,2.77,0,3.21-.01l3.43-4.04h-3.06s-3.59,4.05-3.59,4.05Z"/><path d="M167.39,61.35v-26.27s4.79-.01,4.79-.01l.04,12.75h4.07s4.49-4.49,4.49-4.49v-3.8s-8.11,0-8.11,0l-.02-4.46,12.03.02-.05,9.9-2.8,2.84,3.24-.02-4.8,4.8-8.06-.08v4.06s-4.84,4.76-4.84,4.76ZM168.07,35.77v23.9s3.44-3.38,3.44-3.38l.02-4.47,8.47.08,3.39-3.39-3.22.02,3.78-3.84.04-8.92-10.62-.02.02,3.06h8.1s0,4.79,0,4.79l-4.9,4.9h-5.06s-.04-12.75-.04-12.75h-3.41ZM180.26,61.61l.02-7.84,4.81-4.82-.06,12.63-4.77.02ZM180.97,54.06v6.85s3.36-.02,3.36-.02l.05-10.24-3.41,3.41ZM172.2,61.66h-3.66l3.67-3.67v3.67ZM170.23,60.96h1.28v-1.28s-1.28,1.28-1.28,1.28Z"/><path d="M206.04,61.86l-16.65-.02,4.97-4.97h6.86s.03-7.36.03-7.36l4.79-4.84v17.19ZM191.08,61.15l14.27.02v-14.79l-3.39,3.42-.03,7.78h-7.27s-3.57,3.56-3.57,3.56ZM188.89,61.61v-26.44s17.15.02,17.15.02v8.81s-4.81,4.83-4.81,4.83v-8.71s-7.49,0-7.49,0l-.02,16.68-4.83,4.83ZM189.58,35.87v24.05s3.44-3.43,3.44-3.43l.02-17.09h8.9s0,7.73,0,7.73l3.41-3.42v-7.82s-15.76-.02-15.76-.02Z"/></g><g id="f"><path id="g" d="M90.63,71.4l.02,16.88h13.89s-4.77-3.91-4.77-3.91c0,0-4.72,3.9-4.72,3.9v-12.44s-4.43-4.43-4.43-4.43ZM104.56,71.4v16.89s4.37,0,4.37,0v-12.53s-4.37-4.36-4.37-4.36h0ZM90.66,89.52v7.87s9.12-6.47,9.12-6.47l9.13,6.35.02-7.74h-18.27Z"/><path id="h" d="M116.45,71.26h-4.11v4.15l4.11-4.14h0ZM116.45,73.09l-4.11,4.14v9.14s4.13-4.14,4.13-4.14l-.02-9.14ZM116.47,84l-4.13,4.15v8.99s4.11,0,4.11,0l.03-8.38v-4.03s0-.72,0-.72Z"/><path id="i" d="M130.37,71.32l-4.1,4.13c0-.06,0,21.15,0,21.8h4.11s0-25.92,0-25.92ZM118.66,71.32c0,1.38,0,2.77,0,4.15h5.84l3.85-4.15h-9.69ZM131.62,71.33c0,1.38,0,2.77,0,4.15h4.4l3.85-4.15h-8.25Z"/><path id="j" d="M157.96,71.41s-4.02.01-4.02.01l-.02,8.89h-8.37s0,0,0,0h-4.15c0,5.96-.02,12.44-.03,17.15l4.18-4.2.02-9.19h8.18s.01,0,.01,0h4.21s0-12.65,0-12.65ZM141.39,71.41c0,2.23,0,4.86,0,7.63h4.16l.05-7.63h-4.2ZM157.97,85.27h-4.18s-.03,12.18-.03,12.18l4.24-4.19-.03-7.99Z"/><path id="k" d="M165.76,71.26h-4.11v4.15l4.11-4.14h0ZM165.76,73.09l-4.11,4.14v9.14s4.13-4.14,4.13-4.14l-.02-9.14ZM165.78,84l-4.13,4.15v8.99s4.11,0,4.11,0l.03-8.38v-4.03s0-.72,0-.72Z"/><path id="l" d="M186.84,71.28l-4.37,2.63v7.42s.01,0,.01,0v.89s4.38,4.38,4.38,4.38l-.02-15.32ZM169.54,71.31c-.03,2.1-.04,6.31-.04,6.34l12.99,12.82v6.77h4.39v-8.89s-4.76-4.74-4.76-4.74l-12.58-12.31ZM169.5,79.26s.04,13.15.02,17.93c0-.05,4.33.03,4.33.03v-13.59s-4.36-4.37-4.36-4.37Z"/></g><g id="m"><path id="n" d="M221.16.78l-7.82.02v4.37h3.48s4.34-4.38,4.34-4.38ZM212.11.8l-8.53.02s.01,25.7.03,25.73l8.15.02v-4.31s-3.79,0-3.79,0V5.16s4.14,0,4.14,0V.8ZM210.91,13.81l4.33,2.82,5.58-.02v-2.78s-9.89-.01-9.91-.01h0ZM216.12,17.83l-.02,4.4h-3.14s-.01,4.3-.01,4.3l4.39-.03h3.49s0-1.85,0-1.85h0s0-6.83,0-6.83h-4.71Z"/><path id="o" d="M29.06.96v3.33s8.11,0,8.11,0v4.29s-4.69,4.69-4.69,4.69h-4.57s-.02-12.32-.02-12.32h-4.11s0,25.33,0,25.33l4.12-4.07.02-4.93,8.27.08,4.09-4.09-3.23.02,3.29-3.34.06-8.98-11.33-.02ZM40.48,14.98l-4.11,4.11-.02,7.34,4.07-.02.05-11.44ZM27.89,23.96l-2.48,2.48h2.47v-2.48Z"/><path id="p" d="M80.53.76s-4.02.01-4.02.01l-.02,8.89h-8.37s0,0,0,0h-4.15c0,5.96-.02,12.44-.03,17.15l4.18-4.2.02-9.19h8.18s.01,0,.01,0h4.21s0-12.65,0-12.65ZM63.97.77c0,2.23,0,4.86,0,7.63h4.16l.05-7.63h-4.2ZM80.54,14.63h-4.18s-.03,12.18-.03,12.18l4.24-4.19-.03-7.99Z"/><path id="q" d="M89.48.62h-4.11s0,4.15,0,4.15l4.11-4.14h0ZM89.48,2.45l-4.11,4.14v9.14s4.13-4.14,4.13-4.14l-.02-9.14ZM89.5,13.35l-4.13,4.15v8.99s4.11,0,4.11,0l.03-8.38v-4.03s0-.72,0-.72Z"/><path id="r" d="M61.5.72h-8.29v4.11h4.18l4.11-4.11h0ZM51.96.72h-7.36s-.01,19.63-.01,19.63l6.25,6.24h10.89s-4.67-4.13-4.67-4.13l-8.26-.02V4.83h3.17V.72ZM44.59,22.06v4.54s4.54,0,4.54,0l-4.54-4.54Z"/><path id="s" d="M131.34.89h-8.77v4.31h4.66s4.11-4.3,4.11-4.3h0ZM121.32.89h-6.5s-.02,25.84-.02,25.84h6.43s0,0,0,0h.09v-4.26h-2.23s0-6.69,0-6.69h2.22s0-4.12,0-4.12h-2.22s0-6.46,0-6.46h2.22s0-4.3,0-4.3ZM126.64,11.65h-4.07v4.09l4.07-4.09h0ZM122.57,22.47v4.26h4.59s4.14-4.24,4.14-4.24l-8.73-.02Z"/><path id="t" d="M200.13.63l-4.37,2.63v7.42s.01,0,.01,0v.89s4.38,4.38,4.38,4.38l-.02-15.32ZM182.83.67c-.03,2.1-.04,6.31-.04,6.34l12.99,12.82v6.77h4.39v-8.89s-4.76-4.74-4.76-4.74l-12.58-12.31ZM182.79,8.61s.04,13.15.02,17.93c0-.05,4.33.03,4.33.03v-13.59s-4.36-4.37-4.36-4.37Z"/><path id="u" d="M163.19.68l-4.1,4.13c0-.06,0,21.15,0,21.8h4.11s0-25.92,0-25.92ZM151.47.68c0,1.38,0,2.77,0,4.15h5.84l3.85-4.15h-9.69ZM164.43.69c0,1.38,0,2.77,0,4.15h4.4l3.85-4.15h-8.25Z"/><path id="v" d="M178.66.93h-4.11s0,4.15,0,4.15l4.11-4.14h0ZM178.66,2.76l-4.11,4.14v9.14s4.13-4.14,4.13-4.14l-.02-9.14ZM178.68,13.66l-4.13,4.15v8.99s4.11,0,4.11,0l.03-8.38v-4.03s0-.72,0-.72Z"/><path id="w" d="M104.27.75l-4.1,4.13c0-.06,0,21,0,21.65h4.11s0-25.78,0-25.78ZM92.55.75c0,1.38,0,2.77,0,4.15h5.84l3.85-4.15h-9.69ZM105.52.75c0,1.38,0,2.77,0,4.15h4.4l3.85-4.15h-8.25Z"/><path id="x" d="M150.48.72h-8.29v4.11h4.18l4.11-4.11h0ZM140.94.72h-7.36s-.01,19.63-.01,19.63l6.25,6.24h10.89s-4.67-4.13-4.67-4.13l-8.26-.02V4.83h3.17V.72ZM133.56,22.06v4.54s4.54,0,4.54,0l-4.54-4.54Z"/><path id="y" d="M6.15.97l-1.02,4.2-3.1,10.9h4.41s1.31,0,1.31,0l3.85-4.15h-4.03c.61-2.25,1.82-6.73,1.82-6.73h1.9s.28,1.03.28,1.03h4.38l-1.54-5.23H6.15ZM11.89,7.43l5.27,19.38,1.91-1.95,1.65-1.69-4.43-15.75h-4.39ZM1.68,17.29l-1.68,5.89,3.52,3.61,2.58-9.51H1.68Z"/></g><g id="z"><path id="aa" d="M63.3,35.37v2.38s11.3,10.06,11.3,10.06l-5.96,7.08v6.31s11.19-13.35,11.19-13.35l-13.45-12.48h-3.08ZM63.29,39.36v21.83s4.12,0,4.12,0l.05-18.14-4.17-3.7Z"/><path id="ab" d="M101.5,35.2l.02,16.88h13.9s4.38.02,4.38.02v-12.53s-4.37-4.36-4.37-4.36h0s0,14.75,0,14.75l-4.78-3.91s-4.72,3.9-4.72,3.9v-10.31s-4.43-4.43-4.43-4.43ZM101.53,53.32v7.87s9.12-6.47,9.12-6.47l9.13,6.35.02-7.74h-18.27Z"/><path id="ac" d="M140.24,35.03l-4.37,2.63v7.42s.01,0,.01,0v.89s4.38,4.38,4.38,4.38l-.02-15.32ZM122.94,35.06c-.03,2.1-.04,6.31-.04,6.34l12.99,12.82v6.77h4.39v-8.89s-4.76-4.74-4.76-4.74l-12.58-12.31ZM122.9,43.01s.04,13.15.02,17.93c0-.05,4.33.03,4.33.03v-13.59s-4.36-4.37-4.36-4.37Z"/><path id="ad" d="M85.53,35.41l-1.02,4.2-3.1,10.9h4.41s1.31,0,1.31,0l3.85-4.15h-4.03c.61-2.25,1.82-6.73,1.82-6.73h1.9s.28,1.03.28,1.03h4.38l-1.54-5.23h-8.25ZM91.27,41.87l5.27,19.38,1.91-1.95,1.65-1.69-4.43-15.75h-4.39ZM81.06,51.73l-1.68,5.89,3.52,3.61,2.58-9.51h-4.42Z"/></g></g></svg>