<?xml version="1.0" encoding="UTF-8"?><svg id="b" xmlns="http://www.w3.org/2000/svg" viewBox="0 0 508.22 895.38"><g id="c"><path id="d" d="M436.6,201.27v-7.6c1.53,1.46,3.06,2.93,4.59,4.39l-4.59,3.21ZM443.95,200.7l-7.3,5.11-.05-.07v3.86h16.65c-3.1-2.97-6.2-5.93-9.3-8.89ZM379.06,195.72l31.59,30.79,5.68.08,1.9-1.82-12.66-13.38v-2.81s-13.62-13.62-13.62-13.62v-26.74c-1.76-.71-3.02-2.43-3.02-4.44,0-2.64,2.15-4.79,4.79-4.79s4.79,2.15,4.79,4.79c0,1.93-1.16,3.6-2.81,4.35v25.28l9.87,9.87-.02-39.35c-8.83-8.46-17.66-16.91-26.48-25.37v57.16ZM420.94,222.17l11.35-10.89v-10.08l-13.74-5v-19.81c-3.08-2.95-6.17-5.91-9.25-8.86l.02,42.37,11.62,12.28ZM432.29,189.54c-3.33-3.19-6.66-6.38-9.99-9.57v13.6l9.99,3.64v-7.67ZM313.25,80.71c0,1.03.84,1.87,1.87,1.87s1.87-.84,1.87-1.87-.84-1.87-1.87-1.87-1.87.84-1.87,1.87ZM329.06,97.61c0-1.03-.84-1.87-1.87-1.87s-1.87.84-1.87,1.87.84,1.87,1.87,1.87,1.87-.84,1.87-1.87ZM351.6,121.73c0-1.03-.84-1.87-1.87-1.87s-1.87.84-1.87,1.87.84,1.87,1.87,1.87,1.87-.84,1.87-1.87ZM325.04,101.86c-1.56-.79-2.63-2.39-2.63-4.25,0-2.64,2.15-4.79,4.79-4.79s4.79,2.15,4.79,4.79c0,1.86-1.08,3.46-2.63,4.25v17.72h16.13c.79-1.56,2.39-2.63,4.25-2.63,2.64,0,4.79,2.15,4.79,4.79s-2.15,4.79-4.79,4.79c-1.86,0-3.46-1.08-4.25-2.63h-16.13v23.39l7.6,7.4c.4-.11.82-.19,1.26-.19,2.64,0,4.79,2.15,4.79,4.79,0,.4-.06.78-.15,1.15l13.79,13.44v-26.84c-1.56-.79-2.63-2.39-2.63-4.25,0-2.64,2.15-4.79,4.79-4.79s4.79,2.15,4.79,4.79c0,1.86-1.08,3.46-2.63,4.25v31.04l12.37,12.06-6.15-6.29v-51.81c-1.71-.73-2.92-2.43-2.92-4.41,0-.93.28-1.79.74-2.53-15.07-14.44-30.14-28.87-45.21-43.3-.32,1.39-1.25,2.55-2.5,3.18v49.89l-.36.3,8.13,7.92v-41.21ZM272.76,198.03c-.44.59-1.01,1.08-1.67,1.42v47.47h1.71l-.03-48.89ZM234.28,107.29l13.34,16.16V15.69l-3.08-5.88c-3.42-3.27-6.83-6.54-10.26-9.81v107.29ZM257.89,25.02v-2.44c-2.07-1.98-4.15-3.97-6.22-5.95v18.25l6.22-9.86ZM240.02,336.51v20.82l7.6,4.92v-42.45l-8.83-15.46v-42.99l-4.51,9.82v58.87c.8-1.26,2.2-2.1,3.8-2.1,2.49,0,4.51,2.02,4.51,4.51,0,1.79-1.06,3.32-2.57,4.05ZM261.3,178.99h11.45l-.02-26.18h-11.41l-.03,26.18ZM270.84,137.67h1.88l-.03-36.72-1.86,1.86v34.87ZM391.85,163.78c0,1.03.84,1.87,1.87,1.87s1.87-.84,1.87-1.87-.84-1.87-1.87-1.87-1.87.84-1.87,1.87ZM261.33,148.5h11.4v-6.52h-11.4v6.52ZM267.07,195.19c0,1.03.84,1.87,1.87,1.87s1.87-.84,1.87-1.87-.84-1.87-1.87-1.87-1.87.84-1.87,1.87ZM247.62,754.82l-4.91,3.57v37.66c1.59.7,2.71,2.28,2.71,4.13,0,2.49-2.02,4.51-4.51,4.51s-4.51-2.02-4.51-4.51c0-1.88,1.15-3.49,2.79-4.16v-15.49l-3.66,2.66v20.16s-9.15-8.93-9.15-8.93v55.48c1.34,1.29,2.69,2.57,4.03,3.85v-31.7l17.22-12.51v-54.72ZM280.41,56.02c0,1.03.84,1.87,1.87,1.87s1.87-.84,1.87-1.87-.84-1.87-1.87-1.87-1.87.84-1.87,1.87ZM261.12,446.21v11.79s12.82,4.12,12.82,4.12v-28.18l-12.82,12.27ZM208.94,777.42v6.02c1.61.69,2.75,2.29,2.75,4.15,0,2.49-2.02,4.51-4.51,4.51s-4.51-2.02-4.51-4.51c0-1.86,1.13-3.46,2.75-4.15v-9.46l-11.06-10.78v30.4l9.8,8.24v26.81c6.05,5.79,12.11,11.58,18.17,17.37v-55.56l-13.37-13.04ZM261.12,462.73v5.89l12.82,3.76v-5.53l-12.82-4.12ZM273.94,541.23l-6.85-11.04v-33.57c-1.41-.83-2.37-2.35-2.37-4.11,0-2.64,2.15-4.79,4.79-4.79,2.01,0,3.73,1.25,4.44,3.01v-13.67l-12.82-3.76v70.57s12.82,19.82,12.82,19.82v-22.47ZM267.63,492.51c0,1.03.84,1.87,1.87,1.87s1.87-.84,1.87-1.87-.84-1.87-1.87-1.87-1.87.84-1.87,1.87ZM271.58,496.8v32.1l2.36,3.8v-38.43c-.45,1.11-1.29,2.01-2.36,2.53ZM298.52,117.22v-24.73c-1.56-.79-2.63-2.39-2.63-4.25,0-2.64,2.15-4.79,4.79-4.79s4.79,2.15,4.79,4.79c0,1.86-1.08,3.46-2.63,4.25v28.93l10.14,9.88v-46.34c-1.56-.79-2.63-2.39-2.63-4.25,0-2.2,1.5-4.04,3.52-4.6-5.79-5.55-11.59-11.09-17.38-16.64v17.69l-19.27,19.27,21.32,20.78ZM360.65,142.76c0-1.03-.84-1.87-1.87-1.87s-1.87.84-1.87,1.87.84,1.87,1.87,1.87,1.87-.84,1.87-1.87ZM302.54,88.23c0-1.03-.84-1.87-1.87-1.87s-1.87.84-1.87,1.87.84,1.87,1.87,1.87,1.87-.84,1.87-1.87ZM457.17,213.34h-20.81l-18.32,17.58-2.91-.04,32.84,32.01-93.2,90.67v-91.84l-43.07,41.2v147.27l196.51-188.04c-17.03-16.26-34.04-32.53-51.05-48.8ZM369.03,129.47c.16,0,.32-.03.47-.07-.76-.73-1.53-1.46-2.29-2.19-.03.13-.04.26-.04.39,0,1.03.84,1.87,1.87,1.87ZM375.32,134.98c-1.19-1.14-2.39-2.29-3.59-3.43-.26.18-.53.34-.82.47v50.28l4.41,4.51v-51.83ZM280.4,51.62v-7.51c-3.72-3.56-7.44-7.11-11.15-10.67l-8.21,11.25v92.98h5.49v-36.65l6.16-6.16v-2.82s1.42,1.39,1.42,1.39l18.05-18.05v-20.03c-2.67-2.56-5.35-5.11-8.02-7.67v3.93c1.71.73,2.92,2.43,2.92,4.41,0,2.64-2.15,4.79-4.79,4.79s-4.79-2.15-4.79-4.79c0-1.98,1.2-3.68,2.92-4.41ZM272.76,192.34v-9.04h-11.47l-.08,86.27,5.57-4.99v-65.13c-1.56-.79-2.63-2.39-2.63-4.25,0-2.64,2.15-4.79,4.79-4.79,1.57,0,2.95.77,3.82,1.94ZM236.32,332.46c0,.97.79,1.76,1.76,1.76s1.76-.79,1.76-1.76-.79-1.76-1.76-1.76-1.76.79-1.76,1.76ZM247.62,817.9v-4l-13.69,9.95v33.28c1.9,1.82,3.8,3.64,5.71,5.46v-39.09l7.98-5.6ZM257.19,363.08l.22-222.68h-.11V43.47l9.23-12.64c-1.7-1.62-3.4-3.25-5.1-4.87v.09l-9.75,15.46v277.23l.21.36-.21.12v125.58l5.51-5.28v-76.44ZM265.24,334.95c0,1.03.84,1.87,1.87,1.87s1.87-.84,1.87-1.87-.84-1.87-1.87-1.87-1.87.84-1.87,1.87ZM272.9,388.23l-11.78,5.4v42.12s11.81-11.3,11.81-11.3l-.03-36.23ZM272.81,261.36h-1.72v5.15l-9.89,8.86-.08,87.72v15.51s11.77-5.39,11.77-5.39l-.05-69.14-3.67,3.87v22.71c1.61.77,2.73,2.4,2.73,4.3,0,2.64-2.15,4.79-4.79,4.79s-4.79-2.15-4.79-4.79c0-1.9,1.12-3.53,2.73-4.3v-24.35l7.79-8.22-.03-36.71ZM261.12,383.54v5.14l11.78-5.4v-5.14s-11.78,5.4-11.78,5.4ZM235.29,470.93l.03,37.24,12.3-8.94v-40.09l-12.32,11.79ZM240.96,382.28v37.23c1.51.73,2.57,2.26,2.57,4.05,0,2.49-2.02,4.51-4.51,4.51s-4.51-2.02-4.51-4.51c0-1.79,1.06-3.32,2.57-4.05v-38.59l10.36-12.92.17.14v-1.25l-11.48-7.44v-22.93c-.76-.37-1.41-.94-1.86-1.64v126.56l13.34-12.76v-74.69l-6.66,8.3ZM237.27,423.56c0,.97.79,1.76,1.76,1.76s1.76-.79,1.76-1.76-.79-1.76-1.76-1.76-1.76.79-1.76,1.76ZM269.93,653.39v45.82c1.5.81,2.54,2.38,2.54,4.2,0,2.64-2.15,4.79-4.79,4.79s-4.79-2.15-4.79-4.79c0-1.82,1.04-3.39,2.54-4.2v-47l8.5-15.07v-65.85l-12.81-19.82v209.02s12.81,13.85,12.81,13.85v-128.04l-4.01,7.1ZM268.45,876.16l-7.32-13.3v20.27c2.44,2.33,4.88,4.67,7.32,7v-13.98ZM271.09,251.23v5.82h1.72v-5.82h-1.72ZM261.13,766v89.1s11.07,20.1,11.07,20.1v18.52c.58.55,1.16,1.11,1.74,1.66v-115.54l-12.81-13.84ZM265.82,703.41c0,1.03.84,1.87,1.87,1.87s1.87-.84,1.87-1.87-.84-1.87-1.87-1.87-1.87.84-1.87,1.87ZM246.84,516.74l-11.51,8.36.09,122.39h2.11v-17.33l10.09-9.44v-83.9l-4.67,7.15v55.4c1.51.73,2.57,2.26,2.57,4.05,0,2.49-2.02,4.51-4.51,4.51s-4.51-2.02-4.51-4.51c0-1.79,1.06-3.32,2.57-4.05v-56.55l7.77-11.92v-14.16ZM200.62,803.47l-6.27-5.27v20.76l-.13.17c2.14,2.04,4.27,4.09,6.4,6.13v-21.79ZM247.62,870.21v-48.01l-4.45,3.12v38.94c1.61.69,2.75,2.29,2.75,4.15,0,.05-.01.1-.01.15.57.55,1.15,1.1,1.72,1.65ZM257.19,449.98l-5.51,5.28v418.84c1.84,1.76,3.68,3.52,5.52,5.28v-429.4ZM60.25,632.49l93.2-90.67v91.84l43.07-41.2v-147.27L0,633.23c44.11,42.11,88.15,84.29,132.18,126.48l58.64.47v-.42l-130.57-127.27ZM234.28,113.66v4.74h3.91l-3.91-4.74ZM235.85,156.44c-.69,0-1.28.4-1.57.98v1.55c.29.58.88.98,1.57.98.97,0,1.76-.79,1.76-1.76s-.79-1.76-1.76-1.76ZM238.79,223.77l-4.51-7.41v45.09l4.51-9.82v-27.86ZM239.18,774.52l-3.66,2.66v1.64s3.66-2.66,3.66-2.66v-1.65ZM163.13,789.35c9.23,8.84,18.46,17.68,27.69,26.52v-26.52h-27.69ZM239.26,603.42c0,.97.79,1.76,1.76,1.76s1.76-.79,1.76-1.76-.79-1.76-1.76-1.76-1.76.79-1.76,1.76ZM190.82,763.71l-54.92-.44c2.67,2.56,5.34,5.11,8.01,7.67h46.92v-7.23ZM205.42,787.59c0,.97.79,1.76,1.76,1.76s1.76-.79,1.76-1.76-.79-1.76-1.76-1.76-1.76.79-1.76,1.76ZM237.53,670.42v-19.06h-2.11l.02,21.12c.45-.9,1.19-1.63,2.09-2.06ZM247.62,129.82l-6.43-7.79v.42h-6.91v31.53c.49-.18,1.01-.3,1.57-.3,2.49,0,4.51,2.02,4.51,4.51,0,1.75-1.01,3.25-2.47,4l.29,52.76,4.67,7.68v80.64l4.77,8.35v-181.8ZM241.23,674.48c0-.97-.79-1.76-1.76-1.76s-1.76.79-1.76,1.76.79,1.76,1.76,1.76,1.76-.79,1.76-1.76ZM240.9,801.94c.97,0,1.76-.79,1.76-1.76s-.79-1.76-1.76-1.76-1.76.79-1.76,1.76.79,1.76,1.76,1.76ZM190.82,774.47h-43.23c3.95,3.79,7.91,7.57,11.86,11.36h31.37v-11.36ZM235.32,513.39v6.48s11.51-8.36,11.51-8.36v-6.48s-11.51,8.36-11.51,8.36ZM247.62,703.69l-5.34,8.01v26.59c1.51.73,2.57,2.26,2.57,4.05,0,2.49-2.02,4.51-4.51,4.51s-4.51-2.02-4.51-4.51c0-1.79,1.06-3.32,2.57-4.05v-20.77l-2.93,4.39.04,50.92,3.67-2.66v-13.57l8.44-6.14v-46.76ZM247.62,626.03l-6.21,5.81v38.58c1.51.73,2.57,2.26,2.57,4.05,0,2.49-2.02,4.51-4.51,4.51-1.77,0-3.29-1.04-4.03-2.53l.03,38.46,12.15-18.22v-70.67ZM242.1,742.34c0-.97-.79-1.76-1.76-1.76s-1.76.79-1.76,1.76.79,1.76,1.76,1.76,1.76-.79,1.76-1.76Z" style="fill:rgba(35,31,32,.99);"/></g></svg>