<?xml version="1.0" encoding="UTF-8"?><svg id="b" xmlns="http://www.w3.org/2000/svg" viewBox="0 0 712.24 1331.71"><g id="c"><path id="d" d="M699.75,1305.07v-733.67l.21-.12-.21-.36v-277.23l9.75-15.46v-51.97c1.61-.69,2.75-2.29,2.75-4.15,0-2.49-2.02-4.51-4.51-4.51s-4.51,2.02-4.51,4.51c0,1.86,1.13,3.46,2.75,4.15v50.95l-6.22,9.86v-112.68c1.5-.73,2.54-2.26,2.54-4.04,0-2.49-2.02-4.51-4.51-4.51s-4.51,2.02-4.51,4.51c0,1.73.99,3.22,2.43,3.97v85.94l-10.99-20.99v-84.6c1.61-.69,2.75-2.29,2.75-4.15,0-2.49-2.02-4.51-4.51-4.51s-4.51,2.02-4.51,4.51c0,1.86,1.13,3.46,2.75,4.15v35.27l-5.96-11.17V39.36c1.61-.69,2.75-2.29,2.75-4.15,0-2.49-2.02-4.51-4.51-4.51s-4.51,2.02-4.51,4.51c0,1.86,1.13,3.46,2.75,4.15v99.47l-10.88-10.96v-32.8c1.61-.69,2.75-2.29,2.75-4.15,0-2.49-2.02-4.51-4.51-4.51s-4.51,2.02-4.51,4.51c0,1.86,1.13,3.46,2.75,4.15v34.26l14.41,14.52v5.19l-20.9-20.9V32.08h-.71c1.98-.48,3.46-2.25,3.46-4.37,0-2.49-2.02-4.51-4.51-4.51s-4.51,2.02-4.51,4.51c0,2.12,1.48,3.89,3.46,4.37h-.71v97.51l24.43,24.43v25.65l9.49,17.78v42.71l14.52,27.73v107.76l-15.52-18.8h-14.35v-55.5l-7.25-7.08v-21.36l14.8-14.8v-23.48c1.61-.69,2.75-2.29,2.75-4.15,0-2.49-2.02-4.51-4.51-4.51s-4.51,2.02-4.51,4.51c0,1.86,1.13,3.46,2.75,4.15v22.02l-14.8,14.8v19.37l-4.01-3.91v-38.51l10.53-10.28v-39.56c1.61-.69,2.75-2.29,2.75-4.15,0-2.49-2.02-4.51-4.51-4.51s-4.51,2.02-4.51,4.51c0,1.86,1.13,3.46,2.75,4.15v38.08l-10.53,10.28v36.55l-6.43-6.28v-55.62l-25.17-24.59v-11.69l10.45-10.45V50.03h-.83c2.04-.43,3.57-2.24,3.57-4.41,0-2.49-2.02-4.51-4.51-4.51s-4.51,2.02-4.51,4.51c0,2.16,1.53,3.98,3.57,4.41h-.83v123.35l-6.92,6.92v-95.85c1.46-.75,2.48-2.25,2.48-4,0-2.49-2.02-4.51-4.51-4.51s-4.51,2.02-4.51,4.51c0,1.75,1.02,3.26,2.48,4v86.73l-9.36-18.86v-54.63c1.61-.69,2.75-2.29,2.75-4.15,0-2.49-2.02-4.51-4.51-4.51s-4.51,2.02-4.51,4.51c0,1.86,1.13,3.46,2.75,4.15v55.46l12.89,25.97v19.57l25.17,24.59v55.62l24.74,24.17v43.65l-4.01-3.92v-30.31c1.61-.69,2.75-2.29,2.75-4.15,0-2.49-2.02-4.51-4.51-4.51s-4.51,2.02-4.51,4.51c0,1.86,1.13,3.46,2.75,4.15v31.79l7.54,7.36v9.27h16.49l8,9.69h-8.44l.08-.09-7.45-7.28h-15.19l-12.58-12.29v-46.84c1.61-.69,2.75-2.29,2.75-4.15,0-2.49-2.02-4.51-4.51-4.51s-4.51,2.02-4.51,4.51c0,1.86,1.13,3.46,2.75,4.15v48.32l14.67,14.33h15.19l3.93,3.84h-21.27l-12.56-12.26h-24.29v-71.17l-2.84-2.78v-28.68l-13.18-13.18v-23.71c1.61-.69,2.75-2.29,2.75-4.15,0-2.49-2.02-4.51-4.51-4.51s-4.51,2.02-4.51,4.51c0,1.86,1.13,3.46,2.75,4.15v25.17l13.18,13.18v23.77l-21.51-21.01v-61.39c1.61-.69,2.75-2.29,2.75-4.15,0-2.49-2.02-4.51-4.51-4.51s-4.51,2.02-4.51,4.51c0,1.86,1.13,3.46,2.75,4.15v57.94l-31.9-31.16,21.37-15.16v-48.34c1.61-.69,2.75-2.29,2.75-4.15,0-2.49-2.02-4.51-4.51-4.51s-4.51,2.02-4.51,4.51c0,1.86,1.13,3.46,2.75,4.15v46.52l-20.41,14.48-3.87-3.78v-6.41l15.44-10.79v-66.75c1.61-.69,2.75-2.29,2.75-4.15,0-2.49-2.02-4.51-4.51-4.51s-4.51,2.02-4.51,4.51c0,1.86,1.13,3.46,2.75,4.15v64.91l-11.91,8.33v-100.1l26.72-26.72v-45.45c1.61-.69,2.75-2.29,2.75-4.15,0-2.49-2.02-4.51-4.51-4.51s-4.51,2.02-4.51,4.51c0,1.86,1.13,3.46,2.75,4.15v43.99l-23.19,23.19v-25.52l15.43-15.43V8.66c1.61-.69,2.75-2.29,2.75-4.15,0-2.49-2.02-4.51-4.51-4.51s-4.51,2.02-4.51,4.51c0,1.86,1.13,3.46,2.75,4.15v52.18l-11.9,11.9v-16.85c1.46-.75,2.48-2.25,2.48-4,0-2.49-2.02-4.51-4.51-4.51s-4.51,2.02-4.51,4.51c0,1.75,1.02,3.26,2.48,4v164.86l69.75,68.12v55.36l-20.97-18.88v-36.23h0s0,0,0,0v-9.86c1.61-.69,2.75-2.29,2.75-4.15,0-2.49-2.02-4.51-4.51-4.51s-4.51,2.02-4.51,4.51c0,1.86,1.13,3.46,2.75,4.15v6.47l-60.17-57.89v-100.28c1.61-.69,2.75-2.29,2.75-4.15,0-2.49-2.02-4.51-4.51-4.51s-4.51,2.02-4.51,4.51c0,1.86,1.13,3.46,2.75,4.15v66.08l-14.62-10.22v-55.85c1.61-.69,2.75-2.29,2.75-4.15,0-2.49-2.02-4.51-4.51-4.51s-4.51,2.02-4.51,4.51c0,1.86,1.13,3.46,2.75,4.15v20.44l-8.61,6.02v-46.69c1.61-.69,2.75-2.29,2.75-4.15,0-2.49-2.02-4.51-4.51-4.51s-4.51,2.02-4.51,4.51c0,1.86,1.13,3.46,2.75,4.15v92.14l6.26,4.38v63.04h-7.47l-12.2-12.2h-42.03v-18.52l25.47-17.8c.7.44,1.52.71,2.41.71,2.49,0,4.51-2.02,4.51-4.51s-2.02-4.51-4.51-4.51-4.51,2.02-4.51,4.51c0,.31.03.61.09.9l-23.45,16.4v-6.88l27.02-18.89V39.36c1.61-.69,2.75-2.29,2.75-4.15,0-2.49-2.02-4.51-4.51-4.51s-4.51,2.02-4.51,4.51c0,1.86,1.13,3.46,2.75,4.15v85.98l-7.16-19.16v-41.27c1.61-.69,2.75-2.29,2.75-4.15,0-2.49-2.02-4.51-4.51-4.51s-4.51,2.02-4.51,4.51c0,1.86,1.13,3.46,2.75,4.15v41.91l10.42,27.88.27-.1v69.64l-6.78,4.74v-19.51c1.61-.69,2.75-2.29,2.75-4.15,0-2.49-2.02-4.51-4.51-4.51s-4.51,2.02-4.51,4.51c0,1.86,1.13,3.46,2.75,4.15v21.98l-13.19,9.22v-58.84c1.61-.69,2.75-2.29,2.75-4.15,0-2.49-2.02-4.51-4.51-4.51s-4.51,2.02-4.51,4.51c0,1.86,1.13,3.46,2.75,4.15v129.99l-5.32,3.72V126.01c1.46-.75,2.48-2.25,2.48-4,0-2.49-2.02-4.51-4.51-4.51s-4.51,2.02-4.51,4.51c0,1.75,1.02,3.26,2.48,4v193.3l65.81,46.01h20.47l1.16.86v62.71l-11.29,9.72v-27.75c1.44-.75,2.44-2.25,2.44-3.98,0-2.49-2.02-4.51-4.51-4.51s-4.51,2.02-4.51,4.51c0,1.77,1.03,3.29,2.52,4.03v35.75l-13.34-10.97v-59.52c1.61-.69,2.75-2.29,2.75-4.15,0-2.49-2.02-4.51-4.51-4.51s-4.51,2.02-4.51,4.51c0,1.86,1.13,3.46,2.75,4.15v34.99l-11-7.78v-7.32c1.61-.69,2.75-2.29,2.75-4.15,0-2.49-2.02-4.51-4.51-4.51s-4.51,2.02-4.51,4.51c0,1.86,1.13,3.46,2.75,4.15v9.15l14.53,10.27v21.87l16.87,13.87v25.41h-28.63v-18.6l-36.14-30.95v-26.01l.42.49,16.39-14.12v-18.18c1.61-.69,2.75-2.29,2.75-4.15,0-2.49-2.02-4.51-4.51-4.51s-4.51,2.02-4.51,4.51c0,1.86,1.13,3.46,2.75,4.15v16.56l-13.28,11.45v-35.1c1.61-.69,2.75-2.29,2.75-4.15,0-2.49-2.02-4.51-4.51-4.51s-4.51,2.02-4.51,4.51c0,1.86,1.13,3.46,2.75,4.15v66.53l36.14,30.95v16.98h-4.79v-14.12l-38.32-33.03v-87.84c1.61-.69,2.75-2.29,2.75-4.15,0-2.49-2.02-4.51-4.51-4.51s-4.51,2.02-4.51,4.51c0,1.86,1.13,3.46,2.75,4.15v72.89l-10.94-9.95v-82c1.61-.69,2.75-2.29,2.75-4.15,0-2.49-2.02-4.51-4.51-4.51s-4.51,2.02-4.51,4.51c0,1.86,1.13,3.46,2.75,4.15v83.56l14.46,13.15v11.8l38.32,33.03v12.5h-10.88l-51.19-41.5v-185.47l22.45-15.7v-31.71c1.61-.69,2.75-2.29,2.75-4.15,0-2.49-2.02-4.51-4.51-4.51s-4.51,2.02-4.51,4.51c0,1.86,1.13,3.46,2.75,4.15v29.88l-18.92,13.23v-4.51l12.03-8.05v-92.71c1.65-.67,2.82-2.29,2.82-4.17,0-2.49-2.02-4.51-4.51-4.51s-4.51,2.02-4.51,4.51c0,1.83,1.1,3.41,2.67,4.11v52.81l-21.2-33.06v-9.17h5.23l8.68-13.54V45.62h-.04c1.6-.69,2.72-2.28,2.72-4.14,0-2.49-2.02-4.51-4.51-4.51s-4.51,2.02-4.51,4.51c0,1.88,1.16,3.5,2.81,4.17v90.39l-7.08,11.04h-3.3v-47.08c1.61-.69,2.75-2.29,2.75-4.15,0-2.49-2.02-4.51-4.51-4.51s-4.51,2.02-4.51,4.51c0,1.86,1.13,3.46,2.75,4.15v60.8l24.73,38.56v31.55l-12.64,8.46.08.12v15.75l-5.22-3.65v-40.8c1.61-.69,2.75-2.29,2.75-4.15,0-2.49-2.02-4.51-4.51-4.51s-4.51,2.02-4.51,4.51c0,1.86,1.13,3.46,2.75,4.15v42.64l8.75,6.11v166.57h-6.08v-133.68c1.61-.69,2.75-2.29,2.75-4.15,0-2.49-2.02-4.51-4.51-4.51s-4.51,2.02-4.51,4.51c0,1.86,1.13,3.46,2.75,4.15v131.54l-3.06,2.14h-7.34l-14.58-10.2h-6.06l24.84-22.58v-132.99c1.61-.69,2.75-2.29,2.75-4.15,0-2.49-2.02-4.51-4.51-4.51s-4.51,2.02-4.51,4.51c0,1.86,1.13,3.46,2.75,4.15v131.43l-14.07,12.79-8.78-8.78v-13.31l12.45-8.71v-131.22c1.61-.69,2.75-2.29,2.75-4.15,0-2.49-2.02-4.51-4.51-4.51s-4.51,2.02-4.51,4.51c0,1.86,1.13,3.46,2.75,4.15v34.89l-6.27-4.38V114.06c1.61-.69,2.75-2.29,2.75-4.15,0-2.49-2.02-4.51-4.51-4.51s-4.51,2.02-4.51,4.51c0,1.86,1.13,3.46,2.75,4.15v160.84l9.8,6.85v28.53l-38.34-26.91v-38.09l10.09-10.09v-25.49c1.61-.69,2.75-2.29,2.75-4.15,0-2.49-2.02-4.51-4.51-4.51s-4.51,2.02-4.51,4.51c0,1.86,1.13,3.46,2.75,4.15v24.03l-6.56,6.57v-52.51l11.16-7.8V56.52c1.61-.69,2.75-2.29,2.75-4.15,0-2.49-2.02-4.51-4.51-4.51s-4.51,2.02-4.51,4.51c0,1.86,1.13,3.46,2.75,4.15v121.62l-7.63,5.33v-116.64c1.61-.69,2.75-2.29,2.75-4.15,0-2.49-2.02-4.51-4.51-4.51s-4.51,2.02-4.51,4.51c0,1.86,1.13,3.46,2.75,4.15v82.8l-8.41-10.86v-16.44c1.61-.69,2.75-2.29,2.75-4.15,0-2.49-2.02-4.51-4.51-4.51s-4.51,2.02-4.51,4.51c0,1.86,1.13,3.46,2.75,4.15v17.65l11.93,15.42v129.81l41.87,29.39v57.35l-8.93,6.24v-30.99c1.63-.68,2.79-2.29,2.79-4.16,0-2.49-2.02-4.51-4.51-4.51s-4.51,2.02-4.51,4.51c0,1.84,1.11,3.43,2.7,4.12v50.1l9.7,9.7-7.95,7.23-8.47-7.43h-25.67l-7.94-5.55,23.53-16.45v-42.1c1.68-.66,2.87-2.28,2.87-4.19,0-2.49-2.02-4.51-4.51-4.51s-4.51,2.02-4.51,4.51c0,1.81,1.08,3.37,2.62,4.08v40.37l-23.08,16.13-13.97-9.77v-5.48l22.97-16.06v-38.86c1.61-.69,2.75-2.29,2.75-4.15,0-2.49-2.02-4.51-4.51-4.51s-4.51,2.02-4.51,4.51c0,1.86,1.13,3.46,2.75,4.15v37.03l-22.97,16.06v4.85l-5.04-3.53v-17.72l19.72-13.79v-85.14c1.61-.69,2.75-2.29,2.75-4.15,0-2.49-2.02-4.51-4.51-4.51s-4.51,2.02-4.51,4.51c0,1.86,1.13,3.46,2.75,4.15v83.3l-16.2,11.32v-86.11c1.61-.69,2.75-2.29,2.75-4.15,0-2.49-2.02-4.51-4.51-4.51s-4.51,2.02-4.51,4.51c0,1.86,1.13,3.46,2.75,4.15v109.97l35.98,25.15h25.46l6.45,5.66h-51.97l-32.65-22.83c.03-.2.06-.4.06-.6,0-2.49-2.02-4.51-4.51-4.51s-4.51,2.02-4.51,4.51,2.02,4.51,4.51,4.51c.99,0,1.89-.33,2.64-.87l33.35,23.32h64.7l14.58,10.2h3.4l-12.97,9.07h-56.79l-24.03-16.87-40.62-28.4c.07-.31.11-.63.11-.96,0-2.49-2.02-4.51-4.51-4.51s-4.51,2.02-4.51,4.51,2.02,4.51,4.51,4.51c.86,0,1.67-.26,2.35-.68l14.84,10.38h-20.82l-24-16.78v-14.45l12.63-8.83v-34.9l12.07-3.44v20.74l13.49,9.43v5.9c-1.61.69-2.75,2.29-2.75,4.15,0,2.49,2.02,4.51,4.51,4.51s4.51-2.02,4.51-4.51c0-1.86-1.13-3.46-2.75-4.15v-7.74l-13.49-9.43v-19.9l25.4-7.24v-72.18l42.92-20.54v-50.61c1.61-.69,2.75-2.29,2.75-4.15,0-2.49-2.02-4.51-4.51-4.51s-4.51,2.02-4.51,4.51c0,1.86,1.13,3.46,2.75,4.15v48.38l-39.39,18.85v-5.77l27.42-13.97v-99.29c1.61-.69,2.75-2.29,2.75-4.15,0-2.49-2.02-4.51-4.51-4.51s-4.51,2.02-4.51,4.51c0,1.86,1.13,3.46,2.75,4.15v97.12l-23.89,12.17v-127.73c1.61-.69,2.75-2.29,2.75-4.15,0-2.49-2.02-4.51-4.51-4.51s-4.51,2.02-4.51,4.51c0,1.86,1.13,3.46,2.75,4.15v104.28h-15.13v-79.66c1.61-.69,2.75-2.29,2.75-4.15,0-2.49-2.02-4.51-4.51-4.51s-4.51,2.02-4.51,4.51c0,1.86,1.13,3.46,2.75,4.15v83.18h18.65v103.08l-61.76,17.61-12.02-8.4,46.72-13.16v-163.58c1.61-.69,2.75-2.29,2.75-4.15,0-2.49-2.02-4.51-4.51-4.51s-4.51,2.02-4.51,4.51c0,1.86,1.13,3.46,2.75,4.15v160.91l-46.93,13.22-.58-.41v-16.99l30.26-21.16v-22.72c1.61-.69,2.75-2.29,2.75-4.15,0-2.49-2.02-4.51-4.51-4.51s-4.51,2.02-4.51,4.51c0,1.86,1.13,3.46,2.75,4.15v20.88l-30.26,21.16v16.36l-14.25-9.96v-35.59c1.61-.69,2.75-2.29,2.75-4.15,0-2.49-2.02-4.51-4.51-4.51s-4.51,2.02-4.51,4.51c0,1.86,1.13,3.46,2.75,4.15v37.43l35.55,24.85v6.03h-4.78l-47.61-31.79v-17.88c1.61-.69,2.75-2.29,2.75-4.15,0-2.49-2.02-4.51-4.51-4.51s-4.51,2.02-4.51,4.51c0,1.86,1.13,3.46,2.75,4.15v19.76l44.79,29.91h-45.51l-39.52-27.63,9.09-9.09v-24.79c1.61-.69,2.75-2.29,2.75-4.15,0-2.49-2.02-4.51-4.51-4.51s-4.51,2.02-4.51,4.51c0,1.86,1.13,3.46,2.75,4.15v23.33l-8.5,8.5-7.15-5v-36.09l18.22-12.74v-17.72h5.35v11.02h49.44l51.39-35.93V89.53c1.61-.69,2.75-2.29,2.75-4.15,0-2.49-2.02-4.51-4.51-4.51s-4.51,2.02-4.51,4.51c0,1.86,1.13,3.46,2.75,4.15v126.37l-48.97,34.24h-4.46v-8.34l35.26-24.65v-47.02c1.61-.69,2.75-2.29,2.75-4.15,0-2.49-2.02-4.51-4.51-4.51s-4.51,2.02-4.51,4.51c0,1.86,1.13,3.46,2.75,4.15v45.19l-35.26,24.65v10.17h-36.81v-7.49h8.88v-11.51l41.72-41.72v-92.7c1.55-.71,2.64-2.27,2.64-4.09,0-2.49-2.02-4.51-4.51-4.51s-4.51,2.02-4.51,4.51c0,1.82,1.09,3.38,2.64,4.09v76.97l-12.37-12.37v-31.95c1.55-.71,2.64-2.27,2.64-4.09,0-2.49-2.02-4.51-4.51-4.51s-4.51,2.02-4.51,4.51c0,1.82,1.09,3.38,2.64,4.09v33.5l16.12,16.12v8.88l-37.97,37.97v-69.51c1.61-.69,2.75-2.29,2.75-4.15,0-2.49-2.02-4.51-4.51-4.51s-4.51,2.02-4.51,4.51c0,1.86,1.13,3.46,2.75,4.15v82.79h-14.23v-54.66c1.61-.69,2.75-2.29,2.75-4.15,0-2.49-2.02-4.51-4.51-4.51s-4.51,2.02-4.51,4.51c0,1.86,1.13,3.46,2.75,4.15v74.07l-18.22,12.74v35.46l-14.31-10.01v-87.68c1.61-.69,2.75-2.29,2.75-4.15,0-2.49-2.02-4.51-4.51-4.51s-4.51,2.02-4.51,4.51c0,1.86,1.13,3.46,2.75,4.15v89.52l41.95,29.33h-22.9l-8.21,5.74-27.55-18.1v-78.28c1.61-.69,2.75-2.29,2.75-4.15,0-2.49-2.02-4.51-4.51-4.51s-4.51,2.02-4.51,4.51c0,1.86,1.13,3.46,2.75,4.15v80.18l25.21,16.56h-12.21l-20.25-11.45v-98.27c1.61-.69,2.75-2.29,2.75-4.15,0-2.49-2.02-4.51-4.51-4.51s-4.51,2.02-4.51,4.51c0,1.86,1.13,3.46,2.75,4.15v100.33l16.61,9.39h-28.35l-12.82-10.09c.42-.68.67-1.47.67-2.33,0-2.49-2.02-4.51-4.51-4.51s-4.51,2.02-4.51,4.51,2.02,4.51,4.51,4.51c.36,0,.7-.05,1.03-.13l-.11.14,14.52,11.42h55.4l8.74-6.11h26.84l22.86,15.98h57.75v32.91l-20.04-14.01c.11-.39.19-.79.19-1.22,0-2.49-2.02-4.51-4.51-4.51s-4.51,2.02-4.51,4.51,2.02,4.51,4.51,4.51c.76,0,1.47-.21,2.1-.54l58.9,41.18h26.97l20.76,14.51,19.91,13.98h-62.19l-13.25-11.39c.18-.48.29-.99.29-1.53,0-2.49-2.02-4.51-4.51-4.51s-4.51,2.02-4.51,4.51,2.02,4.51,4.51,4.51c.65,0,1.26-.14,1.82-.39l14.35,12.34h127.53l18.02-12.6h11.56v7.43l15.06,12.21h-99.49l-7.49,5.24h-14.75c-.69-1.61-2.29-2.75-4.15-2.75-2.49,0-4.51,2.02-4.51,4.51s2.02,4.51,4.51,4.51c1.86,0,3.46-1.13,4.15-2.75h15.86l7.49-5.24h102.73l34.4,27.89h77.34l5.39-4.37,9,6.3h20.11l12.78,8.94h-15.36c-.75-1.47-2.25-2.48-4-2.48-2.49,0-4.51,2.02-4.51,4.51s2.02,4.51,4.51,4.51c1.75,0,3.26-1.02,4-2.48h39.52l12.2-8.53h27.35l20.42,12.62,18.4,18.99v468.88l-31.49,7.76v17.03l-62.28-.5-20.42,25.17h-10.69l-18.59-15.3-16.99-.31c-.66-1.67-2.28-2.85-4.18-2.85-2.49,0-4.51,2.02-4.51,4.51s2.02,4.51,4.51,4.51c1.82,0,3.38-1.09,4.09-2.64l15.79.29,14.33,11.79h-65.23c-.69-1.61-2.29-2.75-4.15-2.75-2.49,0-4.51,2.02-4.51,4.51s2.02,4.51,4.51,4.51c1.86,0,3.46-1.13,4.15-2.75h19.73l-19.16,32.31h-29.32l-14.04-12.42h-20.89c-.74-1.47-2.25-2.49-4.01-2.49-2.49,0-4.51,2.02-4.51,4.51s2.02,4.51,4.51,4.51c1.96,0,3.61-1.26,4.23-3h19.33l14.04,12.42h32.67l21.25-35.84h21.16v14.3l-17.53,14.32v8.59l-16.97,27.91h-3.26l-21.78-17.03-81.71.91c-.65-1.69-2.28-2.91-4.2-2.91-2.49,0-4.51,2.02-4.51,4.51s2.02,4.51,4.51,4.51c1.79,0,3.33-1.06,4.06-2.58l80.65-.9,17.25,13.49h-41.82c-.64-1.72-2.28-2.95-4.22-2.95-2.49,0-4.51,2.02-4.51,4.51s2.02,4.51,4.51,4.51c1.78,0,3.3-1.04,4.04-2.54h20.54l-14.31,14.4h-26.8l-34.37,27.62-8.57-8.57-27.41-.12c-.49-1.96-2.25-3.43-4.36-3.43-2.49,0-4.51,2.02-4.51,4.51s2.02,4.51,4.51,4.51c1.83,0,3.4-1.1,4.11-2.67l26.45.12,8.13,8.13v12.91l-16.44,15.8v11.76c-1.61.69-2.75,2.29-2.75,4.15,0,2.49,2.02,4.51,4.51,4.51s4.51-2.02,4.51-4.51c0-1.86-1.13-3.46-2.75-4.15v-10.26l12.92-12.41v27.09c-1.61.69-2.75,2.29-2.75,4.15,0,2.49,2.02,4.51,4.51,4.51s4.51-2.02,4.51-4.51c0-1.86-1.13-3.46-2.75-4.15v-44.35l20.68-16.62v98.19c-1.61.69-2.75,2.29-2.75,4.15,0,2.49,2.02,4.51,4.51,4.51s4.51-2.02,4.51-4.51c0-1.86-1.13-3.46-2.75-4.15v-101.02l9.54-7.67h22.05l-13.75,13.83v23.07c-1.61.69-2.75,2.29-2.75,4.15,0,2.49,2.02,4.51,4.51,4.51s4.51-2.02,4.51-4.51c0-1.86-1.13-3.46-2.75-4.15v-21.61l15.19-15.28h.06v-.06l17.76-17.86h27.46l14.99-24.65v13.26c-1.68.65-2.89,2.28-2.89,4.2,0,2.49,2.02,4.51,4.51,4.51s4.51-2.02,4.51-4.51c0-1.8-1.07-3.35-2.6-4.07v-27.09l14-11.44v21.6c-1.61.69-2.75,2.29-2.75,4.15,0,2.49,2.02,4.51,4.51,4.51s4.51-2.02,4.51-4.51c0-1.86-1.13-3.46-2.75-4.15v-40.45h34.64l20.41-25.16,60.61.48v7.23h-50.56l-79.02,97.4h-29.17c-.69-1.61-2.29-2.75-4.15-2.75-2.49,0-4.51,2.02-4.51,4.51s2.02,4.51,4.51,4.51c1.86,0,3.46-1.13,4.15-2.75h30.85l79.02-97.4h48.88v11.36h-50.56l-78.89,97.23h-31.13l-42.71,52.64v31.22c-1.61.69-2.75,2.29-2.75,4.15,0,2.49,2.02,4.51,4.51,4.51s4.51-2.02,4.51-4.51c0-1.86-1.13-3.46-2.75-4.15v-29.97l11.54-14.23,11.47,14.14v21.04l-16.5,20.33v28.84c-1.61.69-2.75,2.29-2.75,4.15,0,2.49,2.02,4.51,4.51,4.51s4.51-2.02,4.51-4.51c0-1.86-1.13-3.46-2.75-4.15v-27.59l12.97-15.99v56.35c-1.61.69-2.75,2.29-2.75,4.15,0,2.49,2.02,4.51,4.51,4.51s4.51-2.02,4.51-4.51c0-1.86-1.13-3.46-2.75-4.15v-78.65l8.56,10.55v33.68c-1.61.69-2.75,2.29-2.75,4.15,0,2.49,2.02,4.51,4.51,4.51s4.51-2.02,4.51-4.51c0-1.86-1.13-3.46-2.75-4.15v-34.93l-24.81-30.58,26.21-32.3,33.29,41.03.02,35.96-19.19,23.65.04,51.87c-1.56.71-2.66,2.28-2.66,4.1,0,2.49,2.02,4.51,4.51,4.51s4.51-2.02,4.51-4.51c0-1.89-1.18-3.51-2.83-4.18l-.04-50.54,15.64-19.28.04,26.49c-1.61.69-2.74,2.29-2.74,4.15,0,2.49,2.02,4.51,4.51,4.51s4.51-2.02,4.51-4.51c0-1.86-1.13-3.46-2.75-4.15l-.04-69.32-33.12-40.82h28.27l78.89-97.23h4.42v7.14l-18.74,23.1v24.83l-8.93,11.01v34.36h-22.78c-.69-1.61-2.29-2.75-4.15-2.75-2.49,0-4.51,2.02-4.51,4.51s2.02,4.51,4.51,4.51c1.86,0,3.46-1.13,4.15-2.75h22.78v7.92h-17.02l-12.57,15.49v27.46c-1.69.65-2.9,2.28-2.9,4.2,0,2.49,2.02,4.51,4.51,4.51s4.51-2.02,4.51-4.51c0-1.8-1.07-3.34-2.59-4.07v-15.47l14.67,14.67v55.8c-1.61.69-2.75,2.29-2.75,4.15,0,2.49,2.02,4.51,4.51,4.51s4.51-2.02,4.51-4.51c0-1.86-1.13-3.46-2.75-4.15v-57.26l-18.2-18.2v-5.88l.76-.94,22.72,24.28.06,72.28c-1.61.69-2.74,2.29-2.74,4.15,0,2.49,2.02,4.51,4.51,4.51s4.51-2.02,4.51-4.51c0-1.86-1.13-3.46-2.75-4.15l-.06-73.67-24-25.65,7.72-9.51h15.34v6.3c-1.61.69-2.75,2.29-2.75,4.15,0,2.49,2.02,4.51,4.51,4.51s4.51-2.02,4.51-4.51c0-1.86-1.13-3.46-2.75-4.15v-10.87l13.14,13.14v18.91c-1.61.69-2.75,2.29-2.75,4.15,0,2.49,2.02,4.51,4.51,4.51s4.51-2.02,4.51-4.51c0-1.86-1.13-3.46-2.75-4.15v-20.37l-16.66-16.66v-38.53l5.41-6.66v18.4c-1.61.69-2.75,2.29-2.75,4.15,0,2.49,2.02,4.51,4.51,4.51s4.51-2.02,4.51-4.51c0-1.86-1.13-3.46-2.75-4.15v-47.58l18.74-23.1v-8.39h5.2v20.06h-7.6v67.27c-1.61.69-2.75,2.29-2.75,4.15,0,2.49,2.02,4.51,4.51,4.51s4.51-2.02,4.51-4.51c0-1.86-1.13-3.46-2.75-4.15v-63.75h7.6v-23.59h32.21v28.4l-20,25.72v8.41l-10.88,8.39v42.26c-1.61.69-2.75,2.29-2.75,4.15,0,2.49,2.02,4.51,4.51,4.51s4.51-2.02,4.51-4.51c0-1.86-1.13-3.46-2.75-4.15v-40.52l7.35-5.67v78.52l-11.85,23.54.08,52.08c-1.61.69-2.74,2.29-2.74,4.15,0,2.49,2.02,4.51,4.51,4.51s4.51-2.02,4.51-4.51c0-1.86-1.13-3.46-2.75-4.15l-.08-44.1v-7.13l8.32-16.53v56.63c-1.61.69-2.75,2.29-2.75,4.15,0,2.49,2.02,4.51,4.51,4.51s4.51-2.02,4.51-4.51c0-1.86-1.13-3.46-2.75-4.15v-63.64l.2-.4-.2-.1v-90.51l20-25.72v-20.76l6.27,5.27v36.94c-1.61.69-2.75,2.29-2.75,4.15,0,2.49,2.02,4.51,4.51,4.51s4.51-2.02,4.51-4.51c0-1.86-1.13-3.46-2.75-4.15v-38.58l-9.8-8.24v-47.68l27.97-6.89v19.78l-16.9,4.31v20.32c-1.61.69-2.75,2.29-2.75,4.15,0,2.49,2.02,4.51,4.51,4.51s4.51-2.02,4.51-4.51c0-1.86-1.13-3.46-2.75-4.15v-17.58l13.37-3.41v90.48l-16.9,28.8v30.15l-12.57,12.57v115.54c-1.61.69-2.75,2.29-2.75,4.15,0,2.49,2.02,4.51,4.51,4.51s4.51-2.02,4.51-4.51c0-1.86-1.13-3.46-2.75-4.15v-114.08l9.04-9.04v76.14c-1.61.69-2.75,2.29-2.75,4.15,0,2.49,2.02,4.51,4.51,4.51s4.51-2.02,4.51-4.51c0-1.86-1.13-3.46-2.75-4.15v-110.33l13.37-22.79v211.1c-1.47.75-2.48,2.25-2.48,4,0,2.49,2.02,4.51,4.51,4.51s4.51-2.02,4.51-4.51c0-1.75-1.02-3.26-2.48-4v-281.17l12.81-9.31v15.49c-1.63.68-2.79,2.29-2.79,4.16,0,2.49,2.02,4.51,4.51,4.51s4.51-2.02,4.51-4.51c0-1.84-1.12-3.43-2.71-4.13v-37.66l4.91-3.57v54.72l-17.22,12.51v52.64c-1.61.69-2.75,2.29-2.75,4.15,0,2.49,2.02,4.51,4.51,4.51s4.51-2.02,4.51-4.51c0-1.86-1.13-3.46-2.75-4.15v-50.84l13.69-9.95v4l-7.98,5.6v40.78c-1.61.69-2.75,2.29-2.75,4.15,0,2.49,2.02,4.51,4.51,4.51s4.51-2.02,4.51-4.51c0-1.86-1.13-3.46-2.75-4.15v-38.94l4.45-3.12v230.51c-1.54.72-2.62,2.27-2.62,4.08,0,2.49,2.02,4.51,4.51,4.51s4.51-2.02,4.51-4.51c0-1.69-.95-3.16-2.34-3.93ZM707.73,220.36c.97,0,1.76.79,1.76,1.76s-.79,1.76-1.76,1.76-1.76-.79-1.76-1.76.79-1.76,1.76-1.76ZM659.04,92.68c-.97,0-1.76-.79-1.76-1.76s.79-1.76,1.76-1.76,1.76.79,1.76,1.76-.79,1.76-1.76,1.76ZM647.26,27.71c0-.97.79-1.76,1.76-1.76s1.76.79,1.76,1.76-.79,1.76-1.76,1.76-1.76-.79-1.76-1.76ZM673.45,36.97c-.97,0-1.76-.79-1.76-1.76s.79-1.76,1.76-1.76,1.76.79,1.76,1.76-.79,1.76-1.76,1.76ZM682.94,152.3c-.97,0-1.76-.79-1.76-1.76s.79-1.76,1.76-1.76,1.76.79,1.76,1.76-.79,1.76-1.76,1.76ZM671.62,228.72c.97,0,1.76.79,1.76,1.76s-.79,1.76-1.76,1.76-1.76-.79-1.76-1.76.79-1.76,1.76-1.76ZM659.81,192.64c.97,0,1.76.79,1.76,1.76s-.79,1.76-1.76,1.76-1.76-.79-1.76-1.76.79-1.76,1.76-1.76ZM622.84,45.62c0-.97.79-1.76,1.76-1.76s1.76.79,1.76,1.76-.79,1.76-1.76,1.76-1.76-.79-1.76-1.76ZM600.74,95.29c-.97,0-1.76-.79-1.76-1.76s.79-1.76,1.76-1.76,1.76.79,1.76,1.76-.79,1.76-1.76,1.76ZM613.89,82.2c-.97,0-1.76-.79-1.76-1.76s.79-1.76,1.76-1.76,1.76.79,1.76,1.76-.79,1.76-1.76,1.76ZM656,310.08c-.97,0-1.76-.79-1.76-1.76s.79-1.76,1.76-1.76,1.76.79,1.76,1.76-.79,1.76-1.76,1.76ZM640.92,301.71c-.97,0-1.76-.79-1.76-1.76s.79-1.76,1.76-1.76,1.76.79,1.76,1.76-.79,1.76-1.76,1.76ZM597.05,216.43c-.97,0-1.76-.79-1.76-1.76s.79-1.76,1.76-1.76,1.76.79,1.76,1.76-.79,1.76-1.76,1.76ZM571.13,155.92c.97,0,1.76.79,1.76,1.76s-.79,1.76-1.76,1.76-1.76-.79-1.76-1.76.79-1.76,1.76-1.76ZM558.76,129.19c.97,0,1.76.79,1.76,1.76s-.79,1.76-1.76,1.76-1.76-.79-1.76-1.76.79-1.76,1.76-1.76ZM570.04,30.16c.97,0,1.76.79,1.76,1.76s-.79,1.76-1.76,1.76-1.76-.79-1.76-1.76.79-1.76,1.76-1.76ZM558.76,2.75c.97,0,1.76.79,1.76,1.76s-.79,1.76-1.76,1.76-1.76-.79-1.76-1.76.79-1.76,1.76-1.76ZM543.06,53.64c-.97,0-1.76-.79-1.76-1.76s.79-1.76,1.76-1.76,1.76.79,1.76,1.76-.79,1.76-1.76,1.76ZM585.19,196.15c-.97,0-1.76-.79-1.76-1.76s.79-1.76,1.76-1.76,1.76.79,1.76,1.76-.79,1.76-1.76,1.76ZM464.73,212.79c.97,0,1.76.79,1.76,1.76s-.79,1.76-1.76,1.76-1.76-.79-1.76-1.76.79-1.76,1.76-1.76ZM462.11,33.46c.97,0,1.76.79,1.76,1.76s-.79,1.76-1.76,1.76-1.76-.79-1.76-1.76.79-1.76,1.76-1.76ZM451.43,62.53c-.97,0-1.76-.79-1.76-1.76s.79-1.76,1.76-1.76,1.76.79,1.76,1.76-.79,1.76-1.76,1.76ZM451.81,183.57c.97,0,1.76.79,1.76,1.76s-.79,1.76-1.76,1.76-1.76-.79-1.76-1.76.79-1.76,1.76-1.76ZM466.4,393.67c-.97,0-1.76-.79-1.76-1.76s.79-1.76,1.76-1.76,1.76.79,1.76,1.76-.79,1.76-1.76,1.76ZM480.94,373.78c-.97,0-1.76-.79-1.76-1.76s.79-1.76,1.76-1.76,1.76.79,1.76,1.76-.79,1.76-1.76,1.76ZM446.32,363.35c.97,0,1.76.79,1.76,1.76s-.79,1.76-1.76,1.76-1.76-.79-1.76-1.76.79-1.76,1.76-1.76ZM429.51,359.78c-.97,0-1.76-.79-1.76-1.76s.79-1.76,1.76-1.76,1.76.79,1.76,1.76-.79,1.76-1.76,1.76ZM404.54,320.2c-.97,0-1.76-.79-1.76-1.76s.79-1.76,1.76-1.76,1.76.79,1.76,1.76-.79,1.76-1.76,1.76ZM419,339.26c-.97,0-1.76-.79-1.76-1.76s.79-1.76,1.76-1.76,1.76.79,1.76,1.76-.79,1.76-1.76,1.76ZM414.18,196.35c.97,0,1.76.79,1.76,1.76s-.79,1.76-1.76,1.76-1.76-.79-1.76-1.76.79-1.76,1.76-1.76ZM403.83,134.16c.97,0,1.76.79,1.76,1.76,0,.78-.52,1.44-1.23,1.67h-1.06c-.71-.23-1.22-.88-1.22-1.67,0-.97.79-1.76,1.76-1.76ZM391.12,41.48c0-.97.79-1.76,1.76-1.76s1.76.79,1.76,1.76-.79,1.76-1.76,1.76-1.76-.79-1.76-1.76ZM379.02,97.62c-.97,0-1.76-.79-1.76-1.76s.79-1.76,1.76-1.76,1.76.79,1.76,1.76-.79,1.76-1.76,1.76ZM382.45,208.4c-.97,0-1.76-.79-1.76-1.76s.79-1.76,1.76-1.76,1.76.79,1.76,1.76-.79,1.76-1.76,1.76ZM371.87,254.44c.97,0,1.76.79,1.76,1.76s-.79,1.76-1.76,1.76-1.76-.79-1.76-1.76.79-1.76,1.76-1.76ZM357.94,236.65c.97,0,1.76.79,1.76,1.76s-.79,1.76-1.76,1.76-1.76-.79-1.76-1.76.79-1.76,1.76-1.76ZM348.14,111.67c-.97,0-1.76-.79-1.76-1.76s.79-1.76,1.76-1.76,1.76.79,1.76,1.76-.79,1.76-1.76,1.76ZM326.16,203.79c.97,0,1.76.79,1.76,1.76s-.79,1.76-1.76,1.76-1.76-.79-1.76-1.76.79-1.76,1.76-1.76ZM327.23,50.61c.97,0,1.76.79,1.76,1.76s-.79,1.76-1.76,1.76-1.76-.79-1.76-1.76.79-1.76,1.76-1.76ZM304.14,119.93c-.97,0-1.76-.79-1.76-1.76s.79-1.76,1.76-1.76,1.76.79,1.76,1.76-.79,1.76-1.76,1.76ZM316.07,64.44c-.97,0-1.76-.79-1.76-1.76s.79-1.76,1.76-1.76,1.76.79,1.76,1.76-.79,1.76-1.76,1.76ZM345.53,344.78c-.97,0-1.76-.79-1.76-1.76s.79-1.76,1.76-1.76,1.76.79,1.76,1.76-.79,1.76-1.76,1.76ZM325.26,336.68c.97,0,1.76.79,1.76,1.76s-.79,1.76-1.76,1.76-1.76-.79-1.76-1.76.79-1.76,1.76-1.76ZM307.54,322.96c.97,0,1.76.79,1.76,1.76s-.79,1.76-1.76,1.76-1.76-.79-1.76-1.76.79-1.76,1.76-1.76ZM295.72,260.72c.97,0,1.76.79,1.76,1.76s-.79,1.76-1.76,1.76-1.76-.79-1.76-1.76.79-1.76,1.76-1.76ZM276,272.75c-.97,0-1.76-.79-1.76-1.76s.79-1.76,1.76-1.76,1.76.79,1.76,1.76-.79,1.76-1.76,1.76ZM253.04,394.25c-.97,0-1.76-.79-1.76-1.76s.79-1.76,1.76-1.76,1.76.79,1.76,1.76-.79,1.76-1.76,1.76ZM232.91,394.25c-.97,0-1.76-.79-1.76-1.76s.79-1.76,1.76-1.76,1.76.79,1.76,1.76-.79,1.76-1.76,1.76ZM245.24,366.75c.97,0,1.76.79,1.76,1.76s-.79,1.76-1.76,1.76-1.76-.79-1.76-1.76.79-1.76,1.76-1.76ZM300.07,170.81c.97,0,1.76.79,1.76,1.76s-.79,1.76-1.76,1.76-1.76-.79-1.76-1.76.79-1.76,1.76-1.76ZM284.57,119.03c.97,0,1.76.79,1.76,1.76s-.79,1.76-1.76,1.76-1.76-.79-1.76-1.76.79-1.76,1.76-1.76ZM257.15,100.6c.97,0,1.76.79,1.76,1.76s-.79,1.76-1.76,1.76-1.76-.79-1.76-1.76.79-1.76,1.76-1.76ZM238.5,128.73c-.97,0-1.76-.79-1.76-1.76s.79-1.76,1.76-1.76,1.76.79,1.76,1.76-.79,1.76-1.76,1.76ZM226.56,143.95c.97,0,1.76.79,1.76,1.76s-.79,1.76-1.76,1.76-1.76-.79-1.76-1.76.79-1.76,1.76-1.76ZM205.79,256.8c.97,0,1.76.79,1.76,1.76s-.79,1.76-1.76,1.76-1.76-.79-1.76-1.76.79-1.76,1.76-1.76ZM157.75,273.17c-.97,0-1.76-.79-1.76-1.76s.79-1.76,1.76-1.76,1.76.79,1.76,1.76-.79,1.76-1.76,1.76ZM137.38,291.81c-.97,0-1.76-.79-1.76-1.76s.79-1.76,1.76-1.76,1.76.79,1.76,1.76-.79,1.76-1.76,1.76ZM102.71,276.46c.97,0,1.76.79,1.76,1.76s-.79,1.76-1.76,1.76-1.76-.79-1.76-1.76.79-1.76,1.76-1.76ZM207.93,83.62c.97,0,1.76.79,1.76,1.76s-.79,1.76-1.76,1.76-1.76-.79-1.76-1.76.79-1.76,1.76-1.76ZM186.24,164.22c.97,0,1.76.79,1.76,1.76s-.79,1.76-1.76,1.76-1.76-.79-1.76-1.76.79-1.76,1.76-1.76ZM161.12,90.87c.97,0,1.76.79,1.76,1.76s-.79,1.76-1.76,1.76-1.76-.79-1.76-1.76.79-1.76,1.76-1.76ZM145.01,127.04c-.97,0-1.76-.79-1.76-1.76s.79-1.76,1.76-1.76,1.76.79,1.76,1.76-.79,1.76-1.76,1.76ZM119.51,150.42c.97,0,1.76.79,1.76,1.76s-.79,1.76-1.76,1.76-1.76-.79-1.76-1.76.79-1.76,1.76-1.76ZM101.76,178.55c.97,0,1.76.79,1.76,1.76s-.79,1.76-1.76,1.76-1.76-.79-1.76-1.76.79-1.76,1.76-1.76ZM65.69,206.65c-.97,0-1.76-.79-1.76-1.76s.79-1.76,1.76-1.76,1.76.79,1.76,1.76-.79,1.76-1.76,1.76ZM45.45,234.86c-.97,0-1.76-.79-1.76-1.76s.79-1.76,1.76-1.76,1.76.79,1.76,1.76-.79,1.76-1.76,1.76ZM34.67,221.88c-.97,0-1.76-.79-1.76-1.76s.79-1.76,1.76-1.76,1.76.79,1.76,1.76-.79,1.76-1.76,1.76ZM4.51,323.34c-.97,0-1.76-.79-1.76-1.76s.79-1.76,1.76-1.76,1.76.79,1.76,1.76-.79,1.76-1.76,1.76ZM167.18,366.83c-.97,0-1.76-.79-1.76-1.76s.79-1.76,1.76-1.76,1.76.79,1.76,1.76-.79,1.76-1.76,1.76ZM201.76,387.45l-6.7-4.68v-44.52l19.33-5.51v32.06l-12.63,8.83v13.82ZM216.16,427.54c-.97,0-1.76-.79-1.76-1.76s.79-1.76,1.76-1.76,1.76.79,1.76,1.76-.79,1.76-1.76,1.76ZM381.59,290.05c-.97,0-1.76-.79-1.76-1.76s.79-1.76,1.76-1.76,1.76.79,1.76,1.76-.79,1.76-1.76,1.76ZM278.61,458.03c-.97,0-1.76-.79-1.76-1.76s.79-1.76,1.76-1.76,1.76.79,1.76,1.76-.79,1.76-1.76,1.76ZM548.5,495.34c-.97,0-1.76-.79-1.76-1.76s.79-1.76,1.76-1.76,1.76.79,1.76,1.76-.79,1.76-1.76,1.76ZM505.74,1024.86c-.97,0-1.76-.79-1.76-1.76s.79-1.76,1.76-1.76,1.76.79,1.76,1.76-.79,1.76-1.76,1.76ZM470.58,1040.57c-.97,0-1.76-.79-1.76-1.76s.79-1.76,1.76-1.76,1.76.79,1.76,1.76-.79,1.76-1.76,1.76ZM408.66,1063.17c-.27.63-.89,1.08-1.62,1.08-.97,0-1.76-.79-1.76-1.76s.79-1.76,1.76-1.76c.73,0,1.36.45,1.62,1.08v1.35ZM374.25,1092.93c-.97,0-1.76-.79-1.76-1.76s.79-1.76,1.76-1.76,1.76.79,1.76,1.76-.79,1.76-1.76,1.76ZM430.18,1109.01c-.97,0-1.76-.79-1.76-1.76s.79-1.76,1.76-1.76,1.76.79,1.76,1.76-.79,1.76-1.76,1.76ZM338.94,1145.39c-.97,0-1.76-.79-1.76-1.76s.79-1.76,1.76-1.76,1.76.79,1.76,1.76-.79,1.76-1.76,1.76ZM362.94,1200.1c-.97,0-1.76-.79-1.76-1.76s.79-1.76,1.76-1.76,1.76.79,1.76,1.76-.79,1.76-1.76,1.76ZM379.39,1204.51c-.97,0-1.76-.79-1.76-1.76s.79-1.76,1.76-1.76,1.76.79,1.76,1.76-.79,1.76-1.76,1.76ZM403.59,1241.74c-.97,0-1.76-.79-1.76-1.76s.79-1.76,1.76-1.76,1.76.79,1.76,1.76-.79,1.76-1.76,1.76ZM424.96,1169.95c-.97,0-1.76-.79-1.76-1.76s.79-1.76,1.76-1.76,1.76.79,1.76,1.76-.79,1.76-1.76,1.76ZM503.81,1103.79c-.97,0-1.76-.79-1.76-1.76s.79-1.76,1.76-1.76,1.76.79,1.76,1.76-.79,1.76-1.76,1.76ZM521.48,1086.93c-.97,0-1.76-.79-1.76-1.76s.79-1.76,1.76-1.76,1.76.79,1.76,1.76-.79,1.76-1.76,1.76ZM475.99,1124.06c-.97,0-1.76-.79-1.76-1.76s.79-1.76,1.76-1.76,1.76.79,1.76,1.76-.79,1.76-1.76,1.76ZM437.37,1225.02c-.97,0-1.76-.79-1.76-1.76s.79-1.76,1.76-1.76,1.76.79,1.76,1.76-.79,1.76-1.76,1.76ZM447.41,1265.18c-.97,0-1.76-.79-1.76-1.76s.79-1.76,1.76-1.76,1.76.79,1.76,1.76-.79,1.76-1.76,1.76ZM475.99,1240.02c.97,0,1.76.79,1.76,1.76s-.79,1.76-1.76,1.76-1.76-.79-1.76-1.76.79-1.76,1.76-1.76ZM463.91,1274.44c.97,0,1.76.79,1.76,1.76s-.79,1.76-1.76,1.76-1.76-.79-1.76-1.76.79-1.76,1.76-1.76ZM496.93,1296.43c0,.97-.79,1.76-1.76,1.76s-1.76-.79-1.76-1.76.79-1.76,1.76-1.76,1.76.79,1.76,1.76ZM514.25,1251.31c.97,0,1.76.79,1.76,1.76s-.79,1.76-1.76,1.76-1.76-.79-1.76-1.76.79-1.76,1.76-1.76ZM539.83,1145.51c-.97,0-1.76-.79-1.76-1.76s.79-1.76,1.76-1.76,1.76.79,1.76,1.76-.79,1.76-1.76,1.76ZM538.78,1202.35c-.97,0-1.76-.79-1.76-1.76s.79-1.76,1.76-1.76,1.76.79,1.76,1.76-.79,1.76-1.76,1.76ZM557.13,1253.92c.97,0,1.76.79,1.76,1.76s-.79,1.76-1.76,1.76-1.76-.79-1.76-1.76.79-1.76,1.76-1.76ZM566,1268.19c.97,0,1.76.79,1.76,1.76s-.79,1.76-1.76,1.76-1.76-.79-1.76-1.76.79-1.76,1.76-1.76ZM568.52,1169.18c-.97,0-1.76-.79-1.76-1.76s.79-1.76,1.76-1.76,1.76.79,1.76,1.76-.79,1.76-1.76,1.76ZM585.18,1186.84c.97,0,1.76.79,1.76,1.76s-.79,1.76-1.76,1.76-1.76-.79-1.76-1.76.79-1.76,1.76-1.76ZM577.45,1126.53c-.97,0-1.76-.79-1.76-1.76s.79-1.76,1.76-1.76,1.76.79,1.76,1.76-.79,1.76-1.76,1.76ZM597.32,1134.79c-.97,0-1.76-.79-1.76-1.76s.79-1.76,1.76-1.76,1.76.79,1.76,1.76-.79,1.76-1.76,1.76ZM609.78,1160.63c-.97,0-1.76-.79-1.76-1.76s.79-1.76,1.76-1.76,1.76.79,1.76,1.76-.79,1.76-1.76,1.76ZM610.65,1266.82c0,.97-.79,1.76-1.76,1.76s-1.76-.79-1.76-1.76.79-1.76,1.76-1.76,1.76.79,1.76,1.76ZM620.66,1257.44c-.97,0-1.76-.79-1.76-1.76s.79-1.76,1.76-1.76,1.76.79,1.76,1.76-.79,1.76-1.76,1.76ZM650.46,1095c.97,0,1.76.79,1.76,1.76s-.79,1.76-1.76,1.76-1.76-.79-1.76-1.76.79-1.76,1.76-1.76ZM655.25,1041.54c-.97,0-1.76-.79-1.76-1.76s.79-1.76,1.76-1.76,1.76.79,1.76,1.76-.79,1.76-1.76,1.76ZM642.68,1298.1c-.97,0-1.76-.79-1.76-1.76s.79-1.76,1.76-1.76,1.76.79,1.76,1.76-.79,1.76-1.76,1.76ZM655.25,1251.12c-.97,0-1.76-.79-1.76-1.76s.79-1.76,1.76-1.76,1.76.79,1.76,1.76-.79,1.76-1.76,1.76ZM680.24,1132.79c-.97,0-1.76-.79-1.76-1.76s.79-1.76,1.76-1.76,1.76.79,1.76,1.76-.79,1.76-1.76,1.76ZM689.48,1122.37c-.97,0-1.76-.79-1.76-1.76s.79-1.76,1.76-1.76,1.76.79,1.76,1.76-.79,1.76-1.76,1.76ZM588.05,273.35c.97,0,1.76.79,1.76,1.76s-.79,1.76-1.76,1.76-1.76-.79-1.76-1.76.79-1.76,1.76-1.76ZM524.35,121.64c.97,0,1.76.79,1.76,1.76s-.79,1.76-1.76,1.76-1.76-.79-1.76-1.76.79-1.76,1.76-1.76ZM506.2,121.64c.97,0,1.76.79,1.76,1.76s-.79,1.76-1.76,1.76-1.76-.79-1.76-1.76.79-1.76,1.76-1.76ZM494.06,104.92c-.97,0-1.76-.79-1.76-1.76s.79-1.76,1.76-1.76,1.76.79,1.76,1.76-.79,1.76-1.76,1.76ZM495.83,197.62v-39.31l8.61-6.02v32.95l18.15,12.69v31.41l24.5,23.57-13.44,13.97h-21.67l.12-57.17c1.61-.69,2.75-2.29,2.75-4.15,0-2.49-2.02-4.51-4.51-4.51s-4.51,2.02-4.51,4.51c0,1.86,1.13,3.46,2.74,4.15l-.03,12.92-6.46-4.52v-16.1l-6.26-4.38ZM510.34,207.3c-.97,0-1.76-.79-1.76-1.76s.79-1.76,1.76-1.76,1.76.79,1.76,1.76-.79,1.76-1.76,1.76ZM508.54,226.91l-.08,39.96h-6.37v-44.47l6.45,4.51ZM435.09,155.92c.97,0,1.76.79,1.76,1.76s-.79,1.76-1.76,1.76-1.76-.79-1.76-1.76.79-1.76,1.76-1.76ZM425.98,123.77c-.97,0-1.76-.79-1.76-1.76s.79-1.76,1.76-1.76,1.76.79,1.76,1.76-.79,1.76-1.76,1.76ZM510.69,361.26l-45.42-33.93-.66-34.73c1.59-.7,2.7-2.28,2.7-4.13,0-2.49-2.02-4.51-4.51-4.51s-4.51,2.02-4.51,4.51c0,1.88,1.15,3.49,2.79,4.16l.69,36.48,43.02,32.14h-13.76l-63.03-44.06v-17.35l8.85-6.19v-35.46h40.57l12.2,12.2h45.53l14.48-15.05,36.65,35.27v36.31l24.49,22.06v13.41h26.7l8.4,8.21h-68.32l-16.94-11.85v-14.29l.09-.09-.09-.09v-45.32c1.61-.69,2.75-2.29,2.75-4.15,0-2.49-2.02-4.51-4.51-4.51s-4.51,2.02-4.51,4.51c0,1.86,1.13,3.46,2.75,4.15v41.79l-9.44-9.44v-53.94c1.61-.69,2.75-2.29,2.75-4.15,0-2.49-2.02-4.51-4.51-4.51s-4.51,2.02-4.51,4.51c0,1.86,1.13,3.46,2.75,4.15v55.4l12.97,12.97v14.85l14.31,10.01h-17.45l-13.35-9.33h-13.36l-8.58-8.58v-11.94l10.21-10.21v-29.48c1.48-.74,2.51-2.26,2.51-4.02,0-2.49-2.02-4.51-4.51-4.51s-4.51,2.02-4.51,4.51c0,1.95,1.25,3.59,2.98,4.22v27.81l-6.69,6.69v-45.11c1.61-.69,2.75-2.29,2.75-4.15,0-2.49-2.02-4.51-4.51-4.51s-4.51,2.02-4.51,4.51c0,1.86,1.13,3.46,2.75,4.15v54.32l-24.6-16.7,13.26-13.25v-26.15c1.61-.69,2.75-2.29,2.75-4.15,0-2.49-2.02-4.51-4.51-4.51s-4.51,2.02-4.51,4.51c0,1.86,1.13,3.46,2.75,4.15v24.68l-10.53,10.53v-26.93c1.61-.69,2.75-2.29,2.75-4.15,0-2.49-2.02-4.51-4.51-4.51s-4.51,2.02-4.51,4.51c0,1.86,1.13,3.46,2.75,4.15v32.43l28.93,19.64v4.92l7.12,7.12h-11.57ZM464.56,288.48c0,.97-.79,1.76-1.76,1.76s-1.76-.79-1.76-1.76.79-1.76,1.76-1.76,1.76.79,1.76,1.76ZM560.62,294.81c0,.97-.79,1.76-1.76,1.76s-1.76-.79-1.76-1.76.79-1.76,1.76-1.76,1.76.79,1.76,1.76ZM547.65,273.23c0,.97-.79,1.76-1.76,1.76s-1.76-.79-1.76-1.76.79-1.76,1.76-1.76,1.76.79,1.76,1.76ZM525.12,297.02c0-.97.79-1.76,1.76-1.76s1.76.79,1.76,1.76-.79,1.76-1.76,1.76-1.76-.79-1.76-1.76ZM518.66,286.49c0,.97-.79,1.76-1.76,1.76s-1.76-.79-1.76-1.76.79-1.76,1.76-1.76,1.76.79,1.76,1.76ZM500.28,284.71c0-.97.79-1.76,1.76-1.76s1.76.79,1.76,1.76-.79,1.76-1.76,1.76-1.76-.79-1.76-1.76ZM489.73,293c0,.97-.79,1.76-1.76,1.76s-1.76-.79-1.76-1.76.79-1.76,1.76-1.76,1.76.79,1.76,1.76ZM498.03,408.64c-.97,0-1.76-.79-1.76-1.76s.79-1.76,1.76-1.76,1.76.79,1.76,1.76-.79,1.76-1.76,1.76ZM590.76,491.56h-15.81l-18.59-12.99h-20.11l-7-4.9,12.58-10.2h28.68l27.98,22.68-7.73,5.4ZM554.76,426.68c0-.97.79-1.76,1.76-1.76s1.76.79,1.76,1.76-.79,1.76-1.76,1.76-1.76-.79-1.76-1.76ZM569.61,402.9c0-.97.79-1.76,1.76-1.76s1.76.79,1.76,1.76-.79,1.76-1.76,1.76-1.76-.79-1.76-1.76ZM630.13,470.07l-18.12-5.22v-10.23l18.12-18.78v34.23ZM630.13,429.99l-18.12,18.78v-7.17l18.12-20.82v9.21ZM632.2,383.43c-.97,0-1.76-.79-1.76-1.76s.79-1.76,1.76-1.76,1.76.79,1.76,1.76-.79,1.76-1.76,1.76ZM672.42,1328.96c-.97,0-1.76-.79-1.76-1.76s.79-1.76,1.76-1.76,1.76.79,1.76,1.76-.79,1.76-1.76,1.76ZM672.42,493.08c-.97,0-1.76-.79-1.76-1.76s.79-1.76,1.76-1.76,1.76.79,1.76,1.76-.79,1.76-1.76,1.76ZM674.45,1037.67v-1.65l12.81-9.31v1.65l-12.81,9.31ZM688.98,1054.13c-.97,0-1.76-.79-1.76-1.76s.79-1.76,1.76-1.76,1.76.79,1.76,1.76-.79,1.76-1.76,1.76ZM695.69,1002.65l-8.44,6.14v13.57l-12.81,9.31v-43.91l12.03-18.03v20.77c-1.51.73-2.57,2.26-2.57,4.05,0,2.49,2.02,4.51,4.51,4.51s4.51-2.02,4.51-4.51c0-1.79-1.06-3.32-2.57-4.05v-26.59l5.34-8.01v46.76ZM686.66,994.54c0-.97.79-1.76,1.76-1.76s1.76.79,1.76,1.76-.79,1.76-1.76,1.76-1.76-.79-1.76-1.76ZM695.69,948.9l-21.25,31.86v-77.19h11.16v19.06c-1.51.73-2.57,2.26-2.57,4.05,0,2.49,2.02,4.51,4.51,4.51s4.51-2.02,4.51-4.51c0-1.79-1.06-3.33-2.57-4.05v-38.58l6.21-5.81v70.67ZM685.79,926.68c0-.97.79-1.76,1.76-1.76s1.76.79,1.76,1.76-.79,1.76-1.76,1.76-1.76-.79-1.76-1.76ZM695.69,872.91l-10.09,9.44v17.33h-11.16v-115.87l20.47-14.87v14.16s-7.76,11.92-7.76,11.92v56.55c-1.51.73-2.57,2.26-2.57,4.05,0,2.49,2.02,4.51,4.51,4.51s4.51-2.02,4.51-4.51c0-1.79-1.06-3.33-2.57-4.05v-55.4l4.67-7.15v83.9ZM674.45,778.58v-6.48l20.46-14.87v6.48s-20.46,14.87-20.46,14.87ZM690.85,855.61c0,.97-.79,1.76-1.76,1.76s-1.76-.79-1.76-1.76.79-1.76,1.76-1.76,1.76.79,1.76,1.76ZM695.69,614.45l-7.6-4.92v-20.82c1.51-.73,2.57-2.26,2.57-4.05,0-2.49-2.02-4.51-4.51-4.51s-4.51,2.02-4.51,4.51c0,1.79,1.06,3.32,2.57,4.05v22.93l11.48,7.44v1.25l-.17-.14-10.36,12.92v38.59c-1.51.73-2.57,2.26-2.57,4.05,0,2.49,2.02,4.51,4.51,4.51s4.51-2.02,4.51-4.51c0-1.79-1.06-3.32-2.57-4.05v-37.23l6.66-8.3v125.25l-21.25,15.44v-226.26l12.42-27.05v42.99l8.83,15.46v42.45ZM687.91,584.65c0,.97-.79,1.76-1.76,1.76s-1.76-.79-1.76-1.76.79-1.76,1.76-1.76,1.76.79,1.76,1.76ZM688.85,675.75c0,.97-.79,1.76-1.76,1.76s-1.76-.79-1.76-1.76.79-1.76,1.76-1.76,1.76.79,1.76,1.76ZM695.69,563.82l-4.77-8.35v-80.64l-4.67-7.68-.29-52.76c1.46-.75,2.47-2.25,2.47-4,0-2.49-2.02-4.51-4.51-4.51s-4.51,2.02-4.51,4.51c0,1.76,1.02,3.26,2.49,4.01l.3,53.9,4.66,7.67v27.86l-12.42,27.05v-35.56c1.46-.75,2.48-2.25,2.48-4,0-2.49-2.02-4.51-4.51-4.51s-4.51,2.02-4.51,4.51c0,1.75,1.02,3.26,2.48,4v17.55l-15.09-15.58v-14.08l17.6-16.92v-66.19c1.46-.75,2.48-2.25,2.48-4,0-2.49-2.02-4.51-4.51-4.51s-4.51,2.02-4.51,4.51c0,1.75,1.02,3.26,2.48,4v64.46l-17.6,16.92v12.99l-17.06-10.55v-98.22c1.49-.74,2.53-2.26,2.53-4.03,0-2.49-2.02-4.51-4.51-4.51s-4.51,2.02-4.51,4.51c0,1.73,1,3.23,2.44,3.98v28.94l-18.12,20.82v-31.44c1.46-.75,2.48-2.25,2.48-4,0-2.49-2.02-4.51-4.51-4.51s-4.51,2.02-4.51,4.51c0,1.75,1.02,3.26,2.48,4v63.92l22.18,6.39v8.74h-29.05l-27.82-22.55.05-14.28h12.78l9.52-14.64v-30.05c1.61-.69,2.75-2.29,2.75-4.15,0-2.49-2.02-4.51-4.51-4.51s-4.51,2.02-4.51,4.51c0,1.86,1.13,3.46,2.75,4.15v29l-7.9,12.16h-10.85l.13-35.8c1.43-.76,2.42-2.24,2.42-3.97,0-2.49-2.02-4.51-4.51-4.51s-4.51,2.02-4.51,4.51c0,1.78,1.04,3.31,2.54,4.04l-.2,52.47h-10.92v-28.58c1.61-.69,2.75-2.29,2.75-4.15,0-2.49-2.02-4.51-4.51-4.51s-4.51,2.02-4.51,4.51c0,1.86,1.13,3.46,2.75,4.15v28.58h-14.37l-2.51,2.03-11.41-7.98v-8.31l10.27-7.18v-55.6c1.61-.69,2.75-2.29,2.75-4.15,0-2.49-2.02-4.51-4.51-4.51s-4.51,2.02-4.51,4.51c0,1.86,1.13,3.46,2.75,4.15v53.76l-6.74,4.72v-53.17c1.61-.69,2.75-2.29,2.75-4.15,0-2.49-2.02-4.51-4.51-4.51s-4.51,2.02-4.51,4.51c0,1.86,1.13,3.46,2.75,4.15v67.62l12.09,8.45-15.89,12.88h-19.05v-33.36l14.81-12.76v-65.2h24.42l13.35,9.33h136.58v-.42l6.43,7.79v181.8ZM685.68,410.4c0,.97-.79,1.76-1.76,1.76s-1.76-.79-1.76-1.76.79-1.76,1.76-1.76,1.76.79,1.76,1.76ZM669.12,396.1c0-.97.79-1.76,1.76-1.76s1.76.79,1.76,1.76-.79,1.76-1.76,1.76-1.76-.79-1.76-1.76ZM611.74,399.98c0,.97-.79,1.76-1.76,1.76s-1.76-.79-1.76-1.76.79-1.76,1.76-1.76,1.76.79,1.76,1.76ZM592.08,397.37c0-.97.79-1.76,1.76-1.76s1.76.79,1.76,1.76-.79,1.76-1.76,1.76-1.76-.79-1.76-1.76ZM533.22,378.23c0-.97.79-1.76,1.76-1.76s1.76.79,1.76,1.76-.79,1.76-1.76,1.76-1.76-.79-1.76-1.76ZM526.46,383.54c0,.97-.79,1.76-1.76,1.76s-1.76-.79-1.76-1.76.79-1.76,1.76-1.76,1.76.79,1.76,1.76ZM697.58,1310.76c-.97,0-1.76-.79-1.76-1.76s.79-1.76,1.76-1.76,1.76.79,1.76,1.76-.79,1.76-1.76,1.76ZM697.78,172.12c-.97,0-1.76-.79-1.76-1.76s.79-1.76,1.76-1.76,1.76.79,1.76,1.76-.79,1.76-1.76,1.76Z" style="fill:#231f20;"/></g></svg>