<?xml version="1.0" encoding="UTF-8"?><svg id="b" xmlns="http://www.w3.org/2000/svg" viewBox="0 0 729.46 1342.81"><g id="c"><path id="d" d="M724.67,293.19c-3.09-.05-5.5,3.08-4.6,6.04l-14.84,11.81h-43.32l-7.73-9.68h27.71c2.01,4.72,9.16,3.33,9.19-1.87-.03-5.2-7.18-6.59-9.19-1.87h-42.32l-4.24-2.97,35.05-24.51v-36.08c4.72-2.01,3.33-9.16-1.87-9.19-5.2.03-6.59,7.18-1.87,9.19v34.13l-34.58,24.17-4.85-3.39,22.97-16.06v-49.87c4.61-2.1,3.14-9.1-1.99-9.13-5.27.04-6.59,7.31-1.76,9.23v36.72l-7.54-8.51v-85.53c4.72-2.01,3.33-9.16-1.87-9.19-5.2.03-6.59,7.18-1.87,9.19v86.95l11.29,12.73v5.46l-22.49,15.72-9.63-6.73h-17.22v-7.96l9.05-8.77v-51.67c4.72-2.01,3.33-9.16-1.87-9.19-5.2.03-6.59,7.18-1.87,9.19v50.09l-9.05,8.77v2.22l-11.38-7.96v-113.02c4.72-2.01,3.33-9.16-1.87-9.19-5.2.03-6.59,7.18-1.87,9.19v114.98l15.12,10.57v8.69l-17.4,12.17v25.44l-17.39,12.15-12.6-8.81v-25.9c4.72-2.01,3.33-9.16-1.87-9.19-5.2.03-6.59,7.18-1.87,9.19v27.85l13.08,9.14-43.68,30.54v-60.4c4.63-2.09,3.18-9.12-1.97-9.14-5.26.04-6.59,7.29-1.78,9.23v66.6h-1.91l-10.79-6.44v-43.55c4.72-2.01,3.33-9.16-1.87-9.19-5.2.03-6.59,7.18-1.87,9.19v45.68l13.51,8.06h2.94v11.71l-24.29-16.98v-5.85c4.72-2.01,3.33-9.16-1.87-9.19-5.2.03-6.59,7.18-1.87,9.19v7.81l24.63,17.22h-31.08l-22.21,15.52v-11.27l17.2-12.02v-31.24c4.72-2.01,3.33-9.16-1.87-9.19-5.2.03-6.59,7.18-1.87,9.19v29.28l-13.45,9.4v-4.27c4.55-2.15,3.05-9.08-2.05-9.1-5.3.04-6.59,7.38-1.7,9.25v22.58l-19.51,13.64h-33.97l-5.83,4.08-9-6.29,21.77-15.22h31.12v-19.36c4.72-2.01,3.33-9.16-1.87-9.19-5.2.03-6.59,7.18-1.87,9.19v15.61h-28.55l-27.13,18.97,12.27,8.58-4.46,3.12h-4.8l-31.53-24.21,27.16-18.99,33.55-.31,46.41-24.57v-8.85l39.12-69.31c6.78,0,34.29.04,44.85.03,8.56,0,9.23,0,9.74-.45l25.56-17.87v-40.7c4.72-2.01,3.33-9.16-1.87-9.19-5.2.03-6.59,7.18-1.87,9.19v38.75l-8.69,6.08v-132.85c4.72-2.01,3.33-9.16-1.87-9.19-5.2.03-6.59,7.18-1.87,9.19v135.47l-11.17,7.81c-5.08.05-40.9,0-54.97-.02l-36.93,65.44v-10.65l32.93-58.58h46.87v-80.91c4.72-2.01,3.33-9.16-1.87-9.19-5.2.03-6.59,7.18-1.87,9.19v77.16h-10.03v-44.93c4.72-2.01,3.33-9.16-1.87-9.19-5.2.03-6.59,7.18-1.87,9.19v44.93h-12.37v-28.1c4.72-2.01,3.33-9.16-1.87-9.19-5.2.03-6.59,7.18-1.87,9.19v28.1h-13.4l-22.22-28.75v-14.53l46.23-32.32v-75.88c4.72-2.01,3.33-9.16-1.87-9.19-5.2.03-6.59,7.18-1.87,9.19v27.98l-13.33-4.27v-39.72c4.57-2.13,3.07-9.08-2.03-9.11-5.29.04-6.59,7.36-1.72,9.24v42.32l17.08,5.47v42.01l-42.48,29.7v-8.84l26.22-18.33v-33.49c4.72-2.01,3.33-9.16-1.87-9.19-5.2.03-6.59,7.18-1.87,9.19v31.54l-26.22,18.33v31.17l22.8,29.51-2.58,4.59-23.45-32.7v-55.96c4.75-1.99,3.37-9.17-1.85-9.2-5.19.03-6.59,7.14-1.9,9.18v23.36l-5.56-5.56v-65.44l18.67-11.48v-25.03c4.72-2.01,3.33-9.16-1.87-9.19-5.2.03-6.59,7.18-1.87,9.19v22.93l-14.92,9.18v-23.61c4.72-2.01,3.33-9.16-1.87-9.19-5.2.03-6.59,7.18-1.87,9.19v95.01l9.31,9.31v19.67l-33.92-35.02v-21.73c4.72-2.01,3.33-9.16-1.87-9.19-5.2.03-6.59,7.18-1.87,9.19v23.25l37.67,38.89v3.48l25.17,35.1-24.98,44.45v-34.89c4.72-2.01,3.33-9.16-1.87-9.19-5.2.03-6.59,7.18-1.87,9.19v67.4l-43.61,23.09-33.8.31-49.49,34.6v-8.12l40.63-28.4v-17.64l17-12.43,11.46,16.63h12.86c2.01,4.72,9.16,3.33,9.19-1.87-.03-5.2-7.18-6.59-9.19-1.87h-10.89l-10.4-15.1,43.2-31.6v-20.2c4.72-2.01,3.33-9.16-1.87-9.19-5.2.03-6.59,7.18-1.87,9.19v18.3l-59.48,43.51v-9.46l45.01-31.46v-69.15c4.72-2.01,3.33-9.16-1.87-9.19-5.2.03-6.59,7.18-1.87,9.19v67.2l-28.73,20.09v-18.79l14.55-10.17v-136.07c4.72-2.01,3.33-9.16-1.87-9.19-5.2.03-6.59,7.18-1.87,9.19v45.11l-10.75-5.58v-36.76c4.72-2.01,3.33-9.16-1.87-9.19-5.2.03-6.59,7.18-1.87,9.19v39.03l14.5,7.53v84.78l-10.8,7.55v-13.47c4.72-2.01,3.33-9.16-1.87-9.19-5.2.03-6.59,7.18-1.87,9.19v39.45l-12.53,8.76v9.2l-21.06-14.72v-20.92c4.72-2.01,3.33-9.16-1.87-9.19-5.2.03-6.59,7.18-1.87,9.19v22.87l24.81,17.34v8.23l-33.05-23.11v-21.73c4.72-2.01,3.33-9.16-1.87-9.19-5.2.03-6.59,7.18-1.87,9.19v23.68l36.8,25.72v5.19l-36.88,25.78v-19.24c4.72-2.01,3.33-9.16-1.87-9.19-5.2.03-6.59,7.18-1.87,9.19v47.9l-41.09,28.72v-8.6l27.22-19.03v-68.25c4.72-2.01,3.33-9.16-1.87-9.19-5.2.03-6.59,7.18-1.87,9.19v66.3l-23.47,16.41v-84.55c4.72-2.01,3.33-9.16-1.87-9.19-5.2.03-6.59,7.18-1.87,9.19v41.4l-8.01,7.53v-33.18c4.72-2.01,3.33-9.16-1.87-9.19-5.2.03-6.59,7.18-1.87,9.19v83.7h-39.59l18.75-12.54v-26.38l7.43-5.19v-53.94l83.67-74.29-.44-.5h.3v-7.9l23.09-7.58v-18.74c4.72-2.01,3.33-9.16-1.87-9.19-5.2.03-6.59,7.18-1.87,9.19v16.02l-19.34,6.35v-57.39l29.4-8.31v-44.15c4.72-2.01,3.33-9.16-1.87-9.19-5.2.03-6.59,7.18-1.87,9.19v41.32l-25.66,7.25v-31.51c4.72-2.01,3.33-9.16-1.87-9.19-5.2.03-6.59,7.18-1.87,9.19v103.58l-83.53,74.16v53.67l-7.05,4.93v-59.51l78.8-71.7-.44-.48h.21v-75.27c4.72-2.01,3.33-9.16-1.87-9.19-5.2.03-6.59,7.18-1.87,9.19v74.3l-16.35,14.88v-78.74c4.72-2.01,3.33-9.16-1.87-9.19-5.2.03-6.59,7.18-1.87,9.19v82.15l-7.21,6.56v-107.55l32.94-52.88h63.44l42.81-45.02c3.02,1.19,6.47-1.24,6.41-4.49,0-2.64-2.15-4.79-4.79-4.79-3.39-.08-5.82,3.68-4.37,6.73l-41.67,43.82h-63.92l-30.86,49.54v-7.89l-6.93-4.85,33.84-52.21h58.14l22.37-22.56c3.02,1.18,6.45-1.26,6.39-4.49,0-2.64-2.15-4.79-4.79-4.79-3.39-.08-5.83,3.7-4.36,6.74l-21.17,21.35h-7.01l-17.58-15.43,33.13-41.29v-20.33c4.72-2.01,3.33-9.16-1.87-9.19-5.2.03-6.59,7.18-1.87,9.19v19.01l-32.2,40.14-12.69-11.14V28.23c4.72-2.01,3.33-9.16-1.87-9.19-5.2.03-6.59,7.18-1.87,9.19v79.9l31.16,27.35h-8.1l-28.93-25.39v-55.39c4.72-2.01,3.33-9.16-1.87-9.19-5.2.03-6.59,7.18-1.87,9.19v57.09l27,23.7h-32.15l-34.88,53.81-7.62-5.33v-14.67l17.63-32.49v-14.41l10.91-10.91v-38.1c4.72-2.01,3.33-9.16-1.87-9.19-5.2.03-6.59,7.18-1.87,9.19v36.55l-7.16,7.16V9.19c4.72-2.01,3.33-9.16-1.87-9.19-5.2.03-6.59,7.18-1.87,9.19v126.65l-13.88,25.59V54.93c4.72-2.01,3.33-9.16-1.87-9.19-5.2.03-6.59,7.18-1.87,9.19v28.7l-11.09-11.09v-30.44c4.72-2.01,3.33-9.16-1.87-9.19-5.2.03-6.59,7.18-1.87,9.19v31.99l14.84,14.84v96.99l17.63,12.32v123.98l-47.52,43.24v63.79l-8.76,6.13v-97.16l24.11-20.75c3.04,1.61,6.97-.83,6.88-4.29,0-2.64-2.15-4.79-4.79-4.79-3.17-.06-5.6,3.24-4.54,6.24l-9.13,7.85h-23.26l39.77-35.51,18.71-16.03v-44.12l-23.07-16.13v-82.4c4.72-2.01,3.33-9.16-1.87-9.19-5.2.03-6.59,7.18-1.87,9.19v55.06l-16.66-11.65.55-66.15c4.84-1.92,3.52-9.19-1.75-9.23-5.13.03-6.59,7.02-1.99,9.13l-.45,54.8-29.87-20.88v-34.51l15.48-10.82v-56.02c4.59-2.12,3.11-9.1-2.01-9.12-5.28.04-6.59,7.33-1.74,9.24v53.95l-11.73,8.2v-31.12c4.72-2.01,3.33-9.16-1.87-9.19-5.2.03-6.59,7.18-1.87,9.19v15.39l-15.02-10.5v-33.03c5.21-1.63,4.14-9.26-1.37-9.35-4.89,0-6.58,6.54-2.38,8.92v35.41l18.76,13.12v52.19l33.58,23.47-.07,8.85,20.42,14.28v24.72l23.07,16.13v34.14l-12.29-7.86v-15.62c4.72-2.01,3.33-9.16-1.87-9.19-5.2.03-6.59,7.18-1.87,9.19v17.67l16.04,10.26v1.85l-17.43,14.94-4.94,4.41-25.24-17.64v-45.21c4.72-2.01,3.33-9.16-1.87-9.19-5.2.03-6.59,7.18-1.87,9.19v47.16l26.11,18.26-17.21,15.37-32.91-23.01v-18l11.91-8.33v-25.93c4.72-2.01,3.33-9.16-1.87-9.19-5.2.03-6.59,7.18-1.87,9.19v23.98l-8.16,5.71v-56.01c4.72-2.01,3.33-9.16-1.87-9.19-5.2.03-6.59,7.18-1.87,9.19v69.25l-11.97-9.5v-36.18c4.76-2.03,3.29-9.26-1.95-9.19-5.35-.04-6.71,7.3-1.8,9.24v37.94l15.72,12.47v6.5l33.78,23.62-19.23,17.17h.03l-14.04,12.64-3.14,2.59-7.84-8.33v-9.1l10.04-7.02v-18.87c4.4-2.06,3.08-9.17-1.87-9.21-4.96.04-6.27,7.15-1.87,9.21v16.92l-6.3,4.4v-16.27c4.72-2.01,3.33-9.16-1.87-9.19-5.2.03-6.59,7.18-1.87,9.19v31.44l8.69,9.23-21.16,17.44-.05-126.59c4.19-2.21,2.75-9.06-2.08-9.09-5.08.05-6.27,7.41-1.67,9.3v16.23s-26.64-22.6-26.64-22.6v-5.95l32.76-22.9.02-25.16,11.92-18.69v-30.22c4.72-2.01,3.33-9.16-1.87-9.19-5.2.03-6.59,7.18-1.87,9.19v29.12l-8.17,12.81.05-50.02c4.72-2.01,3.33-9.16-1.87-9.19-5.2.03-6.59,7.18-1.87,9.19l-.07,80.2-29.01,20.28v-4.26l23.23-16.24v-51.07c4.72-2.01,3.33-9.16-1.87-9.19-5.2.03-6.59,7.18-1.87,9.19v49.12l-19.49,13.62v-19.48c4.72-2.01,3.33-9.16-1.87-9.19-5.2.03-6.59,7.18-1.87,9.19v40.57l30.4,25.78.06,140.5-14.1-14.1v-114.76c4.31-2.13,2.93-9.12-1.97-9.16-5.02.04-6.27,7.28-1.78,9.26v116.21l17.76,17.76.09-.09.03,59.78-9.87-9.87v-25.28c4.62-2.09,3.16-9.11-1.97-9.14-5.26.04-6.59,7.29-1.77,9.23v26.74l13.62,13.62c0,.53,0,2.3,0,2.81l12.66,13.38-1.9,1.82-9.1-.13-28.17-28.17v-196.93c4.4-2.06,3.08-9.17-1.87-9.21-4.96.04-6.27,7.15-1.87,9.21v19.87l-16.61-16.61v-9.92c4.72-2.01,3.33-9.16-1.87-9.19-5.2.03-6.59,7.18-1.87,9.19v11.47l20.36,20.35v52.77l-12.16-13.36v-15.17c4.72-2.01,3.33-9.16-1.87-9.19-5.2.03-6.59,7.18-1.87,9.19v16.62l15.91,17.47v18.41l-27.66-29.56v-46.33c4.72-2.01,3.33-9.16-1.87-9.19-5.2.03-6.59,7.18-1.87,9.19v45h-10.31v-36.78c4.72-2.01,3.33-9.16-1.87-9.19-5.2.03-6.59,7.18-1.87,9.19v36.78h-1.15l-10.84-5.61v-14.56c4.72-2.01,3.33-9.16-1.87-9.19-5.2.03-6.59,7.18-1.87,9.19v16.84l13.68,7.08h16.99l30.53,32.63v78.04l-4.41-4.51v-50.28c4.72-2.01,3.33-9.16-1.87-9.19-5.2.03-6.59,7.18-1.87,9.19v51.81l8.16,8.35v7.68l26.54,26.54-22.7-.32-18.22-18.22v-60.84c4.44-2.23,2.87-9.02-2.15-9.04-5.02.02-6.6,6.82-2.15,9.04v62.63l16.34,16.35-42.2-.59,9.58-9.58v-52.29c4.44-2.23,2.87-9.02-2.15-9.04-5.02.02-6.59,6.82-2.15,9.04v50.5l-11.28,11.28-10.88-.15-7.64-3.94.06-11.93,16.69-15.77v-14.65c4.44-2.23,2.87-9.02-2.15-9.04-5.02.02-6.59,6.82-2.15,9.04v12.79l-16.68,15.76-.19,39.49h-30.73v-47.47c4.44-2.23,2.87-9.02-2.15-9.04-5.02.02-6.59,6.82-2.15,9.04v65.13l-5.57,4.99.08-86.27h34.24l33.82-31.78v-27.63h16.13c2.23,4.44,9.02,2.87,9.04-2.15-.02-5.02-6.82-6.59-9.04-2.15h-16.13v-17.72c4.44-2.23,2.87-9.02-2.15-9.04-5.02.02-6.6,6.82-2.15,9.04v47.79l-31.22,29.34H13.77l.03-26.18h34.56l21.39-17.96v-49.89c4.44-2.23,2.87-9.02-2.15-9.04-5.02.02-6.6,6.82-2.15,9.04v47.88l-18.65,15.66H13.8v-6.52h25.57l15.93-13.11v-36.39c4.44-2.23,2.87-9.02-2.15-9.04-5.02.02-6.6,6.82-2.15,9.04v34.35l-13.17,10.83h-14.52v-34.87l25.64-25.64v-55.3c4.44-2.23,2.87-9.02-2.15-9.04-5.02.02-6.59,6.82-2.15,9.04v53.52l-25.64,25.64v36.65h-5.49v-92.98l19.36-26.53v33.46c-4.72,2.01-3.33,9.16,1.87,9.19,5.2-.03,6.59-7.18,1.87-9.19v-58.49h49.35v-11.57l19.45-19.45v-30.58c4.72-2.01,3.33-9.16-1.87-9.19-5.2.03-6.59,7.18-1.87,9.19v29.03l-15.7,15.7v-15.1c4.72-2.01,3.33-9.16-1.87-9.19-5.2.03-6.59,7.18-1.87,9.19v28.22h-29.25v-35.01l33.39-38.53v-2.69h6.76l19.25-13.94v-12.58c4.72-2.01,3.33-9.16-1.87-9.19-5.2.03-6.59,7.18-1.87,9.19v10.67l-16.72,12.11h-5.55v-27.95l40.48-28.3v-53.08c4.72-2.01,3.33-9.16-1.87-9.19-5.2.03-6.59,7.18-1.87,9.19v49.35l-12.34-4.87v-61.87c4.72-2.01,3.33-9.16-1.87-9.19-5.2.03-6.59,7.18-1.87,9.19v62.17l-20.65,14.43v-49.12c4.72-2.01,3.33-9.16-1.87-9.19-5.2.03-6.59,7.18-1.87,9.19v51.74l-.07.05.07.1v7.55l-22.1-18.28V41.42c4.72-2.01,3.33-9.16-1.87-9.19-5.2.03-6.59,7.18-1.87,9.19v69.84l25.85,21.38v5.03l-.07.05.07.1v34.8l-3.11,3.59-13.09-11.03v-18.65c4.98-1.8,3.74-9.23-1.61-9.28-5.04.02-6.59,6.84-2.13,9.05v15.72l-10.73-9.04v-26.42c4.72-2.01,3.33-9.16-1.87-9.19-5.2.03-6.59,7.18-1.87,9.19v28.17l28.86,24.31-27.83,32.11v36.41h-12.61v-10.44l-7.33-12.47v-117.13c4.72-2.01,3.33-9.16-1.87-9.19-5.2.03-6.59,7.18-1.87,9.19v12.9l-8.71-7.34V48.46h-.8c5.48-1.35,4.62-9.33-1.07-9.45-5.69.12-6.55,8.09-1.07,9.45h-.8v66.37l12.44,10.48v-.02s.01,8.12.01,8.12l-18.91-15.93V11.73c4.72-2.01,3.33-9.16-1.87-9.19-5.2.03-6.59,7.18-1.87,9.19v107.5l22.66,19.08v87.36l7.33,12.47v31.84l-23.11,31.67v96.93h.11c-.3,147.65-.2,775.41-.2,935.03-4.78,1.97-3.42,9.18,1.81,9.21,5.05-.02,6.59-6.86,2.12-9.06v-212.72s7.32,13.3,7.32,13.3v81.39c-4.72,2.01-3.33,9.16,1.87,9.19,5.2-.03,6.59-7.18,1.87-9.19v-82.35l-11.07-20.1v-89.1s14.25,15.41,14.25,15.41h7.96v270.47c-4.5,2.18-2.96,9.05,2.1,9.07,4.87,0,6.58-6.51,2.4-8.91v-95.99l9.17,23.23v96.12c-4.87,1.89-3.57,9.2,1.72,9.24,5.11-.02,6.6-6.98,2.03-9.11v-96.97l-12.91-32.72v-44.02l17.79,17.79v12.29c-4.72,2.01-3.33,9.16,1.87,9.19,5.2-.03,6.59-7.18,1.87-9.19v-13.84l-21.53-21.53v-100.44l22.06,17.57v56.94c-4.72,2.01-3.33,9.16,1.87,9.19,5.2-.03,6.59-7.18,1.87-9.19v-58.74l-25.81-20.55v-8.78l37.67,30v80.8l6.88,5.48v38.56c-4.64,2.08-3.2,9.12,1.95,9.15,5.25-.04,6.59-7.27,1.79-9.22v-35.51l37.54,29.9-14.52,14.52v9.02l-39.79,26.31v71.13c-4.87,1.89-3.57,9.2,1.72,9.24,5.1-.03,6.6-6.98,2.03-9.11v-69.25l13.18-8.71v24.83c-4.64,2.08-3.19,9.12,1.96,9.15,5.25-.04,6.59-7.27,1.79-9.22v-27.23l19.12-12.64v71.84c-4.65,2.07-3.21,9.12,1.95,9.15,5.25-.04,6.59-7.27,1.8-9.22v-83.73l8.07-8.07v62.27c-4.72,2.01-3.33,9.16,1.87,9.19,5.2-.03,6.59-7.18,1.87-9.19v-66.01l1.91-1.91,10.08,8.03v43.07c-4.85,1.91-3.53,9.2,1.74,9.24,5.12-.03,6.6-7.01,2-9.12v-44.98l-30.34-24.17h18.2l38.86,6.77,11.11,8.75-14.02,14.02v91.11c-4.64,2.08-3.19,9.12,1.96,9.15,5.25-.04,6.59-7.28,1.79-9.22v-89.48l13.24-13.24,8.68,6.84v69.8c-4.64,2.08-3.19,9.12,1.96,9.15,5.25-.04,6.59-7.28,1.79-9.22v-71.55l-24.93-19.64-39.95-6.96-23.38-.03-3.13-2.5,29.97-21.27h20.31l52.63,34.79v47.94c-4.64,2.08-3.19,9.12,1.96,9.15,5.25-.04,6.59-7.28,1.79-9.22v-45.39l5.92,3.91v72.43c-4.64,2.08-3.19,9.12,1.96,9.15,5.25-.04,6.59-7.28,1.79-9.22v-74.37l-64.92-42.92h-22.63l-31.83,22.59-6.32-5.04,33.76-23.17h31.93l76.05,50.28v82.66c-4.7,2.03-3.29,9.15,1.9,9.18,5.22-.03,6.59-7.21,1.85-9.2v-69.89l5.36,3.54v82.28c-4.64,2.08-3.19,9.12,1.96,9.15,5.25-.04,6.59-7.28,1.79-9.22v-79.73l9.09,6.01v33.16c-4.64,2.08-3.19,9.12,1.96,9.15,5.25-.04,6.59-7.28,1.79-9.22v-35.1l-13.67-9.04h0s-8.27-5.46-8.27-5.46v-10.27l-78.67-52.01h-34.22l-35.67,24.47-10.58-8.42v-2.56l51.77-34.22h35.06v10.69l68.02,44.97c-1.19,6.95,9.07,8.1,9.45,1.05.1-3.63-4.22-6.06-7.25-4.09l-23.02-15.22h8.27l35.04,23.16v21.86l18.17,12.01v59.11c-4.64,2.08-3.19,9.12,1.96,9.15,5.25-.04,6.59-7.28,1.79-9.22v-61.05l-18.17-12.01v-17.37l3.89,2.57c-.64,6.71,9.21,7.38,9.51.62.08-3.84-4.59-6.2-7.61-3.85l-43.45-28.72h-15.06l-37.79-24.98v-8.68h14.38l72.89,48.19c-.92,6.85,9.14,7.76,9.49.85.11-3.73-4.42-6.12-7.43-3.99l-34.34-22.7h15.49l-.1.16,45,29.75v23.05c-4.64,2.08-3.19,9.12,1.96,9.15,5.25-.04,6.59-7.28,1.79-9.22v-20.5l5.95,3.93v47.57c-4.72,2.01-3.33,9.16,1.87,9.19,5.2-.03,6.59-7.18,1.87-9.19v-45.09l23.19,15.33v53.42c-4.72,2.01-3.33,9.16,1.87,9.19,5.2-.03,6.59-7.18,1.87-9.19v-55.43l-78.83-52.11h16.48l87.84,60.22,21.04.2c2.48,4.04,8.84,2.27,8.84-2.53-.11-5.6-7.9-6.57-9.4-1.22l-19.3-.18-87.38-59.91-.48-.33h-45.25l-28.15-18.61h41.06c2.01,4.72,9.16,3.33,9.19-1.87-.03-5.2-7.18-6.59-9.19-1.87h-102.16l-50.64,33.48v-73.75l-25.27-20.12,26.58-.11,19.79,10.16v20.57l-15.04,15.04v16.96c-4.72,2.01-3.33,9.16,1.87,9.19,5.2-.03,6.59-7.18,1.87-9.19v-15.41l5.65-5.65,6.68,7.46h36.33c2.01,4.72,9.16,3.33,9.19-1.87-.03-5.2-7.18-6.59-9.19-1.87h-34.66l-5.71-6.37,6.74-6.74v-20.2l79,40.56,10.83.3v-.31s4.71-.01,4.71-.01l.07.26.91-.26,62.84-.15,23.09,15.26c-.87,6.83,9.16,7.7,9.49.81.11-3.75-4.46-6.13-7.47-3.97l-23.99-15.86-50.64.12,28.56-8.1h55.72c2.01,4.72,9.16,3.33,9.19-1.87-.03-5.2-7.18-6.59-9.19-1.87h-56.24l-41.89,11.88-15.07.04-102.56-52.66-32.16.13-11.47-9.13v-14.16l13.78,11.42h31.8c.51.25,83.64,41.15,84.08,41.37l25.6.56c1.82,4.96,9.22,3.71,9.27-1.63-.02-5.05-6.87-6.6-9.06-2.11l-24.89-.54-33.76-16.61,17.34-7.26h21.9c2.01,4.72,9.16,3.33,9.19-1.87-.03-5.2-7.18-6.59-9.19-1.87h-22.65l-21.05,8.81-45.5-22.39-.39-.19h-13.56l3.96-3.96h53.76c2.01,4.72,9.16,3.33,9.19-1.87-.03-5.2-7.18-6.59-9.19-1.87h-55.31l-7.7,7.7h-12.46l-15.13-12.54v-497.34h23.59l22.22-22.22h41.67c2.23,4.44,9.02,2.87,9.04-2.15-.02-5.02-6.82-6.59-9.04-2.15h-43.45l-22.22,22.22H23.56v-5.82h35.01l.12-25.17,6.59,3.4,105.22,1.47,18.32-17.58h54.75l-.43.62,15.18,10.61h24.65c2.01,4.72,9.16,3.33,9.19-1.87-.03-5.2-7.18-6.59-9.19-1.87h-23.47l-10.7-7.48h25.62l46.12-32.24v-13.36l20.3-14.19,33.48,25.71h108.04l11.72-9.36c3.04,1.42,6.78-1.01,6.7-4.38,0-2.64-2.15-4.79-4.79-4.79-3.25-.07-5.69,3.41-4.48,6.43l-10.46,8.36h-94.12l8.2-5.73h33.97l22.23-15.54h77.17l15.96,11.16h60.47l12-9.71c3.03,1.27,6.59-1.15,6.53-4.45,0-2.64-2.15-4.79-4.79-4.79-3.33-.07-5.75,3.56-4.43,6.6l-10.64,8.61h-34.08l26.8-18.74v-10.57h23.46l14.64-9.83c3.02,2.08,7.47-.33,7.37-4.02-.36-6.96-10.5-5.95-9.48.93l-13.67,9.18h-22.32v-6.57l63.05-44.08h42.09c2.01,4.72,9.16,3.33,9.19-1.87-.03-5.2-7.18-6.59-9.19-1.87h-43.27l-65.61,45.87v20.89l-9.9,6.92-25.42-7.15v-20.38h.75l63.08-44.92v-13.27c4.72-2.01,3.33-9.16-1.87-9.19-5.2.03-6.59,7.18-1.87,9.19v11.33l-60.54,43.1h-45.21v-1.72l7.08-4.95h33.23l55.86-39.05v-18.14c4.72-2.01,3.33-9.16-1.87-9.19-5.2.03-6.59,7.18-1.87,9.19v16.19l-53.29,37.26h-26.69l55.65-38.9v-25.44l17.4-12.17v-4.14h16.04l25.26,17.66h10.99l10.72,13.42h46.43l15.86-12.62c3.04,1.79,7.16-.65,7.06-4.19,0-2.64-2.15-4.79-4.79-4.79ZM686.3,297.62c2.46.06,2.46,3.67,0,3.73-2.46-.06-2.46-3.67,0-3.73ZM668.52,227.79c2.46.06,2.46,3.67,0,3.73-2.46-.06-2.46-3.67,0-3.73ZM646.33,218.7c.06-2.46,3.67-2.46,3.73,0-.06,2.46-3.67,2.46-3.73,0ZM637.03,163.29c-2.46-.06-2.46-3.67,0-3.73,2.46.06,2.46,3.67,0,3.73ZM604.28,205.29c2.46.06,2.46,3.67,0,3.73-2.46-.06-2.46-3.67,0-3.73ZM580.11,149.12c-2.46-.06-2.46-3.67,0-3.73,2.46.06,2.46,3.67,0,3.73ZM544.1,298.41c-2.46-.06-2.46-3.67,0-3.73,2.46.06,2.46,3.67,0,3.73ZM493.29,322.24c-2.46-.06-2.46-3.67,0-3.73,2.46.06,2.46,3.67,0,3.73ZM481.71,364.86c-2.46-.06-2.46-3.67,0-3.73,2.46.06,2.46,3.67,0,3.73ZM466.51,347.14c2.46.06,2.46,3.67,0,3.73-2.46-.06-2.46-3.67,0-3.73ZM430.15,381.14c2.46.06,2.46,3.67,0,3.73-2.46-.06-2.46-3.67,0-3.73ZM568.57,222.19c2.46.06,2.46,3.67,0,3.73-2.46-.06-2.46-3.67,0-3.73ZM556.13,134.16c2.46.06,2.46,3.67,0,3.73-2.46-.06-2.46-3.67,0-3.73ZM529.1,192.73c2.46.06,2.46,3.67,0,3.73-2.46-.06-2.46-3.67,0-3.73ZM515.32,224.96c2.46.06,2.46,3.67,0,3.73-2.46-.06-2.46-3.67,0-3.73ZM499.21,241.79c2.46.06,2.46,3.67,0,3.73-2.46-.06-2.46-3.67,0-3.73ZM506.07,118.41c2.46.06,2.46,3.67,0,3.73-2.46-.06-2.46-3.67,0-3.73ZM488.84,106.22c-2.46-.06-2.46-3.67,0-3.73,2.46.06,2.46,3.67,0,3.73ZM486.06,161.37c2.46.06,2.46,3.67,0,3.73-2.46-.06-2.46-3.67,0-3.73ZM462.22,103.68c2.46.06,2.46,3.67,0,3.73-2.46-.06-2.46-3.67,0-3.73ZM443.55,115.9c-2.46-.06-2.46-3.67,0-3.73,2.46.06,2.46,3.67,0,3.73ZM415.2,183.13c-2.46-.06-2.46-3.67,0-3.73,2.46.06,2.46,3.67,0,3.73ZM452.89,191.58c-2.46-.06-2.46-3.67,0-3.73,2.46.06,2.46,3.67,0,3.73ZM449.31,289.68c2.46.06,2.46,3.67,0,3.73-2.46-.06-2.46-3.67,0-3.73ZM406.89,367.64c2.46.06,2.46,3.67,0,3.73-2.46-.06-2.46-3.67,0-3.73ZM422.52,294.46c2.46.06,2.46,3.67,0,3.73-2.46-.06-2.46-3.67,0-3.73ZM404.3,246.19c2.46.06,2.46,3.67,0,3.73-2.46-.06-2.46-3.67,0-3.73ZM386.37,168.45c2.46.06,2.46,3.67,0,3.73-2.46-.06-2.46-3.67,0-3.73ZM371.88,174.96c-2.46-.06-2.46-3.67,0-3.73,2.46.06,2.46,3.67,0,3.73ZM371.83,296.65c2.46.06,2.46,3.67,0,3.73-2.46-.06-2.46-3.67,0-3.73ZM334.49,322.14c-2.46-.06-2.46-3.67,0-3.73,2.46.06,2.46,3.67,0,3.73ZM322.5,325.74c-2.46-.06-2.46-3.67,0-3.73,2.46.06,2.46,3.67,0,3.73ZM301.05,363.9c2.46.06,2.46,3.67,0,3.73-2.46-.06-2.46-3.67,0-3.73ZM351.54,254.44c2.46.06,2.46,3.67,0,3.73-2.46-.06-2.46-3.67,0-3.73ZM357.86,166.96c2.46.06,2.46,3.67,0,3.73-2.46-.06-2.46-3.67,0-3.73ZM328.45,184.02c2.46.06,2.46,3.67,0,3.73-2.46-.06-2.46-3.67,0-3.73ZM312.7,213.39c2.46.06,2.46,3.67,0,3.73-2.46-.06-2.46-3.67,0-3.73ZM292.6,223.83c2.46.06,2.46,3.67,0,3.73-2.46-.06-2.46-3.67,0-3.73ZM424.33,107c2.46.06,2.46,3.67,0,3.73-2.46-.06-2.46-3.67,0-3.73ZM392.54,110.3c2.46.06,2.46,3.67,0,3.73-2.46-.06-2.46-3.67,0-3.73ZM373.68,52.15c2.46.06,2.46,3.67,0,3.73-2.46-.06-2.46-3.67,0-3.73ZM325.04,25.69c-2.46-.06-2.46-3.67,0-3.73,2.46.06,2.46,3.67,0,3.73ZM315.42,52.15c-2.46-.06-2.46-3.67,0-3.73,2.46.06,2.46,3.67,0,3.73ZM292.56,67.11c2.46.06,2.46,3.67,0,3.73-2.46-.06-2.46-3.67,0-3.73ZM281.65,2.92c2.46.06,2.46,3.67,0,3.73-2.46-.06-2.46-3.67,0-3.73ZM249.18,39.55c-2.46-.06-2.46-3.67,0-3.73,2.46.06,2.46,3.67,0,3.73ZM264.02,52.39c-2.46-.06-2.46-3.67,0-3.73,2.46.06,2.46,3.67,0,3.73ZM249.7,311.31c2.46.06,2.46,3.67,0,3.73-2.46-.06-2.46-3.67,0-3.73ZM205.86,33.68c.06-2.46,3.67-2.46,3.73,0-.06,2.46-3.67,2.46-3.73,0ZM174.12,38.32c-2.46-.06-2.46-3.67,0-3.73,2.46.06,2.46,3.67,0,3.73ZM192.39,66.62c-2.46-.06-2.46-3.67,0-3.73,2.46.06,2.46,3.67,0,3.73ZM224.71,101.11c.06-2.46,3.67-2.46,3.73,0-.06,2.46-3.67,2.46-3.73,0ZM246.31,125.74c-2.46-.06-2.46-3.67,0-3.73,2.46.06,2.46,3.67,0,3.73ZM253.34,236.88c-2.46-.06-2.46-3.67,0-3.73,2.46.06,2.46,3.67,0,3.73ZM218.02,223.17c-2.46-.06-2.46-3.67,0-3.73,2.46.06,2.46,3.67,0,3.73ZM202.18,224.96c2.46.06,2.46,3.67,0,3.73-2.46-.06-2.46-3.67,0-3.73ZM174.47,225.93c-2.36-.15-2.36-3.57,0-3.72,2.36.15,2.36,3.57,0,3.72ZM190.27,202.37c-2.46-.06-2.46-3.67,0-3.73,2.46.06,2.46,3.67,0,3.73ZM186.13,291.84c2.18.06,2.18,3.74,0,3.8-2.18-.06-2.18-3.74,0-3.8ZM176.08,300.64c-2.46-.06-2.46-3.67,0-3.73,2.46.06,2.46,3.67,0,3.73ZM174.12,119.35c2.46.06,2.46,3.67,0,3.73-2.46-.06-2.46-3.67,0-3.73ZM162.26,111.26c2.46.06,2.46,3.67,0,3.73-2.46-.06-2.46-3.67,0-3.73ZM152.66,140.16c2.46.06,2.46,3.67,0,3.73-2.46-.06-2.46-3.67,0-3.73ZM129.42,187.16c-2.46-.06-2.46-3.67,0-3.73,2.46.06,2.46,3.67,0,3.73ZM141.94,265.25c-2.18-.06-2.18-3.74,0-3.8,2.18.06,2.18,3.74,0,3.8ZM146.19,423.82c-2.46-.06-2.46-3.67,0-3.73,2.46.06,2.46,3.67,0,3.73ZM159.6,232.32c-2.18-.06-2.18-3.74,0-3.8,2.18.06,2.18,3.74,0,3.8ZM109.3,250.35c-2.46-.06-2.46-3.67,0-3.73,2.46.06,2.46,3.67,0,3.73ZM113.75,306.41c-2.46-.06-2.46-3.67,0-3.73,2.46.06,2.46,3.67,0,3.73ZM68.46,307.85c-2.46-.06-2.46-3.67,0-3.73,2.46.06,2.46,3.67,0,3.73ZM84.2,291.25c-2.46-.06-2.46-3.67,0-3.73,2.46.06,2.46,3.67,0,3.73ZM98.26,283.02c-2.46-.06-2.46-3.67,0-3.73,2.46.06,2.46,3.67,0,3.73ZM121.5,387.64c-2.46-.06-2.46-3.67,0-3.73,2.46.06,2.46,3.67,0,3.73ZM129.66,257.05c-2.18-.06-2.18-3.74,0-3.8,2.18.06,2.18,3.74,0,3.8ZM111.25,402.8c-2.46-.06-2.46-3.67,0-3.73,2.46.06,2.46,3.67,0,3.73ZM90.67,415.58c2.46.06,2.46,3.67,0,3.73-2.46-.06-2.46-3.67,0-3.73ZM73.32,430.92c2.46.06,2.46,3.67,0,3.73-2.46-.06-2.46-3.67,0-3.73ZM102.2,378.03c2.46.06,2.46,3.67,0,3.73-2.46-.06-2.46-3.67,0-3.73ZM79.66,353.91c2.46.06,2.46,3.67,0,3.73-2.46-.06-2.46-3.67,0-3.73ZM67.59,337.01c2.46.06,2.46,3.67,0,3.73-2.46-.06-2.46-3.67,0-3.73ZM53.14,344.54c2.46.06,2.46,3.67,0,3.73-2.46-.06-2.46-3.67,0-3.73ZM46.79,273.91c2.46.06,2.46,3.67,0,3.73-2.46-.06-2.46-3.67,0-3.73ZM103.54,183.43c2.46.06,2.46,3.67,0,3.73-2.46-.06-2.46-3.67,0-3.73ZM84.1,213.06c2.46.06,2.46,3.67,0,3.73-2.46-.06-2.46-3.67,0-3.73ZM110.5,138.52c2.46.06,2.46,3.67,0,3.73-2.46-.06-2.46-3.67,0-3.73ZM124.97,51.98c2.46.06,2.46,3.67,0,3.73-2.46-.06-2.46-3.67,0-3.73ZM108.89,34.59c2.46.06,2.46,3.67,0,3.73-2.46-.06-2.46-3.67,0-3.73ZM86.37,122.04l22.77-15.92,11.9,4.69-34.67,24.24v-13.02ZM84.49,62.08c2.46.06,2.46,3.67,0,3.73-2.46-.06-2.46-3.67,0-3.73ZM58.65,38.88c-2.46-.06-2.46-3.67,0-3.73,2.46.06,2.46,3.67,0,3.73ZM50.07,124.01c-2.46-.06-2.46-3.67,0-3.73,2.46.06,2.46,3.67,0,3.73ZM64.81,143.9c-2.46-.06-2.46-3.67,0-3.73,2.46.06,2.46,3.67,0,3.73ZM13.09,43.8c.06-2.46,3.67-2.46,3.73,0-.06,2.46-3.67,2.46-3.73,0ZM4.76,9.19c-2.46-.06-2.46-3.67,0-3.73,2.46.06,2.46,3.67,0,3.73ZM27.41,104.98c-2.46-.06-2.46-3.67,0-3.73,2.46.06,2.46,3.67,0,3.73ZM34.75,312.33c2.46.06,2.46,3.67,0,3.73-2.46-.06-2.46-3.67,0-3.73ZM11.49,1339.89c-2.46-.06-2.46-3.67,0-3.73,2.46.06,2.46,3.67,0,3.73ZM22.79,1218.26c2.46.06,2.46,3.67,0,3.73-2.46-.06-2.46-3.67,0-3.73ZM51.19,1336.16c2.46.06,2.46,3.67,0,3.73-2.46-.06-2.46-3.67,0-3.73ZM59.96,1192.61c2.46.06,2.46,3.67,0,3.73-2.46-.06-2.46-3.67,0-3.73ZM64.24,1131.3c2.46.06,2.46,3.67,0,3.73-2.46-.06-2.46-3.67,0-3.73ZM73.55,1317.15c-2.46-.06-2.46-3.67,0-3.73,2.46.06,2.46,3.67,0,3.73ZM92.57,1262.19c-.06,2.46-3.67,2.46-3.73,0,.06-2.46,3.67-2.46,3.73,0ZM115.43,1294.08c-.06,2.46-3.67,2.46-3.73,0,.06-2.46,3.67-2.46,3.73,0ZM140.91,1245.87c2.46.06,2.46,3.67,0,3.73-2.46-.06-2.46-3.67,0-3.73ZM127.17,1264.52c-.06,2.46-3.67,2.46-3.73,0,.06-2.46,3.67-2.46,3.73,0ZM170.54,1299.26c-.06,2.46-3.67,2.46-3.73,0,.06-2.46,3.67-2.46,3.73,0ZM194.34,1271.25c2.46.06,2.46,3.67,0,3.73-2.46-.06-2.46-3.67,0-3.73ZM219.27,1262.85c2.46.06,2.46,3.67,0,3.73-2.46-.06-2.46-3.67,0-3.73ZM209.6,1231.98c2.46.06,2.46,3.67,0,3.73-2.46-.06-2.46-3.67,0-3.73ZM261.01,1248.09c2.46.06,2.46,3.67,0,3.73-2.46-.06-2.46-3.67,0-3.73ZM248.17,1288.73c2.46.06,2.46,3.67,0,3.73-2.46-.06-2.46-3.67,0-3.73ZM239.01,1272.84c2.46.06,2.46,3.67,0,3.73-2.46-.06-2.46-3.67,0-3.73ZM86.81,1198.02c2.46.06,2.46,3.67,0,3.73-2.46-.06-2.46-3.67,0-3.73ZM241.22,1167.74c2.46.06,2.46,3.67,0,3.73-2.46-.06-2.46-3.67,0-3.73ZM279.17,1268.94c2.46.06,2.46,3.67,0,3.73-2.46-.06-2.46-3.67,0-3.73ZM271.41,1177.27c2.46.06,2.46,3.67,0,3.73-2.46-.06-2.46-3.67,0-3.73ZM264.26,1160.08c2.46.06,2.46,3.67,0,3.73-2.46-.06-2.46-3.67,0-3.73ZM326.18,1245.34c2.46.06,2.46,3.67,0,3.73-2.46-.06-2.46-3.67,0-3.73ZM298.77,1221.75h.93c2.08.54,1.71,3.66-.47,3.67-2.17-.01-2.55-3.13-.47-3.67ZM289.62,1190.7c2.46.06,2.46,3.67,0,3.73-2.46-.06-2.46-3.67,0-3.73ZM378.63,1191.28c2.46.06,2.46,3.67,0,3.73-2.46-.06-2.46-3.67,0-3.73ZM238.92,1109.16c2.46.06,2.46,3.67,0,3.73-2.46-.06-2.46-3.67,0-3.73ZM89.65,1117.65c-2.46-.06-2.46-3.67,0-3.73,2.46.06,2.46,3.67,0,3.73ZM144.59,1094.05c2.46.06,2.46,3.67,0,3.73-2.46-.06-2.46-3.67,0-3.73ZM292.72,1115.33c2.46.06,2.46,3.67,0,3.73-2.46-.06-2.46-3.67,0-3.73ZM304.1,1085.65c2.46.06,2.46,3.67,0,3.73-2.46-.06-2.46-3.67,0-3.73ZM200.04,1071.58c2.46.06,2.46,3.67,0,3.73-2.46-.06-2.46-3.67,0-3.73ZM180.75,1043.19c2.46.06,2.46,3.67,0,3.73-2.46-.06-2.46-3.67,0-3.73ZM135.32,1021.71c2.46.06,2.46,3.67,0,3.73-2.46-.06-2.46-3.67,0-3.73ZM132.03,493.29c2.46.06,2.46,3.67,0,3.73-2.46-.06-2.46-3.67,0-3.73ZM21.41,451.5c2.46.06,2.46,3.67,0,3.73-2.46-.06-2.46-3.67,0-3.73ZM35.81,1035.83h-6.32l-15.89-17.18v-209.02s13.01,20.13,13.01,20.13v65.18l-8.71,15.43v47c-4.34,2.29-2.72,8.98,2.25,8.99,4.96-.01,6.59-6.7,2.25-8.99v-45.82l7.58-13.44h5.83v137.71ZM22.02,961.58c-.06,2.46-3.67,2.46-3.73,0,.06-2.46,3.67-2.46,3.73,0ZM35.81,893.62h-5.08v-34.62h5.08v34.62ZM35.81,854.5h-5.08v-2.91h5.08v2.91ZM35.81,739.43v66.59l-11.76-18.94v-32.1c4.52-2.17,2.99-9.06-2.08-9.08-4.86,0-6.58,6.49-2.42,8.9v33.57l16.26,26.19v32.55h-5.08v-18.54l-17.14-26.5v-70.57s22.22,6.52,22.22,6.52v1.43ZM23.84,750.68c-.06,2.46-3.67,2.46-3.73,0,.06-2.46,3.67-2.46,3.73,0ZM35.81,733.31l-22.22-6.52v-5.89l22.22,7.14v5.27ZM35.81,723.32l-22.22-7.14v-64.38s22.22-10.18,22.22-10.18v81.71ZM35.81,636.67l-22.22,10.18v-5.14l22.22-10.18v5.14ZM37.9,1312.47c2.46.06,2.46,3.67,0,3.73-2.46-.06-2.46-3.67,0-3.73ZM35.81,519.53v25.62l-18.29,19.31v24.35c-4.54,2.16-3.02,9.07,2.06,9.09,5.08-.02,6.6-6.94,2.06-9.09v-22.71l14.17-14.96v75.44l-22.22,10.18c-.02-8.09.08-92.73.08-103.23l9.89-8.86v-5.15h12.25ZM21.45,593.12c-.06,2.46-3.67,2.46-3.73,0,.06-2.46,3.67-2.46,3.73,0ZM230.31,435.18l5.31-3.71v21.76l-5.31,3.55v-21.6ZM186.91,433.81c-2.46-.06-2.46-3.67,0-3.73,2.46.06,2.46,3.67,0,3.73ZM186.91,427.15c-5.02.02-6.59,6.82-2.15,9.04v19.19l-9.99-3.64v-32.69c4.4-2.06,3.08-9.17-1.87-9.21-4.96.04-6.27,7.15-1.87,9.21v35.31l13.74,5v10.08l-11.35,10.89-11.62-12.28-.04-101.93,29.61-24.4.06-.05,17.17-15.46h23.1l-11.93,10.27v18.84l-19.44,14.49v24.81l-11.52-8.05v-20.05c4.72-2.01,3.33-9.16-1.87-9.19-5.2.03-6.59,7.18-1.87,9.19v22l15.28,10.69.24,52.19-11.5,8.04v-23.25c4.44-2.23,2.87-9.02-2.15-9.04ZM174.55,414.67c-.06,2.5-3.25,2.5-3.31,0,.06-2.51,3.25-2.51,3.31,0ZM220.09,437.75l-15.79,11.04c-.08-16.16-.31-61.62-.25-77.09l15.7-11.7v77.75h.35ZM188.78,362.12c-.06,2.46-3.67,2.46-3.73,0,.06-2.46,3.67-2.46,3.73,0ZM189.07,467.77v-3.86l.05.07,37.45-26.18v21.49l-12.68,8.49h-24.82ZM287.38,479c2.46.06,2.46,3.67,0,3.73-2.46-.06-2.46-3.67,0-3.73ZM262.08,381.53c-2.46-.06-2.46-3.67,0-3.73,2.46.06,2.46,3.67,0,3.73ZM271.96,467.77h-8.01v-36.67l8.01-7.15v43.81ZM271.96,418.94l-8.01,7.15v-3.69l8.01-7.53v4.07ZM274.02,365.77h-.36c-2.32-.25-2.16-3.68.18-3.71,2.34.03,2.5,3.47.18,3.71ZM318.67,386.88c-2.46-.06-2.46-3.67,0-3.73,2.46.06,2.46,3.67,0,3.73ZM496,421.82c2.46.06,2.46,3.67,0,3.73-2.46-.06-2.46-3.67,0-3.73ZM449.14,385.39c-2.46-.06-2.46-3.67,0-3.73,2.46.06,2.46,3.67,0,3.73ZM618.68,407.54c2.46.06,2.46,3.67,0,3.73-2.46-.06-2.46-3.67,0-3.73ZM637.03,374.78c2.46.06,2.46,3.67,0,3.73-2.46-.06-2.46-3.67,0-3.73ZM705.88,332.38c2.46.06,2.46,3.67,0,3.73-2.46-.06-2.46-3.67,0-3.73ZM619.24,314.06c2.46.06,2.46,3.67,0,3.73-2.46-.06-2.46-3.67,0-3.73ZM507.79,303.73c.06-2.46,3.67-2.46,3.73,0-.06,2.46-3.67,2.46-3.73,0ZM553.54,378.52v23.21l25.19,7.09-15.73,10.99h-17.35l-15.96-11.16h-72.99l17.87-12.49h37.05v-17.65h41.92ZM605.91,304.64c2.46.06,2.46,3.67,0,3.73-2.46-.06-2.46-3.67,0-3.73ZM724.67,299.85c-2.46-.06-2.46-3.67,0-3.73,2.46.06,2.46,3.67,0,3.73Z" style="fill:#231f20;"/></g></svg>