<?xml version="1.0" encoding="UTF-8"?><svg id="b" xmlns="http://www.w3.org/2000/svg" viewBox="0 0 1429 1345.4"><g id="c"><path id="d" d="M699.75,1305.07v-733.67l.21-.12-.21-.36v-277.23l9.75-15.46v-51.97c1.61-.69,2.75-2.29,2.75-4.15,0-2.49-2.02-4.51-4.51-4.51s-4.51,2.02-4.51,4.51c0,1.86,1.13,3.46,2.75,4.15v50.95l-6.22,9.86v-112.68c1.5-.73,2.54-2.26,2.54-4.04,0-2.49-2.02-4.51-4.51-4.51s-4.51,2.02-4.51,4.51c0,1.73.99,3.22,2.43,3.97v85.94l-10.99-20.99v-84.6c1.61-.69,2.75-2.29,2.75-4.15,0-2.49-2.02-4.51-4.51-4.51s-4.51,2.02-4.51,4.51c0,1.86,1.13,3.46,2.75,4.15v35.27l-5.96-11.17V39.36c1.61-.69,2.75-2.29,2.75-4.15,0-2.49-2.02-4.51-4.51-4.51s-4.51,2.02-4.51,4.51c0,1.86,1.13,3.46,2.75,4.15v99.47l-10.88-10.96v-32.8c1.61-.69,2.75-2.29,2.75-4.15,0-2.49-2.02-4.51-4.51-4.51s-4.51,2.02-4.51,4.51c0,1.86,1.13,3.46,2.75,4.15v34.26l14.41,14.52v5.19l-20.9-20.9V32.08h-.71c1.98-.48,3.46-2.25,3.46-4.37,0-2.49-2.02-4.51-4.51-4.51s-4.51,2.02-4.51,4.51c0,2.12,1.48,3.89,3.46,4.37h-.71v97.51l24.43,24.43v25.65l9.49,17.78v42.71l14.52,27.73v107.76l-15.52-18.8h-14.35v-55.5l-7.25-7.08v-21.36l14.8-14.8v-23.48c1.61-.69,2.75-2.29,2.75-4.15,0-2.49-2.02-4.51-4.51-4.51s-4.51,2.02-4.51,4.51c0,1.86,1.13,3.46,2.75,4.15v22.02l-14.8,14.8v19.37l-4.01-3.91v-38.51l10.53-10.28v-39.56c1.61-.69,2.75-2.29,2.75-4.15,0-2.49-2.02-4.51-4.51-4.51s-4.51,2.02-4.51,4.51c0,1.86,1.13,3.46,2.75,4.15v38.08l-10.53,10.28v36.55l-6.43-6.28v-55.62l-25.17-24.59v-11.69l10.45-10.45V50.03h-.83c2.04-.43,3.57-2.24,3.57-4.41,0-2.49-2.02-4.51-4.51-4.51s-4.51,2.02-4.51,4.51c0,2.16,1.53,3.98,3.57,4.41h-.83v123.35l-6.92,6.92v-95.85c1.46-.75,2.48-2.25,2.48-4,0-2.49-2.02-4.51-4.51-4.51s-4.51,2.02-4.51,4.51c0,1.75,1.02,3.26,2.48,4v86.73l-9.36-18.86v-54.63c1.61-.69,2.75-2.29,2.75-4.15,0-2.49-2.02-4.51-4.51-4.51s-4.51,2.02-4.51,4.51c0,1.86,1.13,3.46,2.75,4.15v55.46l12.89,25.97v19.57l25.17,24.59v55.62l24.74,24.17v43.65l-4.01-3.92v-30.31c1.61-.69,2.75-2.29,2.75-4.15,0-2.49-2.02-4.51-4.51-4.51s-4.51,2.02-4.51,4.51c0,1.86,1.13,3.46,2.75,4.15v31.79l7.54,7.36v9.27h16.49l8,9.69h-8.44l.08-.09-7.45-7.28h-15.19l-12.58-12.29v-46.84c1.61-.69,2.75-2.29,2.75-4.15,0-2.49-2.02-4.51-4.51-4.51s-4.51,2.02-4.51,4.51c0,1.86,1.13,3.46,2.75,4.15v48.32l14.67,14.33h15.19l3.93,3.84h-21.27l-12.56-12.26h-24.29v-71.17l-2.84-2.78v-28.68l-13.18-13.18v-23.71c1.61-.69,2.75-2.29,2.75-4.15,0-2.49-2.02-4.51-4.51-4.51s-4.51,2.02-4.51,4.51c0,1.86,1.13,3.46,2.75,4.15v25.17l13.18,13.18v23.77l-21.51-21.01v-61.39c1.61-.69,2.75-2.29,2.75-4.15,0-2.49-2.02-4.51-4.51-4.51s-4.51,2.02-4.51,4.51c0,1.86,1.13,3.46,2.75,4.15v57.94l-31.9-31.16,21.37-15.16v-48.34c1.61-.69,2.75-2.29,2.75-4.15,0-2.49-2.02-4.51-4.51-4.51s-4.51,2.02-4.51,4.51c0,1.86,1.13,3.46,2.75,4.15v46.52l-20.41,14.48-3.87-3.78v-6.41l15.44-10.79v-66.75c1.61-.69,2.75-2.29,2.75-4.15,0-2.49-2.02-4.51-4.51-4.51s-4.51,2.02-4.51,4.51c0,1.86,1.13,3.46,2.75,4.15v64.91l-11.91,8.33v-100.1l26.72-26.72v-45.45c1.61-.69,2.75-2.29,2.75-4.15,0-2.49-2.02-4.51-4.51-4.51s-4.51,2.02-4.51,4.51c0,1.86,1.13,3.46,2.75,4.15v43.99l-23.19,23.19v-25.52l15.43-15.43V8.66c1.61-.69,2.75-2.29,2.75-4.15,0-2.49-2.02-4.51-4.51-4.51s-4.51,2.02-4.51,4.51c0,1.86,1.13,3.46,2.75,4.15v52.18l-11.9,11.9v-16.85c1.46-.75,2.48-2.25,2.48-4,0-2.49-2.02-4.51-4.51-4.51s-4.51,2.02-4.51,4.51c0,1.75,1.02,3.26,2.48,4v164.86l69.75,68.12v55.36l-20.97-18.88v-36.23h0s0,0,0,0v-9.86c1.61-.69,2.75-2.29,2.75-4.15,0-2.49-2.02-4.51-4.51-4.51s-4.51,2.02-4.51,4.51c0,1.86,1.13,3.46,2.75,4.15v6.47l-60.17-57.89v-100.28c1.61-.69,2.75-2.29,2.75-4.15,0-2.49-2.02-4.51-4.51-4.51s-4.51,2.02-4.51,4.51c0,1.86,1.13,3.46,2.75,4.15v66.08l-14.62-10.22v-55.85c1.61-.69,2.75-2.29,2.75-4.15,0-2.49-2.02-4.51-4.51-4.51s-4.51,2.02-4.51,4.51c0,1.86,1.13,3.46,2.75,4.15v20.44l-8.61,6.02v-46.69c1.61-.69,2.75-2.29,2.75-4.15,0-2.49-2.02-4.51-4.51-4.51s-4.51,2.02-4.51,4.51c0,1.86,1.13,3.46,2.75,4.15v92.14l6.26,4.38v63.04h-7.47l-12.2-12.2h-42.03v-18.52l25.47-17.8c.7.44,1.52.71,2.41.71,2.49,0,4.51-2.02,4.51-4.51s-2.02-4.51-4.51-4.51-4.51,2.02-4.51,4.51c0,.31.03.61.09.9l-23.45,16.4v-6.88l27.02-18.89V39.36c1.61-.69,2.75-2.29,2.75-4.15,0-2.49-2.02-4.51-4.51-4.51s-4.51,2.02-4.51,4.51c0,1.86,1.13,3.46,2.75,4.15v85.98l-7.16-19.16v-41.27c1.61-.69,2.75-2.29,2.75-4.15,0-2.49-2.02-4.51-4.51-4.51s-4.51,2.02-4.51,4.51c0,1.86,1.13,3.46,2.75,4.15v41.91l10.42,27.88.27-.1v69.64l-6.78,4.74v-19.51c1.61-.69,2.75-2.29,2.75-4.15,0-2.49-2.02-4.51-4.51-4.51s-4.51,2.02-4.51,4.51c0,1.86,1.13,3.46,2.75,4.15v21.98l-13.19,9.22v-58.84c1.61-.69,2.75-2.29,2.75-4.15,0-2.49-2.02-4.51-4.51-4.51s-4.51,2.02-4.51,4.51c0,1.86,1.13,3.46,2.75,4.15v129.99l-5.32,3.72V126.01c1.46-.75,2.48-2.25,2.48-4,0-2.49-2.02-4.51-4.51-4.51s-4.51,2.02-4.51,4.51c0,1.75,1.02,3.26,2.48,4v193.3l65.81,46.01h20.47l1.16.86v62.71l-11.29,9.72v-27.75c1.44-.75,2.44-2.25,2.44-3.98,0-2.49-2.02-4.51-4.51-4.51s-4.51,2.02-4.51,4.51c0,1.77,1.03,3.29,2.52,4.03v35.75l-13.34-10.97v-59.52c1.61-.69,2.75-2.29,2.75-4.15,0-2.49-2.02-4.51-4.51-4.51s-4.51,2.02-4.51,4.51c0,1.86,1.13,3.46,2.75,4.15v34.99l-11-7.78v-7.32c1.61-.69,2.75-2.29,2.75-4.15,0-2.49-2.02-4.51-4.51-4.51s-4.51,2.02-4.51,4.51c0,1.86,1.13,3.46,2.75,4.15v9.15l14.53,10.27v21.87l16.87,13.87v25.41h-28.63v-18.6l-36.14-30.95v-26.01l.42.49,16.39-14.12v-18.18c1.61-.69,2.75-2.29,2.75-4.15,0-2.49-2.02-4.51-4.51-4.51s-4.51,2.02-4.51,4.51c0,1.86,1.13,3.46,2.75,4.15v16.56l-13.28,11.45v-35.1c1.61-.69,2.75-2.29,2.75-4.15,0-2.49-2.02-4.51-4.51-4.51s-4.51,2.02-4.51,4.51c0,1.86,1.13,3.46,2.75,4.15v66.53l36.14,30.95v16.98h-4.79v-14.12l-38.32-33.03v-87.84c1.61-.69,2.75-2.29,2.75-4.15,0-2.49-2.02-4.51-4.51-4.51s-4.51,2.02-4.51,4.51c0,1.86,1.13,3.46,2.75,4.15v72.89l-10.94-9.95v-82c1.61-.69,2.75-2.29,2.75-4.15,0-2.49-2.02-4.51-4.51-4.51s-4.51,2.02-4.51,4.51c0,1.86,1.13,3.46,2.75,4.15v83.56l14.46,13.15v11.8l38.32,33.03v12.5h-10.88l-51.19-41.5v-185.47l22.45-15.7v-31.71c1.61-.69,2.75-2.29,2.75-4.15,0-2.49-2.02-4.51-4.51-4.51s-4.51,2.02-4.51,4.51c0,1.86,1.13,3.46,2.75,4.15v29.88l-18.92,13.23v-4.51l12.03-8.05v-92.71c1.65-.67,2.82-2.29,2.82-4.17,0-2.49-2.02-4.51-4.51-4.51s-4.51,2.02-4.51,4.51c0,1.83,1.1,3.41,2.67,4.11v52.81l-21.2-33.06v-9.17h5.23l8.68-13.54V45.62h-.04c1.6-.69,2.72-2.28,2.72-4.14,0-2.49-2.02-4.51-4.51-4.51s-4.51,2.02-4.51,4.51c0,1.88,1.16,3.5,2.81,4.17v90.39l-7.08,11.04h-3.3v-47.08c1.61-.69,2.75-2.29,2.75-4.15,0-2.49-2.02-4.51-4.51-4.51s-4.51,2.02-4.51,4.51c0,1.86,1.13,3.46,2.75,4.15v60.8l24.73,38.56v31.55l-12.64,8.46.08.12v15.75l-5.22-3.65v-40.8c1.61-.69,2.75-2.29,2.75-4.15,0-2.49-2.02-4.51-4.51-4.51s-4.51,2.02-4.51,4.51c0,1.86,1.13,3.46,2.75,4.15v42.64l8.75,6.11v166.57h-6.08v-133.68c1.61-.69,2.75-2.29,2.75-4.15,0-2.49-2.02-4.51-4.51-4.51s-4.51,2.02-4.51,4.51c0,1.86,1.13,3.46,2.75,4.15v131.54l-3.06,2.14h-7.34l-14.58-10.2h-6.06l24.84-22.58v-132.99c1.61-.69,2.75-2.29,2.75-4.15,0-2.49-2.02-4.51-4.51-4.51s-4.51,2.02-4.51,4.51c0,1.86,1.13,3.46,2.75,4.15v131.43l-14.07,12.79-8.78-8.78v-13.31l12.45-8.71v-131.22c1.61-.69,2.75-2.29,2.75-4.15,0-2.49-2.02-4.51-4.51-4.51s-4.51,2.02-4.51,4.51c0,1.86,1.13,3.46,2.75,4.15v34.89l-6.27-4.38V114.06c1.61-.69,2.75-2.29,2.75-4.15,0-2.49-2.02-4.51-4.51-4.51s-4.51,2.02-4.51,4.51c0,1.86,1.13,3.46,2.75,4.15v160.84l9.8,6.85v28.53l-38.34-26.91v-38.09l10.09-10.09v-25.49c1.61-.69,2.75-2.29,2.75-4.15,0-2.49-2.02-4.51-4.51-4.51s-4.51,2.02-4.51,4.51c0,1.86,1.13,3.46,2.75,4.15v24.03l-6.56,6.57v-52.51l11.16-7.8V56.52c1.61-.69,2.75-2.29,2.75-4.15,0-2.49-2.02-4.51-4.51-4.51s-4.51,2.02-4.51,4.51c0,1.86,1.13,3.46,2.75,4.15v121.62l-7.63,5.33v-116.64c1.61-.69,2.75-2.29,2.75-4.15,0-2.49-2.02-4.51-4.51-4.51s-4.51,2.02-4.51,4.51c0,1.86,1.13,3.46,2.75,4.15v82.8l-8.41-10.86v-16.44c1.61-.69,2.75-2.29,2.75-4.15,0-2.49-2.02-4.51-4.51-4.51s-4.51,2.02-4.51,4.51c0,1.86,1.13,3.46,2.75,4.15v17.65l11.93,15.42v129.81l41.87,29.39v57.35l-8.93,6.24v-30.99c1.63-.68,2.79-2.29,2.79-4.16,0-2.49-2.02-4.51-4.51-4.51s-4.51,2.02-4.51,4.51c0,1.84,1.11,3.43,2.7,4.12v50.1l9.7,9.7-7.95,7.23-8.47-7.43h-25.67l-7.94-5.55,23.53-16.45v-42.1c1.68-.66,2.87-2.28,2.87-4.19,0-2.49-2.02-4.51-4.51-4.51s-4.51,2.02-4.51,4.51c0,1.81,1.08,3.37,2.62,4.08v40.37l-23.08,16.13-13.97-9.77v-5.48l22.97-16.06v-38.86c1.61-.69,2.75-2.29,2.75-4.15,0-2.49-2.02-4.51-4.51-4.51s-4.51,2.02-4.51,4.51c0,1.86,1.13,3.46,2.75,4.15v37.03l-22.97,16.06v4.85l-5.04-3.53v-17.72l19.72-13.79v-85.14c1.61-.69,2.75-2.29,2.75-4.15,0-2.49-2.02-4.51-4.51-4.51s-4.51,2.02-4.51,4.51c0,1.86,1.13,3.46,2.75,4.15v83.3l-16.2,11.32v-86.11c1.61-.69,2.75-2.29,2.75-4.15,0-2.49-2.02-4.51-4.51-4.51s-4.51,2.02-4.51,4.51c0,1.86,1.13,3.46,2.75,4.15v109.97l35.98,25.15h25.46l6.45,5.66h-51.97l-32.65-22.83c.03-.2.06-.4.06-.6,0-2.49-2.02-4.51-4.51-4.51s-4.51,2.02-4.51,4.51,2.02,4.51,4.51,4.51c.99,0,1.89-.33,2.64-.87l33.35,23.32h64.7l14.58,10.2h3.4l-12.97,9.07h-56.79l-24.03-16.87-40.62-28.4c.07-.31.11-.63.11-.96,0-2.49-2.02-4.51-4.51-4.51s-4.51,2.02-4.51,4.51,2.02,4.51,4.51,4.51c.86,0,1.67-.26,2.35-.68l14.84,10.38h-20.82l-24-16.78v-14.45l12.63-8.83v-34.9l12.07-3.44v20.74l13.49,9.43v5.9c-1.61.69-2.75,2.29-2.75,4.15,0,2.49,2.02,4.51,4.51,4.51s4.51-2.02,4.51-4.51c0-1.86-1.13-3.46-2.75-4.15v-7.74l-13.49-9.43v-19.9l25.4-7.24v-72.18l42.92-20.54v-50.61c1.61-.69,2.75-2.29,2.75-4.15,0-2.49-2.02-4.51-4.51-4.51s-4.51,2.02-4.51,4.51c0,1.86,1.13,3.46,2.75,4.15v48.38l-39.39,18.85v-5.77l27.42-13.97v-99.29c1.61-.69,2.75-2.29,2.75-4.15,0-2.49-2.02-4.51-4.51-4.51s-4.51,2.02-4.51,4.51c0,1.86,1.13,3.46,2.75,4.15v97.12l-23.89,12.17v-127.73c1.61-.69,2.75-2.29,2.75-4.15,0-2.49-2.02-4.51-4.51-4.51s-4.51,2.02-4.51,4.51c0,1.86,1.13,3.46,2.75,4.15v104.28h-15.13v-79.66c1.61-.69,2.75-2.29,2.75-4.15,0-2.49-2.02-4.51-4.51-4.51s-4.51,2.02-4.51,4.51c0,1.86,1.13,3.46,2.75,4.15v83.18h18.65v103.08l-61.76,17.61-12.02-8.4,46.72-13.16v-163.58c1.61-.69,2.75-2.29,2.75-4.15,0-2.49-2.02-4.51-4.51-4.51s-4.51,2.02-4.51,4.51c0,1.86,1.13,3.46,2.75,4.15v160.91l-46.93,13.22-.58-.41v-16.99l30.26-21.16v-22.72c1.61-.69,2.75-2.29,2.75-4.15,0-2.49-2.02-4.51-4.51-4.51s-4.51,2.02-4.51,4.51c0,1.86,1.13,3.46,2.75,4.15v20.88l-30.26,21.16v16.36l-14.25-9.96v-35.59c1.61-.69,2.75-2.29,2.75-4.15,0-2.49-2.02-4.51-4.51-4.51s-4.51,2.02-4.51,4.51c0,1.86,1.13,3.46,2.75,4.15v37.43l35.55,24.85v6.03h-4.78l-47.61-31.79v-17.88c1.61-.69,2.75-2.29,2.75-4.15,0-2.49-2.02-4.51-4.51-4.51s-4.51,2.02-4.51,4.51c0,1.86,1.13,3.46,2.75,4.15v19.76l44.79,29.91h-45.51l-39.52-27.63,9.09-9.09v-24.79c1.61-.69,2.75-2.29,2.75-4.15,0-2.49-2.02-4.51-4.51-4.51s-4.51,2.02-4.51,4.51c0,1.86,1.13,3.46,2.75,4.15v23.33l-8.5,8.5-7.15-5v-36.09l18.22-12.74v-17.72h5.35v11.02h49.44l51.39-35.93V89.53c1.61-.69,2.75-2.29,2.75-4.15,0-2.49-2.02-4.51-4.51-4.51s-4.51,2.02-4.51,4.51c0,1.86,1.13,3.46,2.75,4.15v126.37l-48.97,34.24h-4.46v-8.34l35.26-24.65v-47.02c1.61-.69,2.75-2.29,2.75-4.15,0-2.49-2.02-4.51-4.51-4.51s-4.51,2.02-4.51,4.51c0,1.86,1.13,3.46,2.75,4.15v45.19l-35.26,24.65v10.17h-36.81v-7.49h8.88v-11.51l41.72-41.72v-92.7c1.55-.71,2.64-2.27,2.64-4.09,0-2.49-2.02-4.51-4.51-4.51s-4.51,2.02-4.51,4.51c0,1.82,1.09,3.38,2.64,4.09v76.97l-12.37-12.37v-31.95c1.55-.71,2.64-2.27,2.64-4.09,0-2.49-2.02-4.51-4.51-4.51s-4.51,2.02-4.51,4.51c0,1.82,1.09,3.38,2.64,4.09v33.5l16.12,16.12v8.88l-37.97,37.97v-69.51c1.61-.69,2.75-2.29,2.75-4.15,0-2.49-2.02-4.51-4.51-4.51s-4.51,2.02-4.51,4.51c0,1.86,1.13,3.46,2.75,4.15v82.79h-14.23v-54.66c1.61-.69,2.75-2.29,2.75-4.15,0-2.49-2.02-4.51-4.51-4.51s-4.51,2.02-4.51,4.51c0,1.86,1.13,3.46,2.75,4.15v74.07l-18.22,12.74v35.46l-14.31-10.01v-87.68c1.61-.69,2.75-2.29,2.75-4.15,0-2.49-2.02-4.51-4.51-4.51s-4.51,2.02-4.51,4.51c0,1.86,1.13,3.46,2.75,4.15v89.52l41.95,29.33h-22.9l-8.21,5.74-27.55-18.1v-78.28c1.61-.69,2.75-2.29,2.75-4.15,0-2.49-2.02-4.51-4.51-4.51s-4.51,2.02-4.51,4.51c0,1.86,1.13,3.46,2.75,4.15v80.18l25.21,16.56h-12.21l-20.25-11.45v-98.27c1.61-.69,2.75-2.29,2.75-4.15,0-2.49-2.02-4.51-4.51-4.51s-4.51,2.02-4.51,4.51c0,1.86,1.13,3.46,2.75,4.15v100.33l16.61,9.39h-28.35l-12.82-10.09c.42-.68.67-1.47.67-2.33,0-2.49-2.02-4.51-4.51-4.51s-4.51,2.02-4.51,4.51,2.02,4.51,4.51,4.51c.36,0,.7-.05,1.03-.13l-.11.14,14.52,11.42h55.4l8.74-6.11h26.84l22.86,15.98h57.75v32.91l-20.04-14.01c.11-.39.19-.79.19-1.22,0-2.49-2.02-4.51-4.51-4.51s-4.51,2.02-4.51,4.51,2.02,4.51,4.51,4.51c.76,0,1.47-.21,2.1-.54l58.9,41.18h26.97l20.76,14.51,19.91,13.98h-62.19l-13.25-11.39c.18-.48.29-.99.29-1.53,0-2.49-2.02-4.51-4.51-4.51s-4.51,2.02-4.51,4.51,2.02,4.51,4.51,4.51c.65,0,1.26-.14,1.82-.39l14.35,12.34h127.53l18.02-12.6h11.56v7.43l15.06,12.21h-99.49l-7.49,5.24h-14.75c-.69-1.61-2.29-2.75-4.15-2.75-2.49,0-4.51,2.02-4.51,4.51s2.02,4.51,4.51,4.51c1.86,0,3.46-1.13,4.15-2.75h15.86l7.49-5.24h102.73l34.4,27.89h77.34l5.39-4.37,9,6.3h20.11l12.78,8.94h-15.36c-.75-1.47-2.25-2.48-4-2.48-2.49,0-4.51,2.02-4.51,4.51s2.02,4.51,4.51,4.51c1.75,0,3.26-1.02,4-2.48h39.52l12.2-8.53h27.35l20.42,12.62,18.4,18.99v468.88l-31.49,7.76v17.03l-62.28-.5-20.42,25.17h-10.69l-18.59-15.3-16.99-.31c-.66-1.67-2.28-2.85-4.18-2.85-2.49,0-4.51,2.02-4.51,4.51s2.02,4.51,4.51,4.51c1.82,0,3.38-1.09,4.09-2.64l15.79.29,14.33,11.79h-65.23c-.69-1.61-2.29-2.75-4.15-2.75-2.49,0-4.51,2.02-4.51,4.51s2.02,4.51,4.51,4.51c1.86,0,3.46-1.13,4.15-2.75h19.73l-19.16,32.31h-29.32l-14.04-12.42h-20.89c-.74-1.47-2.25-2.49-4.01-2.49-2.49,0-4.51,2.02-4.51,4.51s2.02,4.51,4.51,4.51c1.96,0,3.61-1.26,4.23-3h19.33l14.04,12.42h32.67l21.25-35.84h21.16v14.3l-17.53,14.32v8.59l-16.97,27.91h-3.26l-21.78-17.03-81.71.91c-.65-1.69-2.28-2.91-4.2-2.91-2.49,0-4.51,2.02-4.51,4.51s2.02,4.51,4.51,4.51c1.79,0,3.33-1.06,4.06-2.58l80.65-.9,17.25,13.49h-41.82c-.64-1.72-2.28-2.95-4.22-2.95-2.49,0-4.51,2.02-4.51,4.51s2.02,4.51,4.51,4.51c1.78,0,3.3-1.04,4.04-2.54h20.54l-14.31,14.4h-26.8l-34.37,27.62-8.57-8.57-27.41-.12c-.49-1.96-2.25-3.43-4.36-3.43-2.49,0-4.51,2.02-4.51,4.51s2.02,4.51,4.51,4.51c1.83,0,3.4-1.1,4.11-2.67l26.45.12,8.13,8.13v12.91l-16.44,15.8v11.76c-1.61.69-2.75,2.29-2.75,4.15,0,2.49,2.02,4.51,4.51,4.51s4.51-2.02,4.51-4.51c0-1.86-1.13-3.46-2.75-4.15v-10.26l12.92-12.41v27.09c-1.61.69-2.75,2.29-2.75,4.15,0,2.49,2.02,4.51,4.51,4.51s4.51-2.02,4.51-4.51c0-1.86-1.13-3.46-2.75-4.15v-44.35l20.68-16.62v98.19c-1.61.69-2.75,2.29-2.75,4.15,0,2.49,2.02,4.51,4.51,4.51s4.51-2.02,4.51-4.51c0-1.86-1.13-3.46-2.75-4.15v-101.02l9.54-7.67h22.05l-13.75,13.83v23.07c-1.61.69-2.75,2.29-2.75,4.15,0,2.49,2.02,4.51,4.51,4.51s4.51-2.02,4.51-4.51c0-1.86-1.13-3.46-2.75-4.15v-21.61l15.19-15.28h.06v-.06l17.76-17.86h27.46l14.99-24.65v13.26c-1.68.65-2.89,2.28-2.89,4.2,0,2.49,2.02,4.51,4.51,4.51s4.51-2.02,4.51-4.51c0-1.8-1.07-3.35-2.6-4.07v-27.09l14-11.44v21.6c-1.61.69-2.75,2.29-2.75,4.15,0,2.49,2.02,4.51,4.51,4.51s4.51-2.02,4.51-4.51c0-1.86-1.13-3.46-2.75-4.15v-40.45h34.64l20.41-25.16,60.61.48v7.23h-50.56l-79.02,97.4h-29.17c-.69-1.61-2.29-2.75-4.15-2.75-2.49,0-4.51,2.02-4.51,4.51s2.02,4.51,4.51,4.51c1.86,0,3.46-1.13,4.15-2.75h30.85l79.02-97.4h48.88v11.36h-50.56l-78.89,97.23h-31.13l-42.71,52.64v31.22c-1.61.69-2.75,2.29-2.75,4.15,0,2.49,2.02,4.51,4.51,4.51s4.51-2.02,4.51-4.51c0-1.86-1.13-3.46-2.75-4.15v-29.97l11.54-14.23,11.47,14.14v21.04l-16.5,20.33v28.84c-1.61.69-2.75,2.29-2.75,4.15,0,2.49,2.02,4.51,4.51,4.51s4.51-2.02,4.51-4.51c0-1.86-1.13-3.46-2.75-4.15v-27.59l12.97-15.99v56.35c-1.61.69-2.75,2.29-2.75,4.15,0,2.49,2.02,4.51,4.51,4.51s4.51-2.02,4.51-4.51c0-1.86-1.13-3.46-2.75-4.15v-78.65l8.56,10.55v33.68c-1.61.69-2.75,2.29-2.75,4.15,0,2.49,2.02,4.51,4.51,4.51s4.51-2.02,4.51-4.51c0-1.86-1.13-3.46-2.75-4.15v-34.93l-24.81-30.58,26.21-32.3,33.29,41.03.02,35.96-19.19,23.65.04,51.87c-1.56.71-2.66,2.28-2.66,4.1,0,2.49,2.02,4.51,4.51,4.51s4.51-2.02,4.51-4.51c0-1.89-1.18-3.51-2.83-4.18l-.04-50.54,15.64-19.28.04,26.49c-1.61.69-2.74,2.29-2.74,4.15,0,2.49,2.02,4.51,4.51,4.51s4.51-2.02,4.51-4.51c0-1.86-1.13-3.46-2.75-4.15l-.04-69.32-33.12-40.82h28.27l78.89-97.23h4.42v7.14l-18.74,23.1v24.83l-8.93,11.01v34.36h-22.78c-.69-1.61-2.29-2.75-4.15-2.75-2.49,0-4.51,2.02-4.51,4.51s2.02,4.51,4.51,4.51c1.86,0,3.46-1.13,4.15-2.75h22.78v7.92h-17.02l-12.57,15.49v27.46c-1.69.65-2.9,2.28-2.9,4.2,0,2.49,2.02,4.51,4.51,4.51s4.51-2.02,4.51-4.51c0-1.8-1.07-3.34-2.59-4.07v-15.47l14.67,14.67v55.8c-1.61.69-2.75,2.29-2.75,4.15,0,2.49,2.02,4.51,4.51,4.51s4.51-2.02,4.51-4.51c0-1.86-1.13-3.46-2.75-4.15v-57.26l-18.2-18.2v-5.88l.76-.94,22.72,24.28.06,72.28c-1.61.69-2.74,2.29-2.74,4.15,0,2.49,2.02,4.51,4.51,4.51s4.51-2.02,4.51-4.51c0-1.86-1.13-3.46-2.75-4.15l-.06-73.67-24-25.65,7.72-9.51h15.34v6.3c-1.61.69-2.75,2.29-2.75,4.15,0,2.49,2.02,4.51,4.51,4.51s4.51-2.02,4.51-4.51c0-1.86-1.13-3.46-2.75-4.15v-10.87l13.14,13.14v18.91c-1.61.69-2.75,2.29-2.75,4.15,0,2.49,2.02,4.51,4.51,4.51s4.51-2.02,4.51-4.51c0-1.86-1.13-3.46-2.75-4.15v-20.37l-16.66-16.66v-38.53l5.41-6.66v18.4c-1.61.69-2.75,2.29-2.75,4.15,0,2.49,2.02,4.51,4.51,4.51s4.51-2.02,4.51-4.51c0-1.86-1.13-3.46-2.75-4.15v-47.58l18.74-23.1v-8.39h5.2v20.06h-7.6v67.27c-1.61.69-2.75,2.29-2.75,4.15,0,2.49,2.02,4.51,4.51,4.51s4.51-2.02,4.51-4.51c0-1.86-1.13-3.46-2.75-4.15v-63.75h7.6v-23.59h32.21v28.4l-20,25.72v8.41l-10.88,8.39v42.26c-1.61.69-2.75,2.29-2.75,4.15,0,2.49,2.02,4.51,4.51,4.51s4.51-2.02,4.51-4.51c0-1.86-1.13-3.46-2.75-4.15v-40.52l7.35-5.67v78.52l-11.85,23.54.08,52.08c-1.61.69-2.74,2.29-2.74,4.15,0,2.49,2.02,4.51,4.51,4.51s4.51-2.02,4.51-4.51c0-1.86-1.13-3.46-2.75-4.15l-.08-44.1v-7.13l8.32-16.53v56.63c-1.61.69-2.75,2.29-2.75,4.15,0,2.49,2.02,4.51,4.51,4.51s4.51-2.02,4.51-4.51c0-1.86-1.13-3.46-2.75-4.15v-63.64l.2-.4-.2-.1v-90.51l20-25.72v-20.76l6.27,5.27v36.94c-1.61.69-2.75,2.29-2.75,4.15,0,2.49,2.02,4.51,4.51,4.51s4.51-2.02,4.51-4.51c0-1.86-1.13-3.46-2.75-4.15v-38.58l-9.8-8.24v-47.68l27.97-6.89v19.78l-16.9,4.31v20.32c-1.61.69-2.75,2.29-2.75,4.15,0,2.49,2.02,4.51,4.51,4.51s4.51-2.02,4.51-4.51c0-1.86-1.13-3.46-2.75-4.15v-17.58l13.37-3.41v90.48l-16.9,28.8v30.15l-12.57,12.57v115.54c-1.61.69-2.75,2.29-2.75,4.15,0,2.49,2.02,4.51,4.51,4.51s4.51-2.02,4.51-4.51c0-1.86-1.13-3.46-2.75-4.15v-114.08l9.04-9.04v76.14c-1.61.69-2.75,2.29-2.75,4.15,0,2.49,2.02,4.51,4.51,4.51s4.51-2.02,4.51-4.51c0-1.86-1.13-3.46-2.75-4.15v-110.33l13.37-22.79v211.1c-1.47.75-2.48,2.25-2.48,4,0,2.49,2.02,4.51,4.51,4.51s4.51-2.02,4.51-4.51c0-1.75-1.02-3.26-2.48-4v-281.17l12.81-9.31v15.49c-1.63.68-2.79,2.29-2.79,4.16,0,2.49,2.02,4.51,4.51,4.51s4.51-2.02,4.51-4.51c0-1.84-1.12-3.43-2.71-4.13v-37.66l4.91-3.57v54.72l-17.22,12.51v52.64c-1.61.69-2.75,2.29-2.75,4.15,0,2.49,2.02,4.51,4.51,4.51s4.51-2.02,4.51-4.51c0-1.86-1.13-3.46-2.75-4.15v-50.84l13.69-9.95v4l-7.98,5.6v40.78c-1.61.69-2.75,2.29-2.75,4.15,0,2.49,2.02,4.51,4.51,4.51s4.51-2.02,4.51-4.51c0-1.86-1.13-3.46-2.75-4.15v-38.94l4.45-3.12v230.51c-1.54.72-2.62,2.27-2.62,4.08,0,2.49,2.02,4.51,4.51,4.51s4.51-2.02,4.51-4.51c0-1.69-.95-3.16-2.34-3.93ZM707.73,220.36c.97,0,1.76.79,1.76,1.76s-.79,1.76-1.76,1.76-1.76-.79-1.76-1.76.79-1.76,1.76-1.76ZM659.04,92.68c-.97,0-1.76-.79-1.76-1.76s.79-1.76,1.76-1.76,1.76.79,1.76,1.76-.79,1.76-1.76,1.76ZM647.26,27.71c0-.97.79-1.76,1.76-1.76s1.76.79,1.76,1.76-.79,1.76-1.76,1.76-1.76-.79-1.76-1.76ZM673.45,36.97c-.97,0-1.76-.79-1.76-1.76s.79-1.76,1.76-1.76,1.76.79,1.76,1.76-.79,1.76-1.76,1.76ZM682.94,152.3c-.97,0-1.76-.79-1.76-1.76s.79-1.76,1.76-1.76,1.76.79,1.76,1.76-.79,1.76-1.76,1.76ZM671.62,228.72c.97,0,1.76.79,1.76,1.76s-.79,1.76-1.76,1.76-1.76-.79-1.76-1.76.79-1.76,1.76-1.76ZM659.81,192.64c.97,0,1.76.79,1.76,1.76s-.79,1.76-1.76,1.76-1.76-.79-1.76-1.76.79-1.76,1.76-1.76ZM622.84,45.62c0-.97.79-1.76,1.76-1.76s1.76.79,1.76,1.76-.79,1.76-1.76,1.76-1.76-.79-1.76-1.76ZM600.74,95.29c-.97,0-1.76-.79-1.76-1.76s.79-1.76,1.76-1.76,1.76.79,1.76,1.76-.79,1.76-1.76,1.76ZM613.89,82.2c-.97,0-1.76-.79-1.76-1.76s.79-1.76,1.76-1.76,1.76.79,1.76,1.76-.79,1.76-1.76,1.76ZM656,310.08c-.97,0-1.76-.79-1.76-1.76s.79-1.76,1.76-1.76,1.76.79,1.76,1.76-.79,1.76-1.76,1.76ZM640.92,301.71c-.97,0-1.76-.79-1.76-1.76s.79-1.76,1.76-1.76,1.76.79,1.76,1.76-.79,1.76-1.76,1.76ZM597.05,216.43c-.97,0-1.76-.79-1.76-1.76s.79-1.76,1.76-1.76,1.76.79,1.76,1.76-.79,1.76-1.76,1.76ZM571.13,155.92c.97,0,1.76.79,1.76,1.76s-.79,1.76-1.76,1.76-1.76-.79-1.76-1.76.79-1.76,1.76-1.76ZM558.76,129.19c.97,0,1.76.79,1.76,1.76s-.79,1.76-1.76,1.76-1.76-.79-1.76-1.76.79-1.76,1.76-1.76ZM570.04,30.16c.97,0,1.76.79,1.76,1.76s-.79,1.76-1.76,1.76-1.76-.79-1.76-1.76.79-1.76,1.76-1.76ZM558.76,2.75c.97,0,1.76.79,1.76,1.76s-.79,1.76-1.76,1.76-1.76-.79-1.76-1.76.79-1.76,1.76-1.76ZM543.06,53.64c-.97,0-1.76-.79-1.76-1.76s.79-1.76,1.76-1.76,1.76.79,1.76,1.76-.79,1.76-1.76,1.76ZM585.19,196.15c-.97,0-1.76-.79-1.76-1.76s.79-1.76,1.76-1.76,1.76.79,1.76,1.76-.79,1.76-1.76,1.76ZM464.73,212.79c.97,0,1.76.79,1.76,1.76s-.79,1.76-1.76,1.76-1.76-.79-1.76-1.76.79-1.76,1.76-1.76ZM462.11,33.46c.97,0,1.76.79,1.76,1.76s-.79,1.76-1.76,1.76-1.76-.79-1.76-1.76.79-1.76,1.76-1.76ZM451.43,62.53c-.97,0-1.76-.79-1.76-1.76s.79-1.76,1.76-1.76,1.76.79,1.76,1.76-.79,1.76-1.76,1.76ZM451.81,183.57c.97,0,1.76.79,1.76,1.76s-.79,1.76-1.76,1.76-1.76-.79-1.76-1.76.79-1.76,1.76-1.76ZM466.4,393.67c-.97,0-1.76-.79-1.76-1.76s.79-1.76,1.76-1.76,1.76.79,1.76,1.76-.79,1.76-1.76,1.76ZM480.94,373.78c-.97,0-1.76-.79-1.76-1.76s.79-1.76,1.76-1.76,1.76.79,1.76,1.76-.79,1.76-1.76,1.76ZM446.32,363.35c.97,0,1.76.79,1.76,1.76s-.79,1.76-1.76,1.76-1.76-.79-1.76-1.76.79-1.76,1.76-1.76ZM429.51,359.78c-.97,0-1.76-.79-1.76-1.76s.79-1.76,1.76-1.76,1.76.79,1.76,1.76-.79,1.76-1.76,1.76ZM404.54,320.2c-.97,0-1.76-.79-1.76-1.76s.79-1.76,1.76-1.76,1.76.79,1.76,1.76-.79,1.76-1.76,1.76ZM419,339.26c-.97,0-1.76-.79-1.76-1.76s.79-1.76,1.76-1.76,1.76.79,1.76,1.76-.79,1.76-1.76,1.76ZM414.18,196.35c.97,0,1.76.79,1.76,1.76s-.79,1.76-1.76,1.76-1.76-.79-1.76-1.76.79-1.76,1.76-1.76ZM403.83,134.16c.97,0,1.76.79,1.76,1.76,0,.78-.52,1.44-1.23,1.67h-1.06c-.71-.23-1.22-.88-1.22-1.67,0-.97.79-1.76,1.76-1.76ZM391.12,41.48c0-.97.79-1.76,1.76-1.76s1.76.79,1.76,1.76-.79,1.76-1.76,1.76-1.76-.79-1.76-1.76ZM379.02,97.62c-.97,0-1.76-.79-1.76-1.76s.79-1.76,1.76-1.76,1.76.79,1.76,1.76-.79,1.76-1.76,1.76ZM382.45,208.4c-.97,0-1.76-.79-1.76-1.76s.79-1.76,1.76-1.76,1.76.79,1.76,1.76-.79,1.76-1.76,1.76ZM371.87,254.44c.97,0,1.76.79,1.76,1.76s-.79,1.76-1.76,1.76-1.76-.79-1.76-1.76.79-1.76,1.76-1.76ZM357.94,236.65c.97,0,1.76.79,1.76,1.76s-.79,1.76-1.76,1.76-1.76-.79-1.76-1.76.79-1.76,1.76-1.76ZM348.14,111.67c-.97,0-1.76-.79-1.76-1.76s.79-1.76,1.76-1.76,1.76.79,1.76,1.76-.79,1.76-1.76,1.76ZM326.16,203.79c.97,0,1.76.79,1.76,1.76s-.79,1.76-1.76,1.76-1.76-.79-1.76-1.76.79-1.76,1.76-1.76ZM327.23,50.61c.97,0,1.76.79,1.76,1.76s-.79,1.76-1.76,1.76-1.76-.79-1.76-1.76.79-1.76,1.76-1.76ZM304.14,119.93c-.97,0-1.76-.79-1.76-1.76s.79-1.76,1.76-1.76,1.76.79,1.76,1.76-.79,1.76-1.76,1.76ZM316.07,64.44c-.97,0-1.76-.79-1.76-1.76s.79-1.76,1.76-1.76,1.76.79,1.76,1.76-.79,1.76-1.76,1.76ZM345.53,344.78c-.97,0-1.76-.79-1.76-1.76s.79-1.76,1.76-1.76,1.76.79,1.76,1.76-.79,1.76-1.76,1.76ZM325.26,336.68c.97,0,1.76.79,1.76,1.76s-.79,1.76-1.76,1.76-1.76-.79-1.76-1.76.79-1.76,1.76-1.76ZM307.54,322.96c.97,0,1.76.79,1.76,1.76s-.79,1.76-1.76,1.76-1.76-.79-1.76-1.76.79-1.76,1.76-1.76ZM295.72,260.72c.97,0,1.76.79,1.76,1.76s-.79,1.76-1.76,1.76-1.76-.79-1.76-1.76.79-1.76,1.76-1.76ZM276,272.75c-.97,0-1.76-.79-1.76-1.76s.79-1.76,1.76-1.76,1.76.79,1.76,1.76-.79,1.76-1.76,1.76ZM253.04,394.25c-.97,0-1.76-.79-1.76-1.76s.79-1.76,1.76-1.76,1.76.79,1.76,1.76-.79,1.76-1.76,1.76ZM232.91,394.25c-.97,0-1.76-.79-1.76-1.76s.79-1.76,1.76-1.76,1.76.79,1.76,1.76-.79,1.76-1.76,1.76ZM245.24,366.75c.97,0,1.76.79,1.76,1.76s-.79,1.76-1.76,1.76-1.76-.79-1.76-1.76.79-1.76,1.76-1.76ZM300.07,170.81c.97,0,1.76.79,1.76,1.76s-.79,1.76-1.76,1.76-1.76-.79-1.76-1.76.79-1.76,1.76-1.76ZM284.57,119.03c.97,0,1.76.79,1.76,1.76s-.79,1.76-1.76,1.76-1.76-.79-1.76-1.76.79-1.76,1.76-1.76ZM257.15,100.6c.97,0,1.76.79,1.76,1.76s-.79,1.76-1.76,1.76-1.76-.79-1.76-1.76.79-1.76,1.76-1.76ZM238.5,128.73c-.97,0-1.76-.79-1.76-1.76s.79-1.76,1.76-1.76,1.76.79,1.76,1.76-.79,1.76-1.76,1.76ZM226.56,143.95c.97,0,1.76.79,1.76,1.76s-.79,1.76-1.76,1.76-1.76-.79-1.76-1.76.79-1.76,1.76-1.76ZM205.79,256.8c.97,0,1.76.79,1.76,1.76s-.79,1.76-1.76,1.76-1.76-.79-1.76-1.76.79-1.76,1.76-1.76ZM157.75,273.17c-.97,0-1.76-.79-1.76-1.76s.79-1.76,1.76-1.76,1.76.79,1.76,1.76-.79,1.76-1.76,1.76ZM137.38,291.81c-.97,0-1.76-.79-1.76-1.76s.79-1.76,1.76-1.76,1.76.79,1.76,1.76-.79,1.76-1.76,1.76ZM102.71,276.46c.97,0,1.76.79,1.76,1.76s-.79,1.76-1.76,1.76-1.76-.79-1.76-1.76.79-1.76,1.76-1.76ZM207.93,83.62c.97,0,1.76.79,1.76,1.76s-.79,1.76-1.76,1.76-1.76-.79-1.76-1.76.79-1.76,1.76-1.76ZM186.24,164.22c.97,0,1.76.79,1.76,1.76s-.79,1.76-1.76,1.76-1.76-.79-1.76-1.76.79-1.76,1.76-1.76ZM161.12,90.87c.97,0,1.76.79,1.76,1.76s-.79,1.76-1.76,1.76-1.76-.79-1.76-1.76.79-1.76,1.76-1.76ZM145.01,127.04c-.97,0-1.76-.79-1.76-1.76s.79-1.76,1.76-1.76,1.76.79,1.76,1.76-.79,1.76-1.76,1.76ZM119.51,150.42c.97,0,1.76.79,1.76,1.76s-.79,1.76-1.76,1.76-1.76-.79-1.76-1.76.79-1.76,1.76-1.76ZM101.76,178.55c.97,0,1.76.79,1.76,1.76s-.79,1.76-1.76,1.76-1.76-.79-1.76-1.76.79-1.76,1.76-1.76ZM65.69,206.65c-.97,0-1.76-.79-1.76-1.76s.79-1.76,1.76-1.76,1.76.79,1.76,1.76-.79,1.76-1.76,1.76ZM45.45,234.86c-.97,0-1.76-.79-1.76-1.76s.79-1.76,1.76-1.76,1.76.79,1.76,1.76-.79,1.76-1.76,1.76ZM34.67,221.88c-.97,0-1.76-.79-1.76-1.76s.79-1.76,1.76-1.76,1.76.79,1.76,1.76-.79,1.76-1.76,1.76ZM4.51,323.34c-.97,0-1.76-.79-1.76-1.76s.79-1.76,1.76-1.76,1.76.79,1.76,1.76-.79,1.76-1.76,1.76ZM167.18,366.83c-.97,0-1.76-.79-1.76-1.76s.79-1.76,1.76-1.76,1.76.79,1.76,1.76-.79,1.76-1.76,1.76ZM201.76,387.45l-6.7-4.68v-44.52l19.33-5.51v32.06l-12.63,8.83v13.82ZM216.16,427.54c-.97,0-1.76-.79-1.76-1.76s.79-1.76,1.76-1.76,1.76.79,1.76,1.76-.79,1.76-1.76,1.76ZM381.59,290.05c-.97,0-1.76-.79-1.76-1.76s.79-1.76,1.76-1.76,1.76.79,1.76,1.76-.79,1.76-1.76,1.76ZM278.61,458.03c-.97,0-1.76-.79-1.76-1.76s.79-1.76,1.76-1.76,1.76.79,1.76,1.76-.79,1.76-1.76,1.76ZM548.5,495.34c-.97,0-1.76-.79-1.76-1.76s.79-1.76,1.76-1.76,1.76.79,1.76,1.76-.79,1.76-1.76,1.76ZM505.74,1024.86c-.97,0-1.76-.79-1.76-1.76s.79-1.76,1.76-1.76,1.76.79,1.76,1.76-.79,1.76-1.76,1.76ZM470.58,1040.57c-.97,0-1.76-.79-1.76-1.76s.79-1.76,1.76-1.76,1.76.79,1.76,1.76-.79,1.76-1.76,1.76ZM408.66,1063.17c-.27.63-.89,1.08-1.62,1.08-.97,0-1.76-.79-1.76-1.76s.79-1.76,1.76-1.76c.73,0,1.36.45,1.62,1.08v1.35ZM374.25,1092.93c-.97,0-1.76-.79-1.76-1.76s.79-1.76,1.76-1.76,1.76.79,1.76,1.76-.79,1.76-1.76,1.76ZM430.18,1109.01c-.97,0-1.76-.79-1.76-1.76s.79-1.76,1.76-1.76,1.76.79,1.76,1.76-.79,1.76-1.76,1.76ZM338.94,1145.39c-.97,0-1.76-.79-1.76-1.76s.79-1.76,1.76-1.76,1.76.79,1.76,1.76-.79,1.76-1.76,1.76ZM362.94,1200.1c-.97,0-1.76-.79-1.76-1.76s.79-1.76,1.76-1.76,1.76.79,1.76,1.76-.79,1.76-1.76,1.76ZM379.39,1204.51c-.97,0-1.76-.79-1.76-1.76s.79-1.76,1.76-1.76,1.76.79,1.76,1.76-.79,1.76-1.76,1.76ZM403.59,1241.74c-.97,0-1.76-.79-1.76-1.76s.79-1.76,1.76-1.76,1.76.79,1.76,1.76-.79,1.76-1.76,1.76ZM424.96,1169.95c-.97,0-1.76-.79-1.76-1.76s.79-1.76,1.76-1.76,1.76.79,1.76,1.76-.79,1.76-1.76,1.76ZM503.81,1103.79c-.97,0-1.76-.79-1.76-1.76s.79-1.76,1.76-1.76,1.76.79,1.76,1.76-.79,1.76-1.76,1.76ZM521.48,1086.93c-.97,0-1.76-.79-1.76-1.76s.79-1.76,1.76-1.76,1.76.79,1.76,1.76-.79,1.76-1.76,1.76ZM475.99,1124.06c-.97,0-1.76-.79-1.76-1.76s.79-1.76,1.76-1.76,1.76.79,1.76,1.76-.79,1.76-1.76,1.76ZM437.37,1225.02c-.97,0-1.76-.79-1.76-1.76s.79-1.76,1.76-1.76,1.76.79,1.76,1.76-.79,1.76-1.76,1.76ZM447.41,1265.18c-.97,0-1.76-.79-1.76-1.76s.79-1.76,1.76-1.76,1.76.79,1.76,1.76-.79,1.76-1.76,1.76ZM475.99,1240.02c.97,0,1.76.79,1.76,1.76s-.79,1.76-1.76,1.76-1.76-.79-1.76-1.76.79-1.76,1.76-1.76ZM463.91,1274.44c.97,0,1.76.79,1.76,1.76s-.79,1.76-1.76,1.76-1.76-.79-1.76-1.76.79-1.76,1.76-1.76ZM496.93,1296.43c0,.97-.79,1.76-1.76,1.76s-1.76-.79-1.76-1.76.79-1.76,1.76-1.76,1.76.79,1.76,1.76ZM514.25,1251.31c.97,0,1.76.79,1.76,1.76s-.79,1.76-1.76,1.76-1.76-.79-1.76-1.76.79-1.76,1.76-1.76ZM539.83,1145.51c-.97,0-1.76-.79-1.76-1.76s.79-1.76,1.76-1.76,1.76.79,1.76,1.76-.79,1.76-1.76,1.76ZM538.78,1202.35c-.97,0-1.76-.79-1.76-1.76s.79-1.76,1.76-1.76,1.76.79,1.76,1.76-.79,1.76-1.76,1.76ZM557.13,1253.92c.97,0,1.76.79,1.76,1.76s-.79,1.76-1.76,1.76-1.76-.79-1.76-1.76.79-1.76,1.76-1.76ZM566,1268.19c.97,0,1.76.79,1.76,1.76s-.79,1.76-1.76,1.76-1.76-.79-1.76-1.76.79-1.76,1.76-1.76ZM568.52,1169.18c-.97,0-1.76-.79-1.76-1.76s.79-1.76,1.76-1.76,1.76.79,1.76,1.76-.79,1.76-1.76,1.76ZM585.18,1186.84c.97,0,1.76.79,1.76,1.76s-.79,1.76-1.76,1.76-1.76-.79-1.76-1.76.79-1.76,1.76-1.76ZM577.45,1126.53c-.97,0-1.76-.79-1.76-1.76s.79-1.76,1.76-1.76,1.76.79,1.76,1.76-.79,1.76-1.76,1.76ZM597.32,1134.79c-.97,0-1.76-.79-1.76-1.76s.79-1.76,1.76-1.76,1.76.79,1.76,1.76-.79,1.76-1.76,1.76ZM609.78,1160.63c-.97,0-1.76-.79-1.76-1.76s.79-1.76,1.76-1.76,1.76.79,1.76,1.76-.79,1.76-1.76,1.76ZM610.65,1266.82c0,.97-.79,1.76-1.76,1.76s-1.76-.79-1.76-1.76.79-1.76,1.76-1.76,1.76.79,1.76,1.76ZM620.66,1257.44c-.97,0-1.76-.79-1.76-1.76s.79-1.76,1.76-1.76,1.76.79,1.76,1.76-.79,1.76-1.76,1.76ZM650.46,1095c.97,0,1.76.79,1.76,1.76s-.79,1.76-1.76,1.76-1.76-.79-1.76-1.76.79-1.76,1.76-1.76ZM655.25,1041.54c-.97,0-1.76-.79-1.76-1.76s.79-1.76,1.76-1.76,1.76.79,1.76,1.76-.79,1.76-1.76,1.76ZM642.68,1298.1c-.97,0-1.76-.79-1.76-1.76s.79-1.76,1.76-1.76,1.76.79,1.76,1.76-.79,1.76-1.76,1.76ZM655.25,1251.12c-.97,0-1.76-.79-1.76-1.76s.79-1.76,1.76-1.76,1.76.79,1.76,1.76-.79,1.76-1.76,1.76ZM680.24,1132.79c-.97,0-1.76-.79-1.76-1.76s.79-1.76,1.76-1.76,1.76.79,1.76,1.76-.79,1.76-1.76,1.76ZM689.48,1122.37c-.97,0-1.76-.79-1.76-1.76s.79-1.76,1.76-1.76,1.76.79,1.76,1.76-.79,1.76-1.76,1.76ZM588.05,273.35c.97,0,1.76.79,1.76,1.76s-.79,1.76-1.76,1.76-1.76-.79-1.76-1.76.79-1.76,1.76-1.76ZM524.35,121.64c.97,0,1.76.79,1.76,1.76s-.79,1.76-1.76,1.76-1.76-.79-1.76-1.76.79-1.76,1.76-1.76ZM506.2,121.64c.97,0,1.76.79,1.76,1.76s-.79,1.76-1.76,1.76-1.76-.79-1.76-1.76.79-1.76,1.76-1.76ZM494.06,104.92c-.97,0-1.76-.79-1.76-1.76s.79-1.76,1.76-1.76,1.76.79,1.76,1.76-.79,1.76-1.76,1.76ZM495.83,197.62v-39.31l8.61-6.02v32.95l18.15,12.69v31.41l24.5,23.57-13.44,13.97h-21.67l.12-57.17c1.61-.69,2.75-2.29,2.75-4.15,0-2.49-2.02-4.51-4.51-4.51s-4.51,2.02-4.51,4.51c0,1.86,1.13,3.46,2.74,4.15l-.03,12.92-6.46-4.52v-16.1l-6.26-4.38ZM510.34,207.3c-.97,0-1.76-.79-1.76-1.76s.79-1.76,1.76-1.76,1.76.79,1.76,1.76-.79,1.76-1.76,1.76ZM508.54,226.91l-.08,39.96h-6.37v-44.47l6.45,4.51ZM435.09,155.92c.97,0,1.76.79,1.76,1.76s-.79,1.76-1.76,1.76-1.76-.79-1.76-1.76.79-1.76,1.76-1.76ZM425.98,123.77c-.97,0-1.76-.79-1.76-1.76s.79-1.76,1.76-1.76,1.76.79,1.76,1.76-.79,1.76-1.76,1.76ZM510.69,361.26l-45.42-33.93-.66-34.73c1.59-.7,2.7-2.28,2.7-4.13,0-2.49-2.02-4.51-4.51-4.51s-4.51,2.02-4.51,4.51c0,1.88,1.15,3.49,2.79,4.16l.69,36.48,43.02,32.14h-13.76l-63.03-44.06v-17.35l8.85-6.19v-35.46h40.57l12.2,12.2h45.53l14.48-15.05,36.65,35.27v36.31l24.49,22.06v13.41h26.7l8.4,8.21h-68.32l-16.94-11.85v-14.29l.09-.09-.09-.09v-45.32c1.61-.69,2.75-2.29,2.75-4.15,0-2.49-2.02-4.51-4.51-4.51s-4.51,2.02-4.51,4.51c0,1.86,1.13,3.46,2.75,4.15v41.79l-9.44-9.44v-53.94c1.61-.69,2.75-2.29,2.75-4.15,0-2.49-2.02-4.51-4.51-4.51s-4.51,2.02-4.51,4.51c0,1.86,1.13,3.46,2.75,4.15v55.4l12.97,12.97v14.85l14.31,10.01h-17.45l-13.35-9.33h-13.36l-8.58-8.58v-11.94l10.21-10.21v-29.48c1.48-.74,2.51-2.26,2.51-4.02,0-2.49-2.02-4.51-4.51-4.51s-4.51,2.02-4.51,4.51c0,1.95,1.25,3.59,2.98,4.22v27.81l-6.69,6.69v-45.11c1.61-.69,2.75-2.29,2.75-4.15,0-2.49-2.02-4.51-4.51-4.51s-4.51,2.02-4.51,4.51c0,1.86,1.13,3.46,2.75,4.15v54.32l-24.6-16.7,13.26-13.25v-26.15c1.61-.69,2.75-2.29,2.75-4.15,0-2.49-2.02-4.51-4.51-4.51s-4.51,2.02-4.51,4.51c0,1.86,1.13,3.46,2.75,4.15v24.68l-10.53,10.53v-26.93c1.61-.69,2.75-2.29,2.75-4.15,0-2.49-2.02-4.51-4.51-4.51s-4.51,2.02-4.51,4.51c0,1.86,1.13,3.46,2.75,4.15v32.43l28.93,19.64v4.92l7.12,7.12h-11.57ZM464.56,288.48c0,.97-.79,1.76-1.76,1.76s-1.76-.79-1.76-1.76.79-1.76,1.76-1.76,1.76.79,1.76,1.76ZM560.62,294.81c0,.97-.79,1.76-1.76,1.76s-1.76-.79-1.76-1.76.79-1.76,1.76-1.76,1.76.79,1.76,1.76ZM547.65,273.23c0,.97-.79,1.76-1.76,1.76s-1.76-.79-1.76-1.76.79-1.76,1.76-1.76,1.76.79,1.76,1.76ZM525.12,297.02c0-.97.79-1.76,1.76-1.76s1.76.79,1.76,1.76-.79,1.76-1.76,1.76-1.76-.79-1.76-1.76ZM518.66,286.49c0,.97-.79,1.76-1.76,1.76s-1.76-.79-1.76-1.76.79-1.76,1.76-1.76,1.76.79,1.76,1.76ZM500.28,284.71c0-.97.79-1.76,1.76-1.76s1.76.79,1.76,1.76-.79,1.76-1.76,1.76-1.76-.79-1.76-1.76ZM489.73,293c0,.97-.79,1.76-1.76,1.76s-1.76-.79-1.76-1.76.79-1.76,1.76-1.76,1.76.79,1.76,1.76ZM498.03,408.64c-.97,0-1.76-.79-1.76-1.76s.79-1.76,1.76-1.76,1.76.79,1.76,1.76-.79,1.76-1.76,1.76ZM590.76,491.56h-15.81l-18.59-12.99h-20.11l-7-4.9,12.58-10.2h28.68l27.98,22.68-7.73,5.4ZM554.76,426.68c0-.97.79-1.76,1.76-1.76s1.76.79,1.76,1.76-.79,1.76-1.76,1.76-1.76-.79-1.76-1.76ZM569.61,402.9c0-.97.79-1.76,1.76-1.76s1.76.79,1.76,1.76-.79,1.76-1.76,1.76-1.76-.79-1.76-1.76ZM630.13,470.07l-18.12-5.22v-10.23l18.12-18.78v34.23ZM630.13,429.99l-18.12,18.78v-7.17l18.12-20.82v9.21ZM632.2,383.43c-.97,0-1.76-.79-1.76-1.76s.79-1.76,1.76-1.76,1.76.79,1.76,1.76-.79,1.76-1.76,1.76ZM672.42,1328.96c-.97,0-1.76-.79-1.76-1.76s.79-1.76,1.76-1.76,1.76.79,1.76,1.76-.79,1.76-1.76,1.76ZM672.42,493.08c-.97,0-1.76-.79-1.76-1.76s.79-1.76,1.76-1.76,1.76.79,1.76,1.76-.79,1.76-1.76,1.76ZM674.45,1037.67v-1.65l12.81-9.31v1.65l-12.81,9.31ZM688.98,1054.13c-.97,0-1.76-.79-1.76-1.76s.79-1.76,1.76-1.76,1.76.79,1.76,1.76-.79,1.76-1.76,1.76ZM695.69,1002.65l-8.44,6.14v13.57l-12.81,9.31v-43.91l12.03-18.03v20.77c-1.51.73-2.57,2.26-2.57,4.05,0,2.49,2.02,4.51,4.51,4.51s4.51-2.02,4.51-4.51c0-1.79-1.06-3.32-2.57-4.05v-26.59l5.34-8.01v46.76ZM686.66,994.54c0-.97.79-1.76,1.76-1.76s1.76.79,1.76,1.76-.79,1.76-1.76,1.76-1.76-.79-1.76-1.76ZM695.69,948.9l-21.25,31.86v-77.19h11.16v19.06c-1.51.73-2.57,2.26-2.57,4.05,0,2.49,2.02,4.51,4.51,4.51s4.51-2.02,4.51-4.51c0-1.79-1.06-3.33-2.57-4.05v-38.58l6.21-5.81v70.67ZM685.79,926.68c0-.97.79-1.76,1.76-1.76s1.76.79,1.76,1.76-.79,1.76-1.76,1.76-1.76-.79-1.76-1.76ZM695.69,872.91l-10.09,9.44v17.33h-11.16v-115.87l20.47-14.87v14.16s-7.76,11.92-7.76,11.92v56.55c-1.51.73-2.57,2.26-2.57,4.05,0,2.49,2.02,4.51,4.51,4.51s4.51-2.02,4.51-4.51c0-1.79-1.06-3.33-2.57-4.05v-55.4l4.67-7.15v83.9ZM674.45,778.58v-6.48l20.46-14.87v6.48s-20.46,14.87-20.46,14.87ZM690.85,855.61c0,.97-.79,1.76-1.76,1.76s-1.76-.79-1.76-1.76.79-1.76,1.76-1.76,1.76.79,1.76,1.76ZM695.69,614.45l-7.6-4.92v-20.82c1.51-.73,2.57-2.26,2.57-4.05,0-2.49-2.02-4.51-4.51-4.51s-4.51,2.02-4.51,4.51c0,1.79,1.06,3.32,2.57,4.05v22.93l11.48,7.44v1.25l-.17-.14-10.36,12.92v38.59c-1.51.73-2.57,2.26-2.57,4.05,0,2.49,2.02,4.51,4.51,4.51s4.51-2.02,4.51-4.51c0-1.79-1.06-3.32-2.57-4.05v-37.23l6.66-8.3v125.25l-21.25,15.44v-226.26l12.42-27.05v42.99l8.83,15.46v42.45ZM687.91,584.65c0,.97-.79,1.76-1.76,1.76s-1.76-.79-1.76-1.76.79-1.76,1.76-1.76,1.76.79,1.76,1.76ZM688.85,675.75c0,.97-.79,1.76-1.76,1.76s-1.76-.79-1.76-1.76.79-1.76,1.76-1.76,1.76.79,1.76,1.76ZM695.69,563.82l-4.77-8.35v-80.64l-4.67-7.68-.29-52.76c1.46-.75,2.47-2.25,2.47-4,0-2.49-2.02-4.51-4.51-4.51s-4.51,2.02-4.51,4.51c0,1.76,1.02,3.26,2.49,4.01l.3,53.9,4.66,7.67v27.86l-12.42,27.05v-35.56c1.46-.75,2.48-2.25,2.48-4,0-2.49-2.02-4.51-4.51-4.51s-4.51,2.02-4.51,4.51c0,1.75,1.02,3.26,2.48,4v17.55l-15.09-15.58v-14.08l17.6-16.92v-66.19c1.46-.75,2.48-2.25,2.48-4,0-2.49-2.02-4.51-4.51-4.51s-4.51,2.02-4.51,4.51c0,1.75,1.02,3.26,2.48,4v64.46l-17.6,16.92v12.99l-17.06-10.55v-98.22c1.49-.74,2.53-2.26,2.53-4.03,0-2.49-2.02-4.51-4.51-4.51s-4.51,2.02-4.51,4.51c0,1.73,1,3.23,2.44,3.98v28.94l-18.12,20.82v-31.44c1.46-.75,2.48-2.25,2.48-4,0-2.49-2.02-4.51-4.51-4.51s-4.51,2.02-4.51,4.51c0,1.75,1.02,3.26,2.48,4v63.92l22.18,6.39v8.74h-29.05l-27.82-22.55.05-14.28h12.78l9.52-14.64v-30.05c1.61-.69,2.75-2.29,2.75-4.15,0-2.49-2.02-4.51-4.51-4.51s-4.51,2.02-4.51,4.51c0,1.86,1.13,3.46,2.75,4.15v29l-7.9,12.16h-10.85l.13-35.8c1.43-.76,2.42-2.24,2.42-3.97,0-2.49-2.02-4.51-4.51-4.51s-4.51,2.02-4.51,4.51c0,1.78,1.04,3.31,2.54,4.04l-.2,52.47h-10.92v-28.58c1.61-.69,2.75-2.29,2.75-4.15,0-2.49-2.02-4.51-4.51-4.51s-4.51,2.02-4.51,4.51c0,1.86,1.13,3.46,2.75,4.15v28.58h-14.37l-2.51,2.03-11.41-7.98v-8.31l10.27-7.18v-55.6c1.61-.69,2.75-2.29,2.75-4.15,0-2.49-2.02-4.51-4.51-4.51s-4.51,2.02-4.51,4.51c0,1.86,1.13,3.46,2.75,4.15v53.76l-6.74,4.72v-53.17c1.61-.69,2.75-2.29,2.75-4.15,0-2.49-2.02-4.51-4.51-4.51s-4.51,2.02-4.51,4.51c0,1.86,1.13,3.46,2.75,4.15v67.62l12.09,8.45-15.89,12.88h-19.05v-33.36l14.81-12.76v-65.2h24.42l13.35,9.33h136.58v-.42l6.43,7.79v181.8ZM685.68,410.4c0,.97-.79,1.76-1.76,1.76s-1.76-.79-1.76-1.76.79-1.76,1.76-1.76,1.76.79,1.76,1.76ZM669.12,396.1c0-.97.79-1.76,1.76-1.76s1.76.79,1.76,1.76-.79,1.76-1.76,1.76-1.76-.79-1.76-1.76ZM611.74,399.98c0,.97-.79,1.76-1.76,1.76s-1.76-.79-1.76-1.76.79-1.76,1.76-1.76,1.76.79,1.76,1.76ZM592.08,397.37c0-.97.79-1.76,1.76-1.76s1.76.79,1.76,1.76-.79,1.76-1.76,1.76-1.76-.79-1.76-1.76ZM533.22,378.23c0-.97.79-1.76,1.76-1.76s1.76.79,1.76,1.76-.79,1.76-1.76,1.76-1.76-.79-1.76-1.76ZM526.46,383.54c0,.97-.79,1.76-1.76,1.76s-1.76-.79-1.76-1.76.79-1.76,1.76-1.76,1.76.79,1.76,1.76ZM697.58,1310.76c-.97,0-1.76-.79-1.76-1.76s.79-1.76,1.76-1.76,1.76.79,1.76,1.76-.79,1.76-1.76,1.76ZM697.78,172.12c-.97,0-1.76-.79-1.76-1.76s.79-1.76,1.76-1.76,1.76.79,1.76,1.76-.79,1.76-1.76,1.76Z" style="fill:#231f20;"/><path id="e" d="M1424.21,295.78c-3.09-.05-5.5,3.08-4.6,6.04l-14.84,11.81h-43.32l-7.73-9.68h27.71c2.01,4.72,9.16,3.33,9.19-1.87-.03-5.2-7.18-6.59-9.19-1.87h-42.32l-4.24-2.97,35.05-24.51v-36.08c4.72-2.01,3.33-9.16-1.87-9.19-5.2.03-6.59,7.18-1.87,9.19v34.13l-34.58,24.17-4.85-3.39,22.97-16.06v-49.87c4.61-2.1,3.14-9.1-1.99-9.13-5.27.04-6.59,7.31-1.76,9.23v36.72l-7.54-8.51v-85.53c4.72-2.01,3.33-9.16-1.87-9.19-5.2.03-6.59,7.18-1.87,9.19v86.95l11.29,12.73v5.46l-22.49,15.72-9.63-6.73h-17.22v-7.96l9.05-8.77v-51.67c4.72-2.01,3.33-9.16-1.87-9.19-5.2.03-6.59,7.18-1.87,9.19v50.09l-9.05,8.77v2.22l-11.38-7.96v-113.02c4.72-2.01,3.33-9.16-1.87-9.19-5.2.03-6.59,7.18-1.87,9.19v114.98l15.12,10.57v8.69l-17.4,12.17v25.44l-17.39,12.15-12.6-8.81v-25.9c4.72-2.01,3.33-9.16-1.87-9.19-5.2.03-6.59,7.18-1.87,9.19v27.85l13.08,9.14-43.68,30.54v-60.4c4.63-2.09,3.18-9.12-1.97-9.14-5.26.04-6.59,7.29-1.78,9.23v66.6h-1.91l-10.79-6.44v-43.55c4.72-2.01,3.33-9.16-1.87-9.19-5.2.03-6.59,7.18-1.87,9.19v45.68l13.51,8.06h2.94v11.71l-24.29-16.98v-5.85c4.72-2.01,3.33-9.16-1.87-9.19-5.2.03-6.59,7.18-1.87,9.19v7.81l24.63,17.22h-31.08l-22.21,15.52v-11.27l17.2-12.02v-31.24c4.72-2.01,3.33-9.16-1.87-9.19-5.2.03-6.59,7.18-1.87,9.19v29.28l-13.45,9.4v-4.27c4.55-2.15,3.05-9.08-2.05-9.1-5.3.04-6.59,7.38-1.7,9.25v22.58l-19.51,13.64h-33.97l-5.83,4.08-9-6.29,21.77-15.22h31.12v-19.36c4.72-2.01,3.33-9.16-1.87-9.19-5.2.03-6.59,7.18-1.87,9.19v15.61h-28.55l-27.13,18.97,12.27,8.58-4.46,3.12h-4.8l-31.53-24.21,27.16-18.99,33.55-.31,46.41-24.57v-8.85l39.12-69.31c6.78,0,34.29.04,44.85.03,8.56,0,9.23,0,9.74-.45l25.56-17.87v-40.7c4.72-2.01,3.33-9.16-1.87-9.19-5.2.03-6.59,7.18-1.87,9.19v38.75l-8.69,6.08v-132.85c4.72-2.01,3.33-9.16-1.87-9.19-5.2.03-6.59,7.18-1.87,9.19v135.47l-11.17,7.81c-5.08.05-40.9,0-54.97-.02l-36.93,65.44v-10.65l32.93-58.58h46.87v-80.91c4.72-2.01,3.33-9.16-1.87-9.19-5.2.03-6.59,7.18-1.87,9.19v77.16h-10.03v-44.93c4.72-2.01,3.33-9.16-1.87-9.19-5.2.03-6.59,7.18-1.87,9.19v44.93h-12.37v-28.1c4.72-2.01,3.33-9.16-1.87-9.19-5.2.03-6.59,7.18-1.87,9.19v28.1h-13.4l-22.22-28.75v-14.53l46.23-32.32v-75.88c4.72-2.01,3.33-9.16-1.87-9.19-5.2.03-6.59,7.18-1.87,9.19v27.98l-13.33-4.27v-39.72c4.57-2.13,3.07-9.08-2.03-9.11-5.29.04-6.59,7.36-1.72,9.24v42.32l17.08,5.47v42.01l-42.48,29.7v-8.84l26.22-18.33v-33.49c4.72-2.01,3.33-9.16-1.87-9.19-5.2.03-6.59,7.18-1.87,9.19v31.54l-26.22,18.33v31.17l22.8,29.51-2.58,4.59-23.45-32.7v-55.96c4.75-1.99,3.37-9.17-1.85-9.2-5.19.03-6.59,7.14-1.9,9.18v23.36l-5.56-5.56v-65.44l18.67-11.48v-25.03c4.72-2.01,3.33-9.16-1.87-9.19-5.2.03-6.59,7.18-1.87,9.19v22.93l-14.92,9.18v-23.61c4.72-2.01,3.33-9.16-1.87-9.19-5.2.03-6.59,7.18-1.87,9.19v95.01l9.31,9.31v19.67l-33.92-35.02v-21.73c4.72-2.01,3.33-9.16-1.87-9.19-5.2.03-6.59,7.18-1.87,9.19v23.25l37.67,38.89v3.48l25.17,35.1-24.98,44.45v-34.89c4.72-2.01,3.33-9.16-1.87-9.19-5.2.03-6.59,7.18-1.87,9.19v67.4l-43.61,23.09-33.8.31-49.49,34.6v-8.12l40.63-28.4v-17.64l17-12.43,11.46,16.63h12.86c2.01,4.72,9.16,3.33,9.19-1.87-.03-5.2-7.18-6.59-9.19-1.87h-10.89l-10.4-15.1,43.2-31.6v-20.2c4.72-2.01,3.33-9.16-1.87-9.19-5.2.03-6.59,7.18-1.87,9.19v18.3l-59.48,43.51v-9.46l45.01-31.46v-69.15c4.72-2.01,3.33-9.16-1.87-9.19-5.2.03-6.59,7.18-1.87,9.19v67.2l-28.73,20.09v-18.79l14.55-10.17v-136.07c4.72-2.01,3.33-9.16-1.87-9.19-5.2.03-6.59,7.18-1.87,9.19v45.11l-10.75-5.58v-36.76c4.72-2.01,3.33-9.16-1.87-9.19-5.2.03-6.59,7.18-1.87,9.19v39.03l14.5,7.53v84.78l-10.8,7.55v-13.47c4.72-2.01,3.33-9.16-1.87-9.19-5.2.03-6.59,7.18-1.87,9.19v39.45l-12.53,8.76v9.2l-21.06-14.72v-20.92c4.72-2.01,3.33-9.16-1.87-9.19-5.2.03-6.59,7.18-1.87,9.19v22.87l24.81,17.34v8.23l-33.05-23.11v-21.73c4.72-2.01,3.33-9.16-1.87-9.19-5.2.03-6.59,7.18-1.87,9.19v23.68l36.8,25.72v5.19l-36.88,25.78v-19.24c4.72-2.01,3.33-9.16-1.87-9.19-5.2.03-6.59,7.18-1.87,9.19v47.9l-41.09,28.72v-8.6l27.22-19.03v-68.25c4.72-2.01,3.33-9.16-1.87-9.19-5.2.03-6.59,7.18-1.87,9.19v66.3l-23.47,16.41v-84.55c4.72-2.01,3.33-9.16-1.87-9.19-5.2.03-6.59,7.18-1.87,9.19v41.4l-8.01,7.53v-33.18c4.72-2.01,3.33-9.16-1.87-9.19-5.2.03-6.59,7.18-1.87,9.19v83.7h-39.59l18.75-12.54v-26.38l7.43-5.19v-53.94l83.67-74.29-.44-.5h.3v-7.9l23.09-7.58v-18.74c4.72-2.01,3.33-9.16-1.87-9.19-5.2.03-6.59,7.18-1.87,9.19v16.02l-19.34,6.35v-57.39l29.4-8.31v-44.15c4.72-2.01,3.33-9.16-1.87-9.19-5.2.03-6.59,7.18-1.87,9.19v41.32l-25.66,7.25v-31.51c4.72-2.01,3.33-9.16-1.87-9.19-5.2.03-6.59,7.18-1.87,9.19v103.58l-83.53,74.16v53.67l-7.05,4.93v-59.51l78.8-71.7-.44-.48h.21v-75.27c4.72-2.01,3.33-9.16-1.87-9.19-5.2.03-6.59,7.18-1.87,9.19v74.3l-16.35,14.88v-78.74c4.72-2.01,3.33-9.16-1.87-9.19-5.2.03-6.59,7.18-1.87,9.19v82.15l-7.21,6.56v-107.55l32.94-52.88h63.44l42.81-45.02c3.02,1.19,6.47-1.24,6.41-4.49,0-2.64-2.15-4.79-4.79-4.79-3.39-.08-5.82,3.68-4.37,6.73l-41.67,43.82h-63.92l-30.86,49.54v-7.89l-6.93-4.85,33.84-52.21h58.14l22.37-22.56c3.02,1.18,6.45-1.26,6.39-4.49,0-2.64-2.15-4.79-4.79-4.79-3.39-.08-5.83,3.7-4.36,6.74l-21.17,21.35h-7.01l-17.58-15.43,33.13-41.29v-20.33c4.72-2.01,3.33-9.16-1.87-9.19-5.2.03-6.59,7.18-1.87,9.19v19.01l-32.2,40.14-12.69-11.14V30.82c4.72-2.01,3.33-9.16-1.87-9.19-5.2.03-6.59,7.18-1.87,9.19v79.9l31.16,27.35h-8.1l-28.93-25.39v-55.39c4.72-2.01,3.33-9.16-1.87-9.19-5.2.03-6.59,7.18-1.87,9.19v57.09l27,23.7h-32.15l-34.88,53.81-7.62-5.33v-14.67l17.63-32.49v-14.41l10.91-10.91v-38.1c4.72-2.01,3.33-9.16-1.87-9.19-5.2.03-6.59,7.18-1.87,9.19v36.55l-7.16,7.16V11.79c4.72-2.01,3.33-9.16-1.87-9.19-5.2.03-6.59,7.18-1.87,9.19v126.65l-13.88,25.59V57.52c4.72-2.01,3.33-9.16-1.87-9.19-5.2.03-6.59,7.18-1.87,9.19v28.7l-11.09-11.09v-30.44c4.72-2.01,3.33-9.16-1.87-9.19-5.2.03-6.59,7.18-1.87,9.19v31.99l14.84,14.84v96.99l17.63,12.32v123.98l-47.52,43.24v63.79l-8.76,6.13v-97.16l24.11-20.75c3.04,1.61,6.97-.83,6.88-4.29,0-2.64-2.15-4.79-4.79-4.79-3.17-.06-5.6,3.24-4.54,6.24l-9.13,7.85h-23.26l39.77-35.51,18.71-16.03v-44.12l-23.07-16.13v-82.4c4.72-2.01,3.33-9.16-1.87-9.19-5.2.03-6.59,7.18-1.87,9.19v55.06l-16.66-11.65.55-66.15c4.84-1.92,3.52-9.19-1.75-9.23-5.13.03-6.59,7.02-1.99,9.13l-.45,54.8-29.87-20.88v-34.51l15.48-10.82v-56.02c4.59-2.12,3.11-9.1-2.01-9.12-5.28.04-6.59,7.33-1.74,9.24v53.95l-11.73,8.2v-31.12c4.72-2.01,3.33-9.16-1.87-9.19-5.2.03-6.59,7.18-1.87,9.19v15.39l-15.02-10.5v-33.03c5.21-1.63,4.14-9.26-1.37-9.35-4.89,0-6.58,6.54-2.38,8.92v35.41l18.76,13.12v52.19l33.58,23.47-.07,8.85,20.42,14.28v24.72l23.07,16.13v34.14l-12.29-7.86v-15.62c4.72-2.01,3.33-9.16-1.87-9.19-5.2.03-6.59,7.18-1.87,9.19v17.67l16.04,10.26v1.85l-17.43,14.94-4.94,4.41-25.24-17.64v-45.21c4.72-2.01,3.33-9.16-1.87-9.19-5.2.03-6.59,7.18-1.87,9.19v47.16l26.11,18.26-17.21,15.37-32.91-23.01v-18l11.91-8.33v-25.93c4.72-2.01,3.33-9.16-1.87-9.19-5.2.03-6.59,7.18-1.87,9.19v23.98l-8.16,5.71v-56.01c4.72-2.01,3.33-9.16-1.87-9.19-5.2.03-6.59,7.18-1.87,9.19v69.25l-11.97-9.5v-36.18c4.76-2.03,3.29-9.26-1.95-9.19-5.35-.04-6.71,7.3-1.8,9.24v37.94l15.72,12.47v6.5l33.78,23.62-19.23,17.17h.03l-14.04,12.64-3.14,2.59-7.84-8.33v-9.1l10.04-7.02v-18.87c4.4-2.06,3.08-9.17-1.87-9.21-4.96.04-6.27,7.15-1.87,9.21v16.92l-6.3,4.4v-16.27c4.72-2.01,3.33-9.16-1.87-9.19-5.2.03-6.59,7.18-1.87,9.19v31.44l8.69,9.23-21.16,17.44-.05-126.59c4.19-2.21,2.75-9.06-2.08-9.09-5.08.05-6.27,7.41-1.67,9.3v16.23s-26.64-22.6-26.64-22.6v-5.95l32.76-22.9.02-25.16,11.92-18.69v-30.22c4.72-2.01,3.33-9.16-1.87-9.19-5.2.03-6.59,7.18-1.87,9.19v29.12l-8.17,12.81.05-50.02c4.72-2.01,3.33-9.16-1.87-9.19-5.2.03-6.59,7.18-1.87,9.19l-.07,80.2-29.01,20.28v-4.26l23.23-16.24v-51.07c4.72-2.01,3.33-9.16-1.87-9.19-5.2.03-6.59,7.18-1.87,9.19v49.12l-19.49,13.62v-19.48c4.72-2.01,3.33-9.16-1.87-9.19-5.2.03-6.59,7.18-1.87,9.19v40.57l30.4,25.78.06,140.5-14.1-14.1v-114.76c4.31-2.13,2.93-9.12-1.97-9.16-5.02.04-6.27,7.28-1.78,9.26v116.21l17.76,17.76.09-.09.03,59.78-9.87-9.87v-25.28c4.62-2.09,3.16-9.11-1.97-9.14-5.26.04-6.59,7.29-1.77,9.23v26.74l13.62,13.62c0,.53,0,2.3,0,2.81l12.66,13.38-1.9,1.82-9.1-.13-28.17-28.17v-196.93c4.4-2.06,3.08-9.17-1.87-9.21-4.96.04-6.27,7.15-1.87,9.21v19.87l-16.61-16.61v-9.92c4.72-2.01,3.33-9.16-1.87-9.19-5.2.03-6.59,7.18-1.87,9.19v11.47l20.36,20.35v52.77l-12.16-13.36v-15.17c4.72-2.01,3.33-9.16-1.87-9.19-5.2.03-6.59,7.18-1.87,9.19v16.62l15.91,17.47v18.41l-27.66-29.56v-46.33c4.72-2.01,3.33-9.16-1.87-9.19-5.2.03-6.59,7.18-1.87,9.19v45h-10.31v-36.78c4.72-2.01,3.33-9.16-1.87-9.19-5.2.03-6.59,7.18-1.87,9.19v36.78h-1.15l-10.84-5.61v-14.56c4.72-2.01,3.33-9.16-1.87-9.19-5.2.03-6.59,7.18-1.87,9.19v16.84l13.68,7.08h16.99l30.53,32.63v78.04l-4.41-4.51v-50.28c4.72-2.01,3.33-9.16-1.87-9.19-5.2.03-6.59,7.18-1.87,9.19v51.81l8.16,8.35v7.68l26.54,26.54-22.7-.32-18.22-18.22v-60.84c4.44-2.23,2.87-9.02-2.15-9.04-5.02.02-6.6,6.82-2.15,9.04v62.63l16.34,16.35-42.2-.59,9.58-9.58v-52.29c4.44-2.23,2.87-9.02-2.15-9.04-5.02.02-6.59,6.82-2.15,9.04v50.5l-11.28,11.28-10.88-.15-7.64-3.94.06-11.93,16.69-15.77v-14.65c4.44-2.23,2.87-9.02-2.15-9.04-5.02.02-6.59,6.82-2.15,9.04v12.79l-16.68,15.76-.19,39.49h-30.73v-47.47c4.44-2.23,2.87-9.02-2.15-9.04-5.02.02-6.59,6.82-2.15,9.04v65.13l-5.57,4.99.08-86.27h34.24l33.82-31.78v-27.63h16.13c2.23,4.44,9.02,2.87,9.04-2.15-.02-5.02-6.82-6.59-9.04-2.15h-16.13v-17.72c4.44-2.23,2.87-9.02-2.15-9.04-5.02.02-6.6,6.82-2.15,9.04v47.79l-31.22,29.34h-32.52l.03-26.18h34.56l21.39-17.96v-49.89c4.44-2.23,2.87-9.02-2.15-9.04-5.02.02-6.6,6.82-2.15,9.04v47.88l-18.65,15.66h-32.99v-6.52h25.57l15.93-13.11v-36.39c4.44-2.23,2.87-9.02-2.15-9.04-5.02.02-6.6,6.82-2.15,9.04v34.35l-13.17,10.83h-14.52v-34.87l25.64-25.64v-55.3c4.44-2.23,2.87-9.02-2.15-9.04-5.02.02-6.59,6.82-2.15,9.04v53.52l-25.64,25.64v36.65h-5.49v-92.98l19.36-26.53v33.46c-4.72,2.01-3.33,9.16,1.87,9.19,5.2-.03,6.59-7.18,1.87-9.19v-58.49h49.35v-11.57l19.45-19.45v-30.58c4.72-2.01,3.33-9.16-1.87-9.19-5.2.03-6.59,7.18-1.87,9.19v29.03l-15.7,15.7v-15.1c4.72-2.01,3.33-9.16-1.87-9.19-5.2.03-6.59,7.18-1.87,9.19v28.22h-29.25v-35.01l33.39-38.53v-2.69h6.76l19.25-13.94v-12.58c4.72-2.01,3.33-9.16-1.87-9.19-5.2.03-6.59,7.18-1.87,9.19v10.67l-16.72,12.11h-5.55v-27.95l40.48-28.3v-53.08c4.72-2.01,3.33-9.16-1.87-9.19-5.2.03-6.59,7.18-1.87,9.19v49.35l-12.34-4.87v-61.87c4.72-2.01,3.33-9.16-1.87-9.19-5.2.03-6.59,7.18-1.87,9.19v62.17l-20.65,14.43v-49.12c4.72-2.01,3.33-9.16-1.87-9.19-5.2.03-6.59,7.18-1.87,9.19v51.74l-.07.05.07.1v7.55l-22.1-18.28V44.01c4.72-2.01,3.33-9.16-1.87-9.19-5.2.03-6.59,7.18-1.87,9.19v69.84l25.85,21.38v5.03l-.07.05.07.1v34.8l-3.11,3.59-13.09-11.03v-18.65c4.98-1.8,3.74-9.23-1.61-9.28-5.04.02-6.59,6.84-2.13,9.05v15.72l-10.73-9.04v-26.42c4.72-2.01,3.33-9.16-1.87-9.19-5.2.03-6.59,7.18-1.87,9.19v28.17l28.86,24.31-27.83,32.11v36.41h-12.61v-10.44l-7.33-12.47v-117.13c4.72-2.01,3.33-9.16-1.87-9.19-5.2.03-6.59,7.18-1.87,9.19v12.9l-8.71-7.34V51.05h-.8c5.48-1.35,4.62-9.33-1.07-9.45-5.69.12-6.55,8.09-1.07,9.45h-.8v66.37l12.44,10.48v-.02s.01,8.12.01,8.12l-18.91-15.93V14.32c4.72-2.01,3.33-9.16-1.87-9.19-5.2.03-6.59,7.18-1.87,9.19v107.5l22.66,19.08v87.36l7.33,12.47v31.84l-23.11,31.67v96.93h.11c-.3,147.65-.2,775.41-.2,935.03-4.78,1.97-3.42,9.18,1.81,9.21,5.05-.02,6.59-6.86,2.12-9.06v-212.72s7.32,13.3,7.32,13.3v81.39c-4.72,2.01-3.33,9.16,1.87,9.19,5.2-.03,6.59-7.18,1.87-9.19v-82.35l-11.07-20.1v-89.1s14.25,15.41,14.25,15.41h7.96v270.47c-4.5,2.18-2.96,9.05,2.1,9.07,4.87,0,6.58-6.51,2.4-8.91v-95.99l9.17,23.23v96.12c-4.87,1.89-3.57,9.2,1.72,9.24,5.11-.02,6.6-6.98,2.03-9.11v-96.97l-12.91-32.72v-44.02l17.79,17.79v12.29c-4.72,2.01-3.33,9.16,1.87,9.19,5.2-.03,6.59-7.18,1.87-9.19v-13.84l-21.53-21.53v-100.44l22.06,17.57v56.94c-4.72,2.01-3.33,9.16,1.87,9.19,5.2-.03,6.59-7.18,1.87-9.19v-58.74l-25.81-20.55v-8.78l37.67,30v80.8l6.88,5.48v38.56c-4.64,2.08-3.2,9.12,1.95,9.15,5.25-.04,6.59-7.27,1.79-9.22v-35.51l37.54,29.9-14.52,14.52v9.02l-39.79,26.31v71.13c-4.87,1.89-3.57,9.2,1.72,9.24,5.1-.03,6.6-6.98,2.03-9.11v-69.25l13.18-8.71v24.83c-4.64,2.08-3.19,9.12,1.96,9.15,5.25-.04,6.59-7.27,1.79-9.22v-27.23l19.12-12.64v71.84c-4.65,2.07-3.21,9.12,1.95,9.15,5.25-.04,6.59-7.27,1.8-9.22v-83.73l8.07-8.07v62.27c-4.72,2.01-3.33,9.16,1.87,9.19,5.2-.03,6.59-7.18,1.87-9.19v-66.01l1.91-1.91,10.08,8.03v43.07c-4.85,1.91-3.53,9.2,1.74,9.24,5.12-.03,6.6-7.01,2-9.12v-44.98l-30.34-24.17h18.2l38.86,6.77,11.11,8.75-14.02,14.02v91.11c-4.64,2.08-3.19,9.12,1.96,9.15,5.25-.04,6.59-7.28,1.79-9.22v-89.48l13.24-13.24,8.68,6.84v69.8c-4.64,2.08-3.19,9.12,1.96,9.15,5.25-.04,6.59-7.28,1.79-9.22v-71.55l-24.93-19.64-39.95-6.96-23.38-.03-3.13-2.5,29.97-21.27h20.31l52.63,34.79v47.94c-4.64,2.08-3.19,9.12,1.96,9.15,5.25-.04,6.59-7.28,1.79-9.22v-45.39l5.92,3.91v72.43c-4.64,2.08-3.19,9.12,1.96,9.15,5.25-.04,6.59-7.28,1.79-9.22v-74.37l-64.92-42.92h-22.63l-31.83,22.59-6.32-5.04,33.76-23.17h31.93l76.05,50.28v82.66c-4.7,2.03-3.29,9.15,1.9,9.18,5.22-.03,6.59-7.21,1.85-9.2v-69.89l5.36,3.54v82.28c-4.64,2.08-3.19,9.12,1.96,9.15,5.25-.04,6.59-7.28,1.79-9.22v-79.73l9.09,6.01v33.16c-4.64,2.08-3.19,9.12,1.96,9.15,5.25-.04,6.59-7.28,1.79-9.22v-35.1l-13.67-9.04h0s-8.27-5.46-8.27-5.46v-10.27l-78.67-52.01h-34.22l-35.67,24.47-10.58-8.42v-2.56l51.77-34.22h35.06v10.69l68.02,44.97c-1.19,6.95,9.07,8.1,9.45,1.05.1-3.63-4.22-6.06-7.25-4.09l-23.02-15.22h8.27l35.04,23.16v21.86l18.17,12.01v59.11c-4.64,2.08-3.19,9.12,1.96,9.15,5.25-.04,6.59-7.28,1.79-9.22v-61.05l-18.17-12.01v-17.37l3.89,2.57c-.64,6.71,9.21,7.38,9.51.62.08-3.84-4.59-6.2-7.61-3.85l-43.45-28.72h-15.06l-37.79-24.98v-8.68h14.38l72.89,48.19c-.92,6.85,9.14,7.76,9.49.85.11-3.73-4.42-6.12-7.43-3.99l-34.34-22.7h15.49l-.1.16,45,29.75v23.05c-4.64,2.08-3.19,9.12,1.96,9.15,5.25-.04,6.59-7.28,1.79-9.22v-20.5l5.95,3.93v47.57c-4.72,2.01-3.33,9.16,1.87,9.19,5.2-.03,6.59-7.18,1.87-9.19v-45.09l23.19,15.33v53.42c-4.72,2.01-3.33,9.16,1.87,9.19,5.2-.03,6.59-7.18,1.87-9.19v-55.43l-78.83-52.11h16.48l87.84,60.22,21.04.2c2.48,4.04,8.84,2.27,8.84-2.53-.11-5.6-7.9-6.57-9.4-1.22l-19.3-.18-87.38-59.91-.48-.33h-45.25l-28.15-18.61h41.06c2.01,4.72,9.16,3.33,9.19-1.87-.03-5.2-7.18-6.59-9.19-1.87h-102.16l-50.64,33.48v-73.75l-25.27-20.12,26.58-.11,19.79,10.16v20.57l-15.04,15.04v16.96c-4.72,2.01-3.33,9.16,1.87,9.19,5.2-.03,6.59-7.18,1.87-9.19v-15.41l5.65-5.65,6.68,7.46h36.33c2.01,4.72,9.16,3.33,9.19-1.87-.03-5.2-7.18-6.59-9.19-1.87h-34.66l-5.71-6.37,6.74-6.74v-20.2l79,40.56,10.83.3v-.31s4.71-.01,4.71-.01l.07.26.91-.26,62.84-.15,23.09,15.26c-.87,6.83,9.16,7.7,9.49.81.11-3.75-4.46-6.13-7.47-3.97l-23.99-15.86-50.64.12,28.56-8.1h55.72c2.01,4.72,9.16,3.33,9.19-1.87-.03-5.2-7.18-6.59-9.19-1.87h-56.24l-41.89,11.88-15.07.04-102.56-52.66-32.16.13-11.47-9.13v-14.16l13.78,11.42h31.8c.51.25,83.64,41.15,84.08,41.37l25.6.56c1.82,4.96,9.22,3.71,9.27-1.63-.02-5.05-6.87-6.6-9.06-2.11l-24.89-.54-33.76-16.61,17.34-7.26h21.9c2.01,4.72,9.16,3.33,9.19-1.87-.03-5.2-7.18-6.59-9.19-1.87h-22.65l-21.05,8.81-45.5-22.39-.39-.19h-13.56l3.96-3.96h53.76c2.01,4.72,9.16,3.33,9.19-1.87-.03-5.2-7.18-6.59-9.19-1.87h-55.31l-7.7,7.7h-12.46l-15.13-12.54v-497.34h23.59l22.22-22.22h41.67c2.23,4.44,9.02,2.87,9.04-2.15-.02-5.02-6.82-6.59-9.04-2.15h-43.45l-22.22,22.22h-38.55v-5.82h35.01l.12-25.17,6.59,3.4,105.22,1.47,18.32-17.58h54.75l-.43.62,15.18,10.61h24.65c2.01,4.72,9.16,3.33,9.19-1.87-.03-5.2-7.18-6.59-9.19-1.87h-23.47l-10.7-7.48h25.62l46.12-32.24v-13.36l20.3-14.19,33.48,25.71h108.04l11.72-9.36c3.04,1.42,6.78-1.01,6.7-4.38,0-2.64-2.15-4.79-4.79-4.79-3.25-.07-5.69,3.41-4.48,6.43l-10.46,8.36h-94.12l8.2-5.73h33.97l22.23-15.54h77.17l15.96,11.16h60.47l12-9.71c3.03,1.27,6.59-1.15,6.53-4.45,0-2.64-2.15-4.79-4.79-4.79-3.33-.07-5.75,3.56-4.43,6.6l-10.64,8.61h-34.08l26.8-18.74v-10.57h23.46l14.64-9.83c3.02,2.08,7.47-.33,7.37-4.02-.36-6.96-10.5-5.95-9.48.93l-13.67,9.18h-22.32v-6.57l63.05-44.08h42.09c2.01,4.72,9.16,3.33,9.19-1.87-.03-5.2-7.18-6.59-9.19-1.87h-43.27l-65.61,45.87v20.89l-9.9,6.92-25.42-7.15v-20.38h.75l63.08-44.92v-13.27c4.72-2.01,3.33-9.16-1.87-9.19-5.2.03-6.59,7.18-1.87,9.19v11.33l-60.54,43.1h-45.21v-1.72l7.08-4.95h33.23l55.86-39.05v-18.14c4.72-2.01,3.33-9.16-1.87-9.19-5.2.03-6.59,7.18-1.87,9.19v16.19l-53.29,37.26h-26.69l55.65-38.9v-25.44l17.4-12.17v-4.14h16.04l25.26,17.66h10.99l10.72,13.42h46.43l15.86-12.62c3.04,1.79,7.16-.65,7.06-4.19,0-2.64-2.15-4.79-4.79-4.79ZM1385.84,300.22c2.46.06,2.46,3.67,0,3.73-2.46-.06-2.46-3.67,0-3.73ZM1368.05,230.38c2.46.06,2.46,3.67,0,3.73-2.46-.06-2.46-3.67,0-3.73ZM1345.87,221.3c.06-2.46,3.67-2.46,3.73,0-.06,2.46-3.67,2.46-3.73,0ZM1336.56,165.89c-2.46-.06-2.46-3.67,0-3.73,2.46.06,2.46,3.67,0,3.73ZM1303.82,207.89c2.46.06,2.46,3.67,0,3.73-2.46-.06-2.46-3.67,0-3.73ZM1279.64,151.71c-2.46-.06-2.46-3.67,0-3.73,2.46.06,2.46,3.67,0,3.73ZM1243.64,301c-2.46-.06-2.46-3.67,0-3.73,2.46.06,2.46,3.67,0,3.73ZM1192.83,324.83c-2.46-.06-2.46-3.67,0-3.73,2.46.06,2.46,3.67,0,3.73ZM1181.25,367.45c-2.46-.06-2.46-3.67,0-3.73,2.46.06,2.46,3.67,0,3.73ZM1166.04,349.74c2.46.06,2.46,3.67,0,3.73-2.46-.06-2.46-3.67,0-3.73ZM1129.68,383.73c2.46.06,2.46,3.67,0,3.73-2.46-.06-2.46-3.67,0-3.73ZM1268.11,224.78c2.46.06,2.46,3.67,0,3.73-2.46-.06-2.46-3.67,0-3.73ZM1255.67,136.75c2.46.06,2.46,3.67,0,3.73-2.46-.06-2.46-3.67,0-3.73ZM1228.64,195.32c2.46.06,2.46,3.67,0,3.73-2.46-.06-2.46-3.67,0-3.73ZM1214.86,227.55c2.46.06,2.46,3.67,0,3.73-2.46-.06-2.46-3.67,0-3.73ZM1198.74,244.39c2.46.06,2.46,3.67,0,3.73-2.46-.06-2.46-3.67,0-3.73ZM1205.6,121c2.46.06,2.46,3.67,0,3.73-2.46-.06-2.46-3.67,0-3.73ZM1188.37,108.82c-2.46-.06-2.46-3.67,0-3.73,2.46.06,2.46,3.67,0,3.73ZM1185.6,163.96c2.46.06,2.46,3.67,0,3.73-2.46-.06-2.46-3.67,0-3.73ZM1161.76,106.27c2.46.06,2.46,3.67,0,3.73-2.46-.06-2.46-3.67,0-3.73ZM1143.09,118.5c-2.46-.06-2.46-3.67,0-3.73,2.46.06,2.46,3.67,0,3.73ZM1114.73,185.73c-2.46-.06-2.46-3.67,0-3.73,2.46.06,2.46,3.67,0,3.73ZM1152.42,194.17c-2.46-.06-2.46-3.67,0-3.73,2.46.06,2.46,3.67,0,3.73ZM1148.84,292.27c2.46.06,2.46,3.67,0,3.73-2.46-.06-2.46-3.67,0-3.73ZM1106.42,370.24c2.46.06,2.46,3.67,0,3.73-2.46-.06-2.46-3.67,0-3.73ZM1122.06,297.06c2.46.06,2.46,3.67,0,3.73-2.46-.06-2.46-3.67,0-3.73ZM1103.84,248.78c2.46.06,2.46,3.67,0,3.73-2.46-.06-2.46-3.67,0-3.73ZM1085.91,171.05c2.46.06,2.46,3.67,0,3.73-2.46-.06-2.46-3.67,0-3.73ZM1071.41,177.55c-2.46-.06-2.46-3.67,0-3.73,2.46.06,2.46,3.67,0,3.73ZM1071.36,299.24c2.46.06,2.46,3.67,0,3.73-2.46-.06-2.46-3.67,0-3.73ZM1034.02,324.73c-2.46-.06-2.46-3.67,0-3.73,2.46.06,2.46,3.67,0,3.73ZM1022.04,328.34c-2.46-.06-2.46-3.67,0-3.73,2.46.06,2.46,3.67,0,3.73ZM1000.59,366.49c2.46.06,2.46,3.67,0,3.73-2.46-.06-2.46-3.67,0-3.73ZM1051.07,257.03c2.46.06,2.46,3.67,0,3.73-2.46-.06-2.46-3.67,0-3.73ZM1057.39,169.55c2.46.06,2.46,3.67,0,3.73-2.46-.06-2.46-3.67,0-3.73ZM1027.99,186.61c2.46.06,2.46,3.67,0,3.73-2.46-.06-2.46-3.67,0-3.73ZM1012.24,215.98c2.46.06,2.46,3.67,0,3.73-2.46-.06-2.46-3.67,0-3.73ZM992.14,226.42c2.46.06,2.46,3.67,0,3.73-2.46-.06-2.46-3.67,0-3.73ZM1123.87,109.6c2.46.06,2.46,3.67,0,3.73-2.46-.06-2.46-3.67,0-3.73ZM1092.08,112.9c2.46.06,2.46,3.67,0,3.73-2.46-.06-2.46-3.67,0-3.73ZM1073.22,54.75c2.46.06,2.46,3.67,0,3.73-2.46-.06-2.46-3.67,0-3.73ZM1024.57,28.28c-2.46-.06-2.46-3.67,0-3.73,2.46.06,2.46,3.67,0,3.73ZM1014.95,54.74c-2.46-.06-2.46-3.67,0-3.73,2.46.06,2.46,3.67,0,3.73ZM992.09,69.71c2.46.06,2.46,3.67,0,3.73-2.46-.06-2.46-3.67,0-3.73ZM981.18,5.51c2.46.06,2.46,3.67,0,3.73-2.46-.06-2.46-3.67,0-3.73ZM948.72,42.15c-2.46-.06-2.46-3.67,0-3.73,2.46.06,2.46,3.67,0,3.73ZM963.56,54.98c-2.46-.06-2.46-3.67,0-3.73,2.46.06,2.46,3.67,0,3.73ZM949.24,313.9c2.46.06,2.46,3.67,0,3.73-2.46-.06-2.46-3.67,0-3.73ZM905.4,36.28c.06-2.46,3.67-2.46,3.73,0-.06,2.46-3.67,2.46-3.73,0ZM873.66,40.92c-2.46-.06-2.46-3.67,0-3.73,2.46.06,2.46,3.67,0,3.73ZM891.92,69.21c-2.46-.06-2.46-3.67,0-3.73,2.46.06,2.46,3.67,0,3.73ZM924.24,103.7c.06-2.46,3.67-2.46,3.73,0-.06,2.46-3.67,2.46-3.73,0ZM945.84,128.34c-2.46-.06-2.46-3.67,0-3.73,2.46.06,2.46,3.67,0,3.73ZM952.88,239.48c-2.46-.06-2.46-3.67,0-3.73,2.46.06,2.46,3.67,0,3.73ZM917.56,225.76c-2.46-.06-2.46-3.67,0-3.73,2.46.06,2.46,3.67,0,3.73ZM901.71,227.55c2.46.06,2.46,3.67,0,3.73-2.46-.06-2.46-3.67,0-3.73ZM874.01,228.52c-2.36-.15-2.36-3.57,0-3.72,2.36.15,2.36,3.57,0,3.72ZM889.8,204.96c-2.46-.06-2.46-3.67,0-3.73,2.46.06,2.46,3.67,0,3.73ZM885.66,294.44c2.18.06,2.18,3.74,0,3.8-2.18-.06-2.18-3.74,0-3.8ZM875.62,303.23c-2.46-.06-2.46-3.67,0-3.73,2.46.06,2.46,3.67,0,3.73ZM873.66,121.95c2.46.06,2.46,3.67,0,3.73-2.46-.06-2.46-3.67,0-3.73ZM861.79,113.85c2.46.06,2.46,3.67,0,3.73-2.46-.06-2.46-3.67,0-3.73ZM852.19,142.76c2.46.06,2.46,3.67,0,3.73-2.46-.06-2.46-3.67,0-3.73ZM828.96,189.75c-2.46-.06-2.46-3.67,0-3.73,2.46.06,2.46,3.67,0,3.73ZM841.48,267.85c-2.18-.06-2.18-3.74,0-3.8,2.18.06,2.18,3.74,0,3.8ZM845.72,426.41c-2.46-.06-2.46-3.67,0-3.73,2.46.06,2.46,3.67,0,3.73ZM859.14,234.92c-2.18-.06-2.18-3.74,0-3.8,2.18.06,2.18,3.74,0,3.8ZM808.84,252.94c-2.46-.06-2.46-3.67,0-3.73,2.46.06,2.46,3.67,0,3.73ZM813.29,309.01c-2.46-.06-2.46-3.67,0-3.73,2.46.06,2.46,3.67,0,3.73ZM768,310.44c-2.46-.06-2.46-3.67,0-3.73,2.46.06,2.46,3.67,0,3.73ZM783.73,293.84c-2.46-.06-2.46-3.67,0-3.73,2.46.06,2.46,3.67,0,3.73ZM797.79,285.62c-2.46-.06-2.46-3.67,0-3.73,2.46.06,2.46,3.67,0,3.73ZM821.04,390.24c-2.46-.06-2.46-3.67,0-3.73,2.46.06,2.46,3.67,0,3.73ZM829.19,259.64c-2.18-.06-2.18-3.74,0-3.8,2.18.06,2.18,3.74,0,3.8ZM810.79,405.39c-2.46-.06-2.46-3.67,0-3.73,2.46.06,2.46,3.67,0,3.73ZM790.21,418.17c2.46.06,2.46,3.67,0,3.73-2.46-.06-2.46-3.67,0-3.73ZM772.85,433.51c2.46.06,2.46,3.67,0,3.73-2.46-.06-2.46-3.67,0-3.73ZM801.74,380.63c2.46.06,2.46,3.67,0,3.73-2.46-.06-2.46-3.67,0-3.73ZM779.2,356.5c2.46.06,2.46,3.67,0,3.73-2.46-.06-2.46-3.67,0-3.73ZM767.12,339.6c2.46.06,2.46,3.67,0,3.73-2.46-.06-2.46-3.67,0-3.73ZM752.68,347.13c2.46.06,2.46,3.67,0,3.73-2.46-.06-2.46-3.67,0-3.73ZM746.32,276.5c2.46.06,2.46,3.67,0,3.73-2.46-.06-2.46-3.67,0-3.73ZM803.08,186.02c2.46.06,2.46,3.67,0,3.73-2.46-.06-2.46-3.67,0-3.73ZM783.63,215.65c2.46.06,2.46,3.67,0,3.73-2.46-.06-2.46-3.67,0-3.73ZM810.04,141.12c2.46.06,2.46,3.67,0,3.73-2.46-.06-2.46-3.67,0-3.73ZM824.5,54.57c2.46.06,2.46,3.67,0,3.73-2.46-.06-2.46-3.67,0-3.73ZM808.42,37.18c2.46.06,2.46,3.67,0,3.73-2.46-.06-2.46-3.67,0-3.73ZM785.9,124.63l22.77-15.92,11.9,4.69-34.67,24.24v-13.02ZM784.03,64.67c2.46.06,2.46,3.67,0,3.73-2.46-.06-2.46-3.67,0-3.73ZM758.18,41.47c-2.46-.06-2.46-3.67,0-3.73,2.46.06,2.46,3.67,0,3.73ZM749.6,126.61c-2.46-.06-2.46-3.67,0-3.73,2.46.06,2.46,3.67,0,3.73ZM764.34,146.49c-2.46-.06-2.46-3.67,0-3.73,2.46.06,2.46,3.67,0,3.73ZM712.62,46.39c.06-2.46,3.67-2.46,3.73,0-.06,2.46-3.67,2.46-3.73,0ZM704.29,11.78c-2.46-.06-2.46-3.67,0-3.73,2.46.06,2.46,3.67,0,3.73ZM726.95,107.57c-2.46-.06-2.46-3.67,0-3.73,2.46.06,2.46,3.67,0,3.73ZM734.28,314.92c2.46.06,2.46,3.67,0,3.73-2.46-.06-2.46-3.67,0-3.73ZM711.02,1342.48c-2.46-.06-2.46-3.67,0-3.73,2.46.06,2.46,3.67,0,3.73ZM722.33,1220.85c2.46.06,2.46,3.67,0,3.73-2.46-.06-2.46-3.67,0-3.73ZM750.73,1338.75c2.46.06,2.46,3.67,0,3.73-2.46-.06-2.46-3.67,0-3.73ZM759.5,1195.2c2.46.06,2.46,3.67,0,3.73-2.46-.06-2.46-3.67,0-3.73ZM763.77,1133.9c2.46.06,2.46,3.67,0,3.73-2.46-.06-2.46-3.67,0-3.73ZM773.08,1319.74c-2.46-.06-2.46-3.67,0-3.73,2.46.06,2.46,3.67,0,3.73ZM792.11,1264.78c-.06,2.46-3.67,2.46-3.73,0,.06-2.46,3.67-2.46,3.73,0ZM814.96,1296.67c-.06,2.46-3.67,2.46-3.73,0,.06-2.46,3.67-2.46,3.73,0ZM840.44,1248.46c2.46.06,2.46,3.67,0,3.73-2.46-.06-2.46-3.67,0-3.73ZM826.7,1267.12c-.06,2.46-3.67,2.46-3.73,0,.06-2.46,3.67-2.46,3.73,0ZM870.07,1301.86c-.06,2.46-3.67,2.46-3.73,0,.06-2.46,3.67-2.46,3.73,0ZM893.87,1273.84c2.46.06,2.46,3.67,0,3.73-2.46-.06-2.46-3.67,0-3.73ZM918.8,1265.45c2.46.06,2.46,3.67,0,3.73-2.46-.06-2.46-3.67,0-3.73ZM909.13,1234.57c2.46.06,2.46,3.67,0,3.73-2.46-.06-2.46-3.67,0-3.73ZM960.54,1250.68c2.46.06,2.46,3.67,0,3.73-2.46-.06-2.46-3.67,0-3.73ZM947.71,1291.32c2.46.06,2.46,3.67,0,3.73-2.46-.06-2.46-3.67,0-3.73ZM938.54,1275.44c2.46.06,2.46,3.67,0,3.73-2.46-.06-2.46-3.67,0-3.73ZM786.34,1200.62c2.46.06,2.46,3.67,0,3.73-2.46-.06-2.46-3.67,0-3.73ZM940.76,1170.33c2.46.06,2.46,3.67,0,3.73-2.46-.06-2.46-3.67,0-3.73ZM978.71,1271.53c2.46.06,2.46,3.67,0,3.73-2.46-.06-2.46-3.67,0-3.73ZM970.94,1179.86c2.46.06,2.46,3.67,0,3.73-2.46-.06-2.46-3.67,0-3.73ZM963.8,1162.67c2.46.06,2.46,3.67,0,3.73-2.46-.06-2.46-3.67,0-3.73ZM1025.71,1247.93c2.46.06,2.46,3.67,0,3.73-2.46-.06-2.46-3.67,0-3.73ZM998.3,1224.34h.93c2.08.54,1.71,3.66-.47,3.67-2.17-.01-2.55-3.13-.47-3.67ZM989.16,1193.29c2.46.06,2.46,3.67,0,3.73-2.46-.06-2.46-3.67,0-3.73ZM1078.17,1193.87c2.46.06,2.46,3.67,0,3.73-2.46-.06-2.46-3.67,0-3.73ZM938.46,1111.75c2.46.06,2.46,3.67,0,3.73-2.46-.06-2.46-3.67,0-3.73ZM789.19,1120.24c-2.46-.06-2.46-3.67,0-3.73,2.46.06,2.46,3.67,0,3.73ZM844.13,1096.64c2.46.06,2.46,3.67,0,3.73-2.46-.06-2.46-3.67,0-3.73ZM992.25,1117.92c2.46.06,2.46,3.67,0,3.73-2.46-.06-2.46-3.67,0-3.73ZM1003.63,1088.25c2.46.06,2.46,3.67,0,3.73-2.46-.06-2.46-3.67,0-3.73ZM899.58,1074.17c2.46.06,2.46,3.67,0,3.73-2.46-.06-2.46-3.67,0-3.73ZM880.28,1045.78c2.46.06,2.46,3.67,0,3.73-2.46-.06-2.46-3.67,0-3.73ZM834.85,1024.31c2.46.06,2.46,3.67,0,3.73-2.46-.06-2.46-3.67,0-3.73ZM831.56,495.88c2.46.06,2.46,3.67,0,3.73-2.46-.06-2.46-3.67,0-3.73ZM720.94,454.09c2.46.06,2.46,3.67,0,3.73-2.46-.06-2.46-3.67,0-3.73ZM735.34,1038.42h-6.32l-15.89-17.18v-209.02s13.01,20.13,13.01,20.13v65.18l-8.71,15.43v47c-4.34,2.29-2.72,8.98,2.25,8.99,4.96-.01,6.59-6.7,2.25-8.99v-45.82l7.58-13.44h5.83v137.71ZM721.55,964.17c-.06,2.46-3.67,2.46-3.73,0,.06-2.46,3.67-2.46,3.73,0ZM735.34,896.22h-5.08v-34.62h5.08v34.62ZM735.34,857.1h-5.08v-2.91h5.08v2.91ZM735.34,742.02v66.59l-11.76-18.94v-32.1c4.52-2.17,2.99-9.06-2.08-9.08-4.86,0-6.58,6.49-2.42,8.9v33.57l16.26,26.19v32.55h-5.08v-18.54l-17.14-26.5v-70.57s22.22,6.52,22.22,6.52v1.43ZM723.37,753.27c-.06,2.46-3.67,2.46-3.73,0,.06-2.46,3.67-2.46,3.73,0ZM735.34,735.9l-22.22-6.52v-5.89l22.22,7.14v5.27ZM735.34,725.91l-22.22-7.14v-64.38s22.22-10.18,22.22-10.18v81.71ZM735.34,639.26l-22.22,10.18v-5.14l22.22-10.18v5.14ZM737.44,1315.06c2.46.06,2.46,3.67,0,3.73-2.46-.06-2.46-3.67,0-3.73ZM735.34,522.12v25.62l-18.29,19.31v24.35c-4.54,2.16-3.02,9.07,2.06,9.09,5.08-.02,6.6-6.94,2.06-9.09v-22.71l14.17-14.96v75.44l-22.22,10.18c-.02-8.09.08-92.73.08-103.23l9.89-8.86v-5.15h12.25ZM720.98,595.71c-.06,2.46-3.67,2.46-3.73,0,.06-2.46,3.67-2.46,3.73,0ZM929.85,437.77l5.31-3.71v21.76l-5.31,3.55v-21.6ZM886.45,436.4c-2.46-.06-2.46-3.67,0-3.73,2.46.06,2.46,3.67,0,3.73ZM886.45,429.75c-5.02.02-6.59,6.82-2.15,9.04v19.19l-9.99-3.64v-32.69c4.4-2.06,3.08-9.17-1.87-9.21-4.96.04-6.27,7.15-1.87,9.21v35.31l13.74,5v10.08l-11.35,10.89-11.62-12.28-.04-101.93,29.61-24.4.06-.05,17.17-15.46h23.1l-11.93,10.27v18.84l-19.44,14.49v24.81l-11.52-8.05v-20.05c4.72-2.01,3.33-9.16-1.87-9.19-5.2.03-6.59,7.18-1.87,9.19v22l15.28,10.69.24,52.19-11.5,8.04v-23.25c4.44-2.23,2.87-9.02-2.15-9.04ZM874.08,417.26c-.06,2.5-3.25,2.5-3.31,0,.06-2.51,3.25-2.51,3.31,0ZM919.63,440.34l-15.79,11.04c-.08-16.16-.31-61.62-.25-77.09l15.7-11.7v77.75h.35ZM888.31,364.72c-.06,2.46-3.67,2.46-3.73,0,.06-2.46,3.67-2.46,3.73,0ZM888.6,470.36v-3.86l.05.07,37.45-26.18v21.49l-12.68,8.49h-24.82ZM986.92,481.59c2.46.06,2.46,3.67,0,3.73-2.46-.06-2.46-3.67,0-3.73ZM961.62,384.13c-2.46-.06-2.46-3.67,0-3.73,2.46.06,2.46,3.67,0,3.73ZM971.5,470.36h-8.01v-36.67l8.01-7.15v43.81ZM971.5,421.53l-8.01,7.15v-3.69l8.01-7.53v4.07ZM973.55,368.36h-.36c-2.32-.25-2.16-3.68.18-3.71,2.34.03,2.5,3.47.18,3.71ZM1018.21,389.47c-2.46-.06-2.46-3.67,0-3.73,2.46.06,2.46,3.67,0,3.73ZM1195.53,424.41c2.46.06,2.46,3.67,0,3.73-2.46-.06-2.46-3.67,0-3.73ZM1148.67,387.98c-2.46-.06-2.46-3.67,0-3.73,2.46.06,2.46,3.67,0,3.73ZM1318.22,410.13c2.46.06,2.46,3.67,0,3.73-2.46-.06-2.46-3.67,0-3.73ZM1336.56,377.37c2.46.06,2.46,3.67,0,3.73-2.46-.06-2.46-3.67,0-3.73ZM1405.42,334.97c2.46.06,2.46,3.67,0,3.73-2.46-.06-2.46-3.67,0-3.73ZM1318.77,316.66c2.46.06,2.46,3.67,0,3.73-2.46-.06-2.46-3.67,0-3.73ZM1207.32,306.33c.06-2.46,3.67-2.46,3.73,0-.06,2.46-3.67,2.46-3.73,0ZM1253.07,381.11v23.21l25.19,7.09-15.73,10.99h-17.35l-15.96-11.16h-72.99l17.87-12.49h37.05v-17.65h41.92ZM1305.45,307.23c2.46.06,2.46,3.67,0,3.73-2.46-.06-2.46-3.67,0-3.73ZM1424.21,302.44c-2.46-.06-2.46-3.67,0-3.73,2.46.06,2.46,3.67,0,3.73Z" style="fill:#231f20;"/></g></svg>