<?xml version="1.0" encoding="UTF-8"?>
<svg id="b" xmlns="http://www.w3.org/2000/svg" version="1.1" viewBox="0 0 2922.7 3021.1">
  <!-- Generator: Adobe Illustrator 30.2.1, SVG Export Plug-In . SVG Version: 2.1.1 Build 1)  -->
  <g id="c">
    <g id="d">
      <path id="e" d="M649.4,1466.5L0,2115.8l423.4,423.4,41.6-62.8v-92.4l-265.9-270.8,258.5-262.8h-40.8c-1,4.2-4.2,7.1-7.9,7.1s-8.2-4.3-8.2-9.7,3.7-9.7,8.2-9.7,5.4,1.7,6.9,4.4h18.9c-1.8-1.8-2.8-4.5-2.8-7.2,0-5.3,3.7-9.7,8.2-9.7s6.5,2.5,7.7,6.3h27.8l31.3-31.8v31.8h59.1l62.7-93.3h0c0,0,20.5,0,20.5,0v-16.3h-42.1c-1.4,3.2-4.2,5.2-7.3,5.2-4.5,0-8.2-4.3-8.2-9.7s3.7-9.7,8.2-9.7c3.4,0,6.5,2.5,7.7,6.3h41.7v-248.1h0ZM905.3,1508.3l-54.1,54.1v118.7l45.3,72.3h0v51.8h8.8v-297h0ZM844.5,1569.2l-9.5,9.4v853.8c2.8,1.6,4.6,5,4.6,8.7,0,5.4-3.7,9.7-8.2,9.7s-8.2-4.3-8.2-9.7,2-7.5,5.2-9v-77.7l-14.7,40.2v120.3c2.6,1.7,4.2,4.9,4.2,8.4,0,5.3-3.7,9.7-8.2,9.7s-8.2-4.3-8.2-9.7,2.2-7.8,5.6-9.2v-84.7h-28.8l.2,242.3,25.5-30.7v-61.7h0l40.5-34.6v-975.5h0ZM828.3,1585.4l-50.7,50.7v78.5h31.8l18.8-51.6v-77.6h0ZM828.3,1682.6l-14.5,39.8v161.8c3,1.5,5,5,5,8.9,0,5.3-3.7,9.7-8.2,9.7s-8.2-4.3-8.2-9.7,1.9-7.2,4.8-8.8v-52.1l-13.6,37.3v132.9c3,1.5,5,5,5,8.9s-3.7,9.7-8.2,9.7-8.2-4.3-8.2-9.7,1.9-7.2,4.8-8.8v-70.9l-8.8,24.2.3,430.9h31.2l19-51.9v-272.4l-13.6,20.3v187.1c3,1.5,5,5,5,8.9s-3.7,9.7-8.2,9.7-8.2-4.3-8.2-9.7,1.9-7.2,4.8-8.8v-189.8h0c0-.1,20.4-30.5,20.4-30.5v-15.2l-26.2,39v167.3c3,1.5,5,5,5,8.9,0,5.4-3.7,9.7-8.2,9.7s-8.2-4.3-8.2-9.7,1.8-7.1,4.7-8.7v-170.2h0l32.9-49.1v-339.2h0ZM851.2,1694.4v18.1l30.3,48.3v145.1c2.7,1.7,4.5,5,4.5,8.6,0,5.3-3.7,9.7-8.2,9.7s-8.2-4.3-8.2-9.7,2.1-7.6,5.3-9v-142.1l-23.6-37.6v282.4h21.2c1.4-3.4,4.3-5.6,7.5-5.6,4.5,0,8.2,4.3,8.2,9.7s-3.7,9.7-8.2,9.7c-3.3,0-6.3-2.3-7.6-5.9h-21.1v19.1h54.1v-204.1h-8.8v99.2c2.9,1.6,4.7,5,4.7,8.7,0,5.3-3.7,9.7-8.2,9.7s-8.2-4.3-8.2-9.7,2-7.4,5.1-8.9v-173.9l-38.6-61.6h0ZM600,1713c-2.3,0-4.1,2.2-4.1,4.8s1.8,4.8,4.1,4.8,4.1-2.2,4.2-4.8c0-2.7-1.9-4.8-4.2-4.8ZM777.7,1722.4v16.3h29.3v-16.3h-29.3ZM632,1746.6l-57.3,85.4h7.9l55.2-82.3v-.4h11.6v-2.7h-17.4ZM777.7,1746.6v2.7h29.3v-2.7h-29.3ZM641.3,1757.2l-14.2,21.1h.2v84.8l13.4,21.3h0v51.8h8.7v-179.1h-8.1ZM777.7,1757.2v178.7c.1,0,9-24.3,9-24.3v-43.4l20.3-55.8v-55.2h-29.3,0ZM620.5,1788.1l-31.8,47.3v200.2l31.8-31.7v-138.3h0c0-.1,0-.2,0-.2v-77.3h0ZM896.6,1813.2v9.9h8.8v-9.9h-8.8ZM440.2,1830.3c-2.3,0-4.1,2.2-4.1,4.8s1.9,4.8,4.1,4.8,4.1-2.2,4.1-4.8-1.9-4.8-4.1-4.8ZM447.5,1839.8c-.5,1-1.1,2-1.8,2.7h19.7l2.7-2.7h-20.6ZM507.1,1839.8v2.7h75.2v-2.7h-75.2ZM408.9,1842.8c-2.3,0-4.1,2.2-4.1,4.8s1.9,4.8,4.1,4.8,4.1-2.2,4.1-4.8-1.9-4.8-4.1-4.8ZM567.2,1850.4v206.7l15.1-15.1v-191.7h-15.1ZM507.1,1850.4v136l53.4-79.6v-56.4h-53.4ZM627.3,1876.3v120.8l6.7-6.7v-103.5l-6.7-10.6h0ZM810.5,1888.1c-2.3,0-4.1,2.2-4.1,4.8s1.8,4.8,4.1,4.8,4.2-2.2,4.2-4.8-1.9-4.8-4.2-4.8ZM877.8,1909.5c-2.3,0-4.1,2.2-4.1,4.8s1.8,4.8,4.1,4.8,4.2-2.2,4.2-4.8-1.9-4.8-4.2-4.8ZM560.5,1919.6l-53.4,79.6v18.1l53.4-79.6v-18.1ZM893,1933.9c-2.3,0-4.1,2.2-4.1,4.8s1.8,4.8,4.1,4.8,4.2-2.2,4.2-4.8-1.9-4.8-4.2-4.8ZM640.7,1944.1v9.9h8.7v-9.9h-8.7ZM560.5,1950.4l-53.4,79.6v87.3l53.4-53.4v-113.5h0ZM640.7,1961.9v21.8l8.7-8.7v-13.2h-8.7ZM790.1,2006.3c-2.3,0-4.1,2.2-4.1,4.8s1.8,4.8,4.1,4.8,4.2-2.2,4.2-4.8-1.9-4.8-4.2-4.8ZM879.9,2007.3c-2.3,0-4.2,2.2-4.2,4.8s1.9,4.8,4.2,4.8,4.1-2.2,4.1-4.8-1.8-4.8-4.1-4.8ZM852.7,2042.9l20,52.1h0v96.3l19.5-41v-42.5c-3.2-1.4-5.3-5-5.3-9s3.7-9.7,8.2-9.7,8.2,4.3,8.2,9.7-1.7,6.9-4.4,8.6v44.7l-26.2,55.2v12h0l23.6,58.4h0v132.9c2.7,1.7,4.5,5,4.5,8.6,0,5.4-3.7,9.7-8.2,9.7s-8.2-4.3-8.2-9.7,2.1-7.6,5.3-9v-130.6l-17-42v41.1c3.1,1.5,5.2,5,5.2,9,0,5.4-3.7,9.7-8.2,9.7s-8.2-4.3-8.2-9.7,1.8-7,4.6-8.7v-73.5h0,0v-108.7l-14.7-38.4v427.4h24.4c1-4.1,4.2-7,7.9-7s8.2,4.3,8.2,9.7-3.7,9.7-8.2,9.7-5.5-1.7-7-4.5h-25.4v14.1l16.8,26.8h37.4v-491.8h-52.7ZM895,2093.8c-2.3,0-4.1,2.2-4.1,4.8s1.8,4.8,4.1,4.8,4.2-2.2,4.2-4.8-1.9-4.8-4.2-4.8ZM798.9,2244.7c-2.3,0-4.1,2.2-4.1,4.8s1.8,4.8,4.1,4.8,4.1-2.2,4.2-4.8c0-2.7-1.9-4.8-4.2-4.8ZM811.4,2273.8c-2.3,0-4.1,2.2-4.1,4.8s1.8,4.8,4.1,4.8,4.1-2.2,4.2-4.8c0-2.7-1.8-4.8-4.2-4.8ZM869.6,2282.8c-2.3,0-4.1,2.2-4.1,4.8s1.8,4.8,4.1,4.8,4.2-2.2,4.2-4.8-1.9-4.8-4.2-4.8ZM471.7,2390.9v196.6l8.2,8.2h0v-196.4l-8.3-8.4ZM778.1,2394.6v16.3h28.8v-16.3h-28.8ZM486.7,2406.2v186.6h48.9l46.6-69.5h0c0,.1,0-19.8,0-19.8l-95.6-97.4h0ZM892.5,2414.3c-2.3,0-4.1,2.2-4.1,4.8s1.8,4.8,4.1,4.8,4.2-2.2,4.2-4.8-1.8-4.8-4.2-4.8ZM778.2,2418.8v2.7h28.7v-2.7h-28.7ZM831.4,2436.1c-2.3,0-4.1,2.2-4.1,4.8s1.8,4.8,4.1,4.8,4.1-2.2,4.2-4.8c0-2.7-1.9-4.8-4.2-4.8ZM883.5,2483.6c-2.3,0-4.1,2.2-4.1,4.8s1.8,4.8,4.1,4.8,4.1-2.2,4.2-4.8c0-2.7-1.8-4.8-4.2-4.8ZM465,2489.5l-36.5,54.8,7.8,7.8,28.7-41.8v-20.8h0ZM588.8,2510.2v194.4l24.2,24.2,21-31.2v-141.4l-45.2-46h0ZM809.5,2518.3c-2.3,0-4.1,2.2-4.1,4.8s1.8,4.8,4.1,4.8,4.1-2.2,4.2-4.8c0-2.7-1.9-4.8-4.2-4.8ZM465,2521.1l-24,35.7,24,24v-59.7ZM851.2,2521.2v26.8l.3.4-.3.2v256.4h53.9v7.9h-6.8v57.5c3,1.5,5,5,5,8.9s-3.7,9.7-8.2,9.7c-4.5,0-8.2-4.3-8.2-9.7s1.9-7.2,4.8-8.8v-57.6h-9.6v32.3c2.8,1.6,4.7,5,4.7,8.7,0,5.4-3.7,9.7-8.2,9.7s-8.2-4.3-8.2-9.7,2-7.4,5.1-8.9v-32h-24v13.7l36.7,132.1h0v.3h0v44.8l17.4,17.4v-435.9h-8.8v171.3c2.8,1.6,4.6,5,4.6,8.7,0,5.4-3.7,9.7-8.2,9.7s-8.2-4.3-8.2-9.7,2-7.5,5.2-9v-173.5l-8.3-13.2v155.9c2.9,1.6,4.7,5,4.7,8.7,0,5.4-3.7,9.7-8.2,9.7s-8.2-4.3-8.2-9.7,2-7.4,5-8.9v-166.4l-23.6-37.7h0ZM582.3,2536l-65.1,97,7.2,7.2,57.8-86.1h0c0,.1,0-18.1,0-18.1ZM872.9,2542.5l21.8,34.9h10.6v-34.9h-32.5ZM844.4,2554.4l-33.8,28.9v165.5c2.9,1.6,4.8,5,4.8,8.8,0,5.4-3.7,9.7-8.2,9.7s-8.2-4.3-8.2-9.7,2-7.4,5-8.9v-64.2l-107.4,127.8,44.2,44.2h48.4l55.3-82.4h0c0,.1,0-219.7,0-219.7h0ZM640.7,2563.1v193.5l36.5,36.6,86.8-104.4-123.4-125.7ZM582.3,2566.9l-52.7,78.5,52.7,52.7v-131.2h0ZM486.1,2601.9l26,26,17.5-26h-43.5,0ZM803.8,2653.7l-25.5,30.4v18.4s25.5-30.7,25.5-30.7v-18.1h0ZM769.7,2694.4l-87.2,103.8,8.8,8.9,86.7-104.2-8.3-8.5h0ZM634,2710.3l-15.9,23.6,7.3,7.3,8.6-12.8v-18.1h0ZM878,2729.2c-2.3,0-4.1,2.2-4.1,4.8s1.8,4.8,4.1,4.8,4.2-2.2,4.2-4.8-1.9-4.8-4.2-4.8ZM634,2740.1l-3.9,5.8,3.9,3.9v-9.7ZM807.1,2752.6c-2.3,0-4.1,2.2-4.1,4.8s1.8,4.8,4.1,4.8,4.1-2.2,4.2-4.8c0-2.7-1.9-4.8-4.2-4.8ZM892.9,2760.3c-2.3,0-4.1,2.2-4.1,4.8s1.8,4.8,4.1,4.8,4.1-2.2,4.2-4.8c0-2.7-1.9-4.8-4.2-4.8ZM844.5,2786.7l-48.9,72.8v51.9l15.2,15.2v-72.5h0-.1c0-.1,33.7-50.4,33.7-50.4v-17h0ZM844.4,2816.4l-26.9,40.1v76.7l26.9,26.9v-143.8h0ZM878.3,2848.8c-2.3,0-4.1,2.2-4.1,4.8s1.8,4.8,4.1,4.8,4.1-2.2,4.2-4.8c0-2.7-1.9-4.8-4.2-4.8ZM851.2,2851.9v11l22.9,82.4h0v44.7l7,7v-37.1l-30-108.1h0ZM748.5,2864.3l2.7,2.7h37.6v-2.7h-40.3ZM894.9,2874.2c-2.3,0-4.1,2.2-4.1,4.8s1.8,4.8,4.1,4.8,4.1-2.2,4.2-4.8c0-2.7-1.8-4.8-4.2-4.8ZM759.1,2874.9l8,8v-8h-8ZM773.8,2874.9v14.7l15.1,15.1v-29.8h-15.1ZM851.2,2888.3v78.7l16.2,16.2v-36.4l-16.2-58.5Z"/>
      <path id="f" d="M774.5,0v388.3h6.4v-49.4c-3-1.3-5-4.3-5-7.6s3.7-8.3,8.2-8.3,8.2,3.7,8.2,8.3-1.9,6.2-4.8,7.5v49.5h9.6v-27.7c-2.8-1.4-4.7-4.3-4.7-7.5,0-4.6,3.7-8.3,8.2-8.3s8.2,3.7,8.2,8.3-2,6.4-5.1,7.7v27.5h24v-11.7l-36.7-113.4h0v-.2h0s0,0,0,0V54c-3-1.3-5-4.3-5-7.6s3.7-8.3,8.2-8.3h0c4.5,0,8.2,3.7,8.2,8.3s-1.9,6.2-4.8,7.5v208l30,92.8v-9.5l-22.9-70.8h0v-144.8c-2.9-1.4-4.7-4.3-4.7-7.5,0-4.6,3.7-8.3,8.2-8.3s8.2,3.7,8.2,8.3-2,6.4-5.1,7.7v143.3l16.3,50.2V107c-3-1.3-4.9-4.3-4.9-7.6s3.7-8.3,8.2-8.3,8.2,3.7,8.2,8.3-1.9,6.2-4.8,7.6v278.2l27-34.5v-150.1c-2.7-1.4-4.4-4.3-4.4-7.3,0-4.6,3.7-8.3,8.2-8.3s8.2,3.7,8.2,8.3-2.2,6.6-5.4,7.8v151.8h0,.1c0,.1-33.8,43.2-33.8,43.2v14.6l48.9-62.5v-181.8c-2.9-1.4-4.7-4.3-4.7-7.5,0-4.6,3.7-8.3,8.2-8.3s8.2,3.7,8.2,8.3-2,6.4-5,7.6v168.5h11.1v-17s4,4,4,4v-127.9c-3-1.3-5-4.3-5-7.6s3.7-8.3,8.2-8.3,8.2,3.7,8.2,8.3-1.9,6.2-4.8,7.5v55.1l47.5-63.9L774.5,0ZM794.5,42.4c-2.3,0-4.2,1.8-4.2,4.2s1.9,4.2,4.2,4.2,4.2-1.9,4.2-4.2-1.9-4.1-4.2-4.2ZM831.3,95.3c-2.3,0-4.2,1.8-4.2,4.2s1.9,4.2,4.2,4.2,4.2-1.9,4.2-4.2-1.9-4.1-4.2-4.2ZM808.5,118.2c-2.3,0-4.2,1.8-4.2,4.2s1.9,4.2,4.2,4.2,4.2-1.9,4.2-4.2-1.9-4.1-4.2-4.2ZM887.2,154.8c-2.3,0-4.2,1.9-4.2,4.1s1.9,4.1,4.2,4.1,4.1-1.9,4.2-4.1c0-2.3-1.9-4.1-4.2-4.1ZM908.7,182.5c-2.3,0-4.2,1.9-4.2,4.1s1.9,4.1,4.2,4.1,4.2-1.9,4.2-4.1-1.9-4.1-4.2-4.1ZM865.6,189.2c-2.3,0-4.2,1.9-4.2,4.1s1.9,4.1,4.2,4.1,4.2-1.9,4.2-4.1-1.9-4.1-4.2-4.1ZM964.5,190l-52.3,70.1v15.5l42.9-54.8c-.8-1.3-1.3-2.9-1.3-4.5,0-4.6,3.7-8.3,8.2-8.3s8.2,3.7,8.2,8.3-3.7,8.3-8.2,8.3-.9,0-1.3-.1l-48.5,62v42.3l6,6.1h52v-47.6c-3.1-1.3-5.1-4.3-5.1-7.7s3.7-8.3,8.2-8.3,8.2,3.7,8.2,8.3-1.8,6.1-4.7,7.5v47.8h0v6.7h-52.2l2.3,2.4h66.8v-48.4c-3.2-1.2-5.2-4.3-5.2-7.7s3.7-8.3,8.2-8.3,8.2,3.7,8.2,8.3-1.8,6-4.5,7.4v48.7h0v6.7h-67l104.9,106.9v-59.4c-2.8-1.4-4.6-4.3-4.6-7.4,0-4.6,3.7-8.3,8.2-8.3s8.2,3.7,8.2,8.3-2.1,6.5-5.2,7.7v52.1l45.2-57.8v-28.4h-.2c0,.1-51.8-66-51.8-66h0s0-.1,0-.1h0v-34.2l-74.1-74.1h0ZM962,212.3c-2.3,0-4.2,1.9-4.2,4.1s1.9,4.1,4.2,4.1,4.1-1.9,4.2-4.1c0-2.3-1.9-4.1-4.2-4.1ZM1045.4,270.9v26.1l45.2,57.8v-15.1c-3-1.3-4.9-4.3-4.9-7.6s3.7-8.3,8.2-8.3,3.5.6,4.9,1.6h0l1.6,1.6h0c1.1,1.5,1.7,3.2,1.7,5,0,3.4-2,6.4-5.1,7.7v33.6h33.4v-17.4l-85.2-85.2h0ZM973.4,275.7c-2.3,0-4.2,1.9-4.2,4.1s1.9,4.1,4.2,4.1,4.2-1.9,4.2-4.1-1.9-4.1-4.2-4.1ZM997,283.9c-2.3,0-4.2,1.9-4.2,4.1s1.9,4.1,4.2,4.1,4.2-1.9,4.2-4.1-1.9-4.1-4.2-4.1ZM784.2,327.2c-2.3,0-4.2,1.9-4.2,4.1s1.9,4.1,4.2,4.1,4.2-1.9,4.2-4.1-1.9-4.1-4.2-4.1ZM1094,328.1c-2.3,0-4.2,1.9-4.2,4.1s1.9,4.1,4.2,4.1,4.2-1.9,4.2-4.1-1.9-4.1-4.2-4.1ZM890.4,341.7v2.4h11.1v-2.4h-11.1ZM800.8,349c-2.3,0-4.2,1.9-4.2,4.1s1.9,4.1,4.2,4.1,4.1-1.9,4.2-4.1c0-2.3-1.9-4.1-4.2-4.1ZM890.1,350.8l-55.3,70.7h0s0,188.6,0,188.6l33.9-24.8v-142.1c-2.9-1.4-4.8-4.3-4.8-7.5,0-4.6,3.7-8.3,8.2-8.3s8.2,3.7,8.2,8.3-2,6.3-5,7.6v55.1l26.3-22.6v-125h-11.5ZM1137.3,362.8v75l45.9,62.9-.8.7-44.7,57.2,6.8,6.9,50.4-64.4-49.3-67.3h0s0,0,0,0v-62.5l-8.3-8.3h0ZM1152.3,377.8v53.6l46.8,64,29.2-41.6-76-76h0ZM1097.1,380.2v8.5h33.4v-8.5h-33.4ZM1042.4,386.8c-2.3,0-4.1,1.9-4.2,4.1,0,2.3,1.8,4.1,4.2,4.1s4.2-1.9,4.2-4.1-1.9-4.1-4.2-4.1ZM774.5,395v188.6h8.1v-147.1c-2.8-1.4-4.6-4.3-4.6-7.4,0-4.6,3.7-8.3,8.2-8.3s8.2,3.7,8.2,8.3-2,6.5-5.2,7.7v148.9l8.3,11.3v-133.8c-2.9-1.4-4.7-4.3-4.7-7.5,0-4.6,3.7-8.3,8.2-8.3s8.2,3.7,8.2,8.3-2,6.4-5,7.7v142.9l23.7,32.3v-23l-.3-.3.3-.2v-220.1h-53.5ZM1130.6,395.4h-33.4v121.8l35.8,36.5,41.7-53.3-44.1-60.3h0s0,0,0,0h0v-44.5h0ZM1090.6,403l-45.2,57.8v3.8l5.1,5.2,40.1-51.2v-15.5ZM786.2,425.1c-2.3,0-4.2,1.9-4.2,4.1s1.9,4.1,4.2,4.1,4.1-1.9,4.2-4.1c0-2.3-1.9-4.1-4.2-4.1ZM1090.6,429.5l-35.3,45.1,35.3,36v-81.1ZM872,431.7c-2.3,0-4.2,1.9-4.2,4.1s1.9,4.1,4.2,4.1,4.1-1.9,4.2-4.1c0-2.3-1.9-4.1-4.2-4.1ZM801.1,451.7c-2.3,0-4.2,1.9-4.2,4.1s1.9,4.1,4.2,4.1,4.2-1.9,4.2-4.1-1.9-4.1-4.2-4.1ZM1233.1,458.6l-50.2,68.6h38.5l9.6-15c-.7-1.2-1.1-2.6-1.1-4.1,0-4.6,3.7-8.3,8.2-8.3s8.2,3.7,8.2,8.3-3.7,8.3-8.2,8.3-1,0-1.5-.1l-22.1,34.8v85.8l.8.8,54.6-69.8c-.8-1.3-1.2-2.8-1.2-4.3,0-4.6,3.7-8.3,8.2-8.3s8.2,3.7,8.2,8.3-3.7,8.3-8.2,8.3-1,0-1.5-.2h0l-55.3,70.7,6.8,6.9,43.1-55c-.8-1.3-1.3-2.9-1.3-4.5,0-4.6,3.7-8.3,8.2-8.3s8.2,3.7,8.2,8.3-3.7,8.3-8.2,8.3-.9,0-1.3,0h0l-43.9,56.2,249.1,253.7-308,313.1v-121.8l-53.8,66.9v48.4h0v6.7c0,0-21.8,0-21.8,0v9.1c-18.5,23.6-37,47.1-55.6,70.7v.3h-11.2v253.4l649.4-649.4-446.7-446.7h0ZM901.6,486.8l-26.3,22.6v15.5l26.3-22v-16.1h0ZM1238.2,504.1c-2.3,0-4.1,1.9-4.2,4.1,0,2.3,1.9,4.1,4.2,4.2,2.3,0,4.1-1.9,4.2-4.1,0-2.3-1.9-4.1-4.2-4.1h0ZM901.6,513.8l-26.3,22v52.9h0s0,0,0,0h0s0,0,0,0l-40.6,29.7v914.6l9.5-9.5v-808.8c-2.8-1.4-4.6-4.3-4.6-7.5,0-4.6,3.7-8.3,8.2-8.3s8.2,3.7,8.2,8.3-2,6.4-5.2,7.7v66.8l14.7-34.5v-103.3c-2.6-1.5-4.2-4.2-4.2-7.2,0-4.6,3.7-8.3,8.2-8.3h0c4.5,0,8.2,3.7,8.2,8.3s-2.2,6.7-5.6,7.9v72.8h29.4v-203.6c-.1,0-.1,0-.1,0ZM1176.8,535l-26.9,34.4h44.7l21.9-34.4h-39.7ZM1277,559.6c-2.3,0-4.2,1.8-4.2,4.2s1.9,4.2,4.2,4.2,4.2-1.9,4.2-4.2-1.9-4.1-4.2-4.2ZM1207.8,561.6l-8.3,13v46.9l8.3,8.4v-68.3h0ZM1155.9,577.1l36.9,37.6v-37.6h-36.9ZM1277,585.8c-2.3,0-4.2,1.8-4.2,4.2s1.9,4.2,4.2,4.2,4.2-1.9,4.2-4.2-1.9-4.1-4.2-4.2ZM774.5,590.4v29.9h31.7l-21.9-29.9h-9.9ZM811.2,627h-36.7v422.2h52l-20-44.7h0,0v-82.7l-19.5,35.2v36.5c3.2,1.2,5.3,4.3,5.3,7.8s-3.7,8.3-8.2,8.3-8.2-3.7-8.2-8.3,1.7-6,4.5-7.4v-38.3h0s26.3-47.4,26.3-47.4v-10.3h0l-23.6-50.2h0v-114.1c-2.7-1.4-4.5-4.3-4.5-7.4,0-4.6,3.7-8.3,8.2-8.3s8.2,3.7,8.2,8.3-2.1,6.5-5.3,7.8v112.1l17,36v-35.3c-3.1-1.3-5.2-4.3-5.2-7.7,0-4.6,3.7-8.3,8.2-8.3s8.2,3.7,8.2,8.3-1.8,6-4.6,7.4v63.1h0s0,.1,0,.1v93.2l14.7,32.9v-366.9h-24.4c-1,3.6-4.2,6-7.9,6s-8.2-3.7-8.2-8.3,3.7-8.3,8.2-8.3,5.5,1.5,7,3.9h25.4v-12.1l-16.8-23h0ZM869.7,632.8c-2.3,0-4.2,1.8-4.2,4.2s1.9,4.2,4.2,4.2,4.1-1.9,4.2-4.2c0-2.3-1.9-4.1-4.2-4.2ZM795.6,662.6c-2.3,0-4.2,1.8-4.2,4.2s1.9,4.2,4.2,4.2,4.2-1.9,4.2-4.2-1.9-4.1-4.2-4.2ZM847.8,703.3c-2.3,0-4.2,1.8-4.2,4.2s1.9,4.2,4.2,4.2,4.2-1.9,4.2-4.2-1.9-4.1-4.2-4.2h0ZM786.6,722.1c-2.3,0-4.2,1.8-4.2,4.2s1.9,4.2,4.2,4.2,4.2-1.9,4.2-4.2-1.9-4.1-4.2-4.2ZM872.3,724.2v2.3h29.4v-2.3h-29.4ZM872.3,733.3v14h29.4v-14h-29.4ZM901.8,754h-31.9l-19,44.6v233.9l13.6-17.4v-160.6c-3-1.3-5-4.3-5-7.6s3.7-8.3,8.2-8.3,8.2,3.7,8.2,8.3-1.9,6.2-4.8,7.5v162.9h0s-20.5,26.2-20.5,26.2v13.1l26.2-33.5v-143.6c-3-1.3-5-4.3-5-7.7s3.7-8.3,8.2-8.3,8.2,3.7,8.2,8.3-1.8,6.1-4.7,7.5v76.6h18v-201.8c-.1,0-.1,0-.1,0ZM809.6,835c-2.3,0-4.2,1.8-4.2,4.2s1.9,4.2,4.2,4.2,4.2-1.8,4.2-4.2-1.9-4.1-4.2-4.2ZM867.8,842.8c-2.3,0-4.2,1.8-4.2,4.2s1.9,4.2,4.2,4.2,4.2-1.9,4.2-4.2-1.9-4.1-4.2-4.2ZM880.4,867.7c-2.3,0-4.2,1.8-4.2,4.2s1.9,4.2,4.2,4.2,4.2-1.9,4.2-4.2-1.9-4.1-4.2-4.2ZM1172.8,903.8l-53.8,53.8v171l53.8-66.9v-157.9h0ZM883.9,962.6v4h18v-4h-18ZM1112.2,964.3l-15.1,15.1v235h15.1v-250.1h0ZM901.9,973.4h-18v51.9h0l-33,42.1v291.2l14.5-34.2v-78.3h0s0-.1,0-.1v-60.5c-3-1.3-5-4.3-5-7.6s3.7-8.3,8.2-8.3,8.2,3.7,8.2,8.3-1.9,6.2-4.8,7.5v44.7l13.6-32.1v-114.1c-3-1.3-5-4.3-5-7.6s3.7-8.3,8.2-8.3,8.2,3.7,8.2,8.3-1.9,6.2-4.8,7.5v60.8l8.8-20.8v17.2s-8.8,20.8-8.8,20.8v37.3h0l-20.4,47.9v47.4h29.9l-.2-321.1h0ZM1090.6,986l-31.8,31.8v183.7h0c0,0,0,.2,0,.2v66.3l31.8-40.6v-241.4h0ZM784.1,997.2c-2.3,0-4.2,1.9-4.2,4.2s1.9,4.2,4.2,4.2,4.2-1.9,4.2-4.2-1.9-4.2-4.2-4.2ZM1052.1,1024.5l-6.7,6.7v152l6.7,9.1v-167.8h0ZM1038.7,1037.9l-8.2,8.2v72.6h8.2v-80.9ZM774.5,1055.9v175.3h8.1v-85.2c-2.9-1.4-4.7-4.3-4.7-7.5,0-4.6,3.7-8.3,8.2-8.3s8.2,3.7,8.2,8.3-2,6.4-5.1,7.7v149.3l38.7,52.9v-15.5l-30.4-41.5h0s0,0,0,0v-124.5c-2.7-1.4-4.5-4.3-4.5-7.4,0-4.6,3.7-8.3,8.2-8.3s8.2,3.7,8.2,8.3-2.1,6.5-5.3,7.8v122l23.7,32.3v-242.4h-21.2c-1.4,2.9-4.3,4.8-7.5,4.8-4.5,0-8.2-3.7-8.2-8.3s3.7-8.3,8.2-8.3,6.3,2,7.6,5.1h21.1v-16.4h-53.5ZM799.2,1071.5c-2.3,0-4.1,1.8-4.2,4.1,0,2.3,1.8,4.2,4.2,4.2s4.2-1.9,4.2-4.2-1.9-4.1-4.2-4.1ZM889.1,1072.4c-2.3,0-4.2,1.8-4.2,4.2s1.9,4.2,4.2,4.2,4.2-1.9,4.2-4.2-1.9-4.1-4.2-4.2ZM1172.8,1072.7l-53.8,66.9v15.5l53.8-66.9v-15.5ZM1030.4,1125.5v8.5h8.2v-8.5h-8.2ZM786.1,1134.5c-2.3,0-4.2,1.8-4.2,4.2s1.9,4.2,4.2,4.2,4.1-1.9,4.2-4.2c0-2.3-1.9-4.1-4.2-4.2ZM1030.4,1140.7v153.8h7.6l14.2-18.1h-.2v-72.8l-13.4-18.3h0s0,0,0,0h0v-44.5h-8.2,0ZM801.4,1155.4c-2.3,0-4.2,1.8-4.2,4.2s1.9,4.2,4.2,4.2,4.2-1.9,4.2-4.2-1.9-4.1-4.2-4.2ZM868.7,1173.8c-2.3,0-4.2,1.8-4.2,4.2s1.9,4.2,4.2,4.2,4.2-1.9,4.2-4.2-1.9-4.1-4.2-4.2ZM782.6,1237.9h-8.1v8.6h8.1v-8.6ZM782.6,1253.2h-8.1v340.1l53.5-53.5v-180l-45.4-62.1h0s0,0,0,0h0v-44.5h0ZM872.2,1301.3v2.3h29.9v-2.3h-29.9ZM872.2,1310.3v14h0l-21.3,51v141.4l51.3-51.3v-142.6h0v-12.6h-29.9,0Z"/>
      <path id="g" d="M1881.9,1614.6v87.8l210.2,170.5-111.4,96.4-.3,94.6,209.4-190.4-307.9-258.9h0ZM1881.7,1735.6v417.9l77.5-70.4c.2-.4-.5-286.3-.5-286.3l-77-61.1h0ZM2300.6,2129.3h203.1s59.8-62.9,59.8-62.9c0,0,.3-369.2.3-371.1l-77.5-78.2-.5,467.8h-107.5c0-.1.2-189.5.2-189.5h-78c0,0,0,233.8,0,233.8h0ZM2300.4,1873.1l77.5-.2.7-178.1-78-77.9v256.2h-.2ZM1255.7,1647.7h-200.4s-59,62.1-59,62.1c0,0-.3,364.3-.3,366.1l76.4,77.1.5-461.6h106.1c0,.1-.2,187-.2,187h76.9c0,0,0-230.7,0-230.7h0ZM1255.9,1900.5l-76.4.2-.7,175.8,76.9,76.8.2-252.8h0ZM2183.3,1909.3l.7,167,76.7,76.4v-313.7l-77.3,70.3h0ZM2260.8,1900.8l-.2-208.1-76.8-78.1v222.4l76.9,63.9ZM1371.1,1647.6h-76.8c0,0,.3,428.9.3,428.9l76.9,76.1c0-15.9-.3-210.2-.3-505h0ZM1392.7,1616.1l.3,75.8,78.9,77.1-101.7,99.6-.6,53.4,78.6.4,66.1-54.3h-61.7c0,0,98.7-99.6,98.7-99.6-51.8-45.4-158.7-152.4-158.7-152.4h.1ZM1525.2,1888.3l-66.6,56.1v132.7l66.3,77.1.2-265.9h0ZM1827.2,1647.7h-200.4s-59,62.1-59,62.1c0,0-.3,364.3-.3,366.1l76.4,77.1.5-461.6h106.1c0,.1-.2,187-.2,187h76.9c0,0,0-230.7,0-230.7h0ZM1827.4,1900.5l-76.4.2-.7,175.8,76.9,76.8.2-252.8h0ZM2751,1646.6h-76.7c0,.1-59.1,61.3-59.1,61.3l-.7-.6-.2,214.2h90c0-.1,76.9-77.1,76.9-77.1l-100.6.3-.2-121.8,70.2.7.3-77h0ZM2922.6,1646.6c-.3,0-138.1.8-138.9,0v76.2h62c0,0,0,57.7,0,57.7l76.8-76.6s.2-56.9.2-57.2h0ZM2922,1844.4s-95,0-94.8.2l-76.8,76.6,95.6.5.2,131.9h-62.8c0,0,.2,75.6.2,75.6h80.4s58.1-60.2,58.1-60.2l.2-173.2-.3-51.3h0ZM2691.7,1980.1l-76.9,76.7v72.2l136.1.2.3-75.2h-59.4c0,0,0-73.8,0-73.8h0Z"/>
    </g>
  </g>
</svg>