<?xml version="1.0" encoding="UTF-8"?><svg id="b" xmlns="http://www.w3.org/2000/svg" viewBox="0 0 2559.7 1799.72"><g id="c"><g id="d"><path id="e" d="M1518.85,906.67v87.77l210.16,170.49-111.39,96.36-.26,94.6,209.38-190.36-307.88-258.86ZM1518.65,1027.64v417.86l77.48-70.44c.2-.35-.46-286.31-.46-286.31l-77.02-61.12ZM1937.58,1421.35l203.09-.03,59.77-62.91s.33-369.24.33-371.06l-77.48-78.16-.46,467.85-107.54-.15.2-189.38-77.98.1.08,233.75ZM1937.38,1165.12l77.47-.19.67-178.14-77.98-77.88-.15,256.21ZM892.65,939.73l-200.37.03-58.97,62.07s-.33,364.31-.33,366.1l76.44,77.11.46-461.6,106.1.14-.2,186.85,76.94-.1-.08-230.61ZM892.85,1192.53l-76.43.19-.67,175.76,76.93,76.84.16-252.79ZM1820.27,1201.36l.67,166.98,76.68,76.41v-313.68l-77.34,70.29ZM1897.73,1192.84l-.2-208.08-76.75-78.14v222.36l76.95,63.86ZM1008.02,939.61l-76.83.09.26,428.78,76.86,76.09c0-15.86-.26-210.17-.26-504.96h-.03ZM1029.68,908.11l.26,75.78,78.89,77.09-101.74,99.62-.6,53.42,78.6.42,66.05-54.35-61.66-.06,98.74-99.56c-51.83-45.4-158.67-152.36-158.67-152.36h.12ZM1162.2,1180.36l-66.55,56.1v132.68l66.32,77.14.23-265.92ZM1464.16,939.73l-200.37.03-58.97,62.07s-.33,364.31-.33,366.1l76.44,77.11.46-461.6,106.1.14-.2,186.85,76.94-.1-.08-230.61ZM1464.36,1192.53l-76.43.19-.67,175.76,76.93,76.84.16-252.79ZM2387.95,938.59l-76.67.1v.03l-59.06,61.2-.67-.58-.2,214.19,89.96-.13,76.86-76.97-100.55.26-.2-121.85,70.2.71.32-76.96ZM2559.6,938.62c-.26,0-138.14.75-138.88.03v76.17l62.02-.06v57.73l76.75-76.62s.2-56.94.2-57.23h-.09ZM2558.94,1136.47s-95.01.1-94.79.22l-76.79,76.64,95.63.48.2,131.86-62.84.05.2,75.51,80.4-.03,58.11-60.19.2-173.22-.33-51.31ZM2328.66,1272.12l-76.9,76.71v72.18l136.07.19.33-75.23-59.44.09-.05-73.94Z"/></g><path id="f" d="M521.14,1799.72l.49-939.74-73.6,75.88.08,674.81-333.43-350.97,177.49-186.04-.11,188.56,82.02-84.54.17-302.37L0,1261.15c173.63,179.61,347.5,358.97,521.14,538.57h0ZM448.61,0l-.61,902.81,73.6-75.88.05-637.88,333.43,350.97-177.49,186.04.11-188.56-82.02,84.54-.17,302.37,374.25-385.84C795.82,359.26,622.5,179.33,448.61,0h0Z"/></g></svg>