<?xml version="1.0" encoding="UTF-8"?><svg id="b" xmlns="http://www.w3.org/2000/svg" viewBox="0 0 364.41 774.56"><g id="c"><g id="d"><g id="e"><g id="f"><path id="g" d="M196.04,774.56v-392.04l-27.65,27.65.16,295.54-125.43-127.76,66.69-67.8v68.68l30.82-30.81v-110.13l-37.52,37.52h0s-37.47,37.46-37.47,37.46h0s-37.49,37.5-37.49,37.5h0s-28.14,28.14-28.14,28.14l5.54,5.56.02.03h0l37.46,37.47,37.5,37.5,34.3,34.29,37.49,37.5.02.02h0l37.45,37.47h.01l6.22,6.22ZM168.37,0v392.04l27.65-27.65-.16-295.54,125.43,127.76-66.69,67.8v-68.68l-30.82,30.81v110.13l37.52-37.52h0s37.47-37.46,37.47-37.46h0s37.5-37.5,37.5-37.5h0s28.14-28.14,28.14-28.14l-5.54-5.56-.02-.03h0l-37.46-37.47-37.5-37.5-34.3-34.29-37.49-37.5-.02-.02h0L174.6,6.22h-.01l-6.22-6.22Z"/></g></g></g></g></svg>