<?xml version="1.0" encoding="UTF-8"?><svg id="a" xmlns="http://www.w3.org/2000/svg" viewBox="0 0 266.81 458.27"><path id="b" d="M191.33.34L.2,191.47l124.61,124.61,12.25-18.47v-27.19l-78.26-79.71,76.1-77.36h-12c-.29,1.23-1.25,2.08-2.33,2.08-1.34,0-2.42-1.27-2.42-2.85,0-1.57,1.09-2.85,2.42-2.85.82,0,1.59.49,2.04,1.31h5.56c-.52-.54-.82-1.32-.82-2.13,0-1.57,1.09-2.85,2.43-2.85,1.02,0,1.93.75,2.28,1.87h8.19l9.21-9.36v9.36h17.39l18.44-27.48.03.03h6.03v-4.8h-12.39c-.42.94-1.25,1.53-2.15,1.53-1.34,0-2.42-1.28-2.42-2.85,0-1.57,1.09-2.85,2.42-2.85,1.01,0,1.92.74,2.27,1.85h12.27V.34ZM266.66,12.67l-15.93,15.93v34.94l13.35,21.3h0,0v15.26h2.58V12.67ZM248.75,30.58l-2.78,2.78v251.3c.83.48,1.35,1.47,1.35,2.55,0,1.57-1.09,2.85-2.43,2.85-1.34,0-2.42-1.28-2.42-2.85,0-1.16.6-2.2,1.51-2.64v-22.88l-4.31,11.82v35.41c.76.51,1.22,1.45,1.22,2.47,0,1.57-1.09,2.85-2.43,2.85-1.34,0-2.42-1.28-2.42-2.85,0-1.22.66-2.3,1.65-2.7v-24.94h-8.46l.05,71.31,7.51-9.03v-18.15h.03l11.93-10.18V30.58ZM243.99,35.34l-14.92,14.92.02,23.11h9.36l5.54-15.19v-22.84ZM243.99,63.96l-4.28,11.72v47.61c.89.45,1.47,1.48,1.47,2.62,0,1.57-1.09,2.85-2.43,2.85-1.34,0-2.43-1.28-2.43-2.85,0-1.11.55-2.11,1.4-2.58v-15.34l-4.01,10.99v39.11c.89.45,1.47,1.48,1.47,2.62,0,1.57-1.09,2.85-2.43,2.85-1.34,0-2.42-1.28-2.42-2.85,0-1.11.55-2.12,1.4-2.58v-20.86l-2.6,7.13.09,126.82h9.18l5.6-15.27v-80.18l-4.01,5.98v55.08c.89.45,1.46,1.48,1.46,2.61,0,1.57-1.09,2.85-2.43,2.85-1.34,0-2.42-1.28-2.42-2.85,0-1.11.55-2.12,1.41-2.58v-55.86l-.03-.03,6.01-8.96v-4.48l-7.71,11.49v49.24c.9.44,1.48,1.48,1.48,2.62,0,1.57-1.09,2.85-2.43,2.85-1.34,0-2.42-1.28-2.42-2.85,0-1.1.54-2.1,1.39-2.57v-50.09h0l9.69-14.44V63.96ZM250.73,67.43v5.32l8.93,14.23v42.7c.81.49,1.31,1.46,1.31,2.53,0,1.57-1.09,2.85-2.43,2.85-1.34,0-2.43-1.28-2.43-2.85,0-1.18.62-2.23,1.55-2.66v-41.83l-6.95-11.08v83.12h6.25c.4-1,1.25-1.64,2.2-1.64,1.34,0,2.42,1.27,2.42,2.85,0,1.57-1.08,2.85-2.42,2.85-.98,0-1.86-.69-2.24-1.75h-6.21v5.62h15.93v-60.08h-2.58v29.19c.84.47,1.38,1.47,1.38,2.57,0,1.57-1.09,2.85-2.43,2.85-1.34,0-2.42-1.28-2.42-2.85,0-1.15.59-2.19,1.49-2.63v-51.19l-11.37-18.14ZM176.79,72.9c-.67,0-1.22.64-1.22,1.42,0,.78.55,1.42,1.22,1.42.67,0,1.22-.64,1.22-1.42,0-.79-.55-1.42-1.22-1.42ZM229.09,75.68v4.8h8.64v-4.8h-8.64ZM186.21,82.79l-16.87,25.14h2.33l16.26-24.22v-.11h3.41v-.8h-5.12ZM229.1,82.79v.8h8.63v-.8h-8.63ZM188.96,85.92l-4.17,6.21h.04v24.95l3.94,6.28h0,0v15.26h2.56v-52.71h-2.37ZM229.1,85.92l.04,52.59,2.61-7.14v-12.79l5.99-16.41v-16.24h-8.63ZM182.85,95.01l-9.35,13.93v58.92l9.35-9.34v-40.7l-.03-.04.03-.03v-22.75ZM264.08,102.4v2.91h2.58v-2.91h-2.58ZM129.76,107.44c-.67,0-1.22.64-1.22,1.42,0,.78.55,1.42,1.22,1.42.67,0,1.22-.64,1.22-1.42,0-.79-.55-1.42-1.22-1.42ZM131.91,110.23c-.14.3-.32.58-.54.81h5.8l.79-.81h-6.05ZM149.45,110.23v.81h22.14v-.81h-22.14ZM120.56,111.11c-.67,0-1.22.64-1.22,1.42,0,.78.55,1.42,1.22,1.42.67,0,1.22-.64,1.22-1.42,0-.79-.55-1.42-1.22-1.42ZM167.16,113.35v60.85l4.44-4.44v-56.41h-4.44ZM149.45,113.35v40.04l15.73-23.44v-16.6h-15.73ZM184.83,120.98v35.55l1.96-1.96v-30.46l-1.96-3.13ZM238.75,124.43c-.67,0-1.22.64-1.22,1.42,0,.78.55,1.42,1.22,1.42.67,0,1.22-.64,1.22-1.42,0-.79-.55-1.42-1.22-1.42ZM258.56,130.75c-.67,0-1.22.64-1.22,1.42,0,.78.55,1.42,1.22,1.42.67,0,1.22-.64,1.22-1.42,0-.79-.55-1.42-1.22-1.42ZM165.18,133.7l-15.73,23.44v5.32l15.73-23.44v-5.32ZM263.03,137.92c-.67,0-1.22.64-1.22,1.42,0,.78.55,1.42,1.22,1.42.67,0,1.22-.64,1.22-1.42,0-.79-.55-1.42-1.22-1.42ZM188.78,140.94v2.91h2.56v-2.91h-2.56ZM165.18,142.78l-15.73,23.44v25.69l15.73-15.72v-33.41ZM188.78,146.16v6.43l2.56-2.56v-3.87h-2.56ZM232.76,159.22c-.67,0-1.22.64-1.22,1.42,0,.78.55,1.42,1.22,1.42.67,0,1.22-.64,1.22-1.42,0-.79-.55-1.42-1.22-1.42ZM259.18,159.52c-.67,0-1.22.64-1.22,1.42,0,.79.55,1.42,1.22,1.42.67,0,1.22-.64,1.22-1.42,0-.79-.55-1.42-1.22-1.42ZM251.16,170.02l5.87,15.32h0v28.34l5.73-12.06v-12.51c-.94-.42-1.56-1.48-1.56-2.66,0-1.57,1.09-2.85,2.42-2.85,1.34,0,2.43,1.27,2.43,2.85,0,1.06-.5,2.04-1.31,2.53v13.15l-7.72,16.25v3.53h0s6.94,17.2,6.94,17.2h.03v39.12c.81.49,1.31,1.47,1.31,2.53,0,1.57-1.09,2.85-2.43,2.85-1.34,0-2.43-1.28-2.43-2.85,0-1.18.62-2.23,1.55-2.66v-38.43l-4.99-12.36v12.1c.92.43,1.53,1.48,1.53,2.65,0,1.57-1.09,2.85-2.43,2.85-1.34,0-2.42-1.28-2.42-2.85,0-1.08.52-2.07,1.34-2.55v-21.63h-.03l.03-.04v-31.95l-4.32-11.29v125.78h7.19c.3-1.22,1.25-2.06,2.33-2.06,1.34,0,2.43,1.27,2.43,2.85,0,1.57-1.09,2.85-2.43,2.85-.83,0-1.6-.5-2.05-1.33h-7.47v4.15l4.94,7.89h11v-144.74h-15.5ZM263.63,184.99c-.67,0-1.22.64-1.22,1.42,0,.78.55,1.42,1.22,1.42.67,0,1.22-.64,1.22-1.42,0-.79-.55-1.42-1.22-1.42ZM235.33,229.41c-.67,0-1.22.64-1.22,1.42,0,.78.55,1.42,1.22,1.42.67,0,1.22-.64,1.22-1.42,0-.79-.55-1.42-1.22-1.42ZM239.01,237.95c-.67,0-1.22.64-1.22,1.42,0,.78.55,1.42,1.22,1.42.67,0,1.22-.64,1.22-1.42,0-.79-.55-1.42-1.22-1.42ZM256.14,240.61c-.67,0-1.22.64-1.22,1.42,0,.78.55,1.42,1.22,1.42.67,0,1.22-.64,1.22-1.42,0-.79-.55-1.42-1.22-1.42ZM139.04,272.44v57.87l2.42,2.42v-.02s.01-57.79.01-57.79l-2.43-2.48ZM229.23,273.53v4.8h8.46v-4.8h-8.46ZM143.45,276.94v54.94h14.39l13.72-20.45.03.03v-5.85l-28.14-28.66ZM262.9,279.31c-.67,0-1.22.64-1.22,1.42,0,.78.55,1.42,1.22,1.42.67,0,1.22-.64,1.22-1.42,0-.79-.55-1.42-1.22-1.42ZM229.23,280.64v.8h8.46v-.8h-8.46ZM244.9,285.74c-.67,0-1.22.64-1.22,1.42,0,.78.55,1.42,1.22,1.42.67,0,1.22-.64,1.22-1.42,0-.79-.55-1.42-1.22-1.42ZM260.25,299.72c-.67,0-1.22.64-1.22,1.42,0,.78.55,1.42,1.22,1.42.67,0,1.22-.64,1.22-1.42,0-.79-.55-1.42-1.22-1.42ZM137.06,301.46l-10.73,16.14,2.29,2.29,8.44-12.31v-6.11ZM173.5,307.54v57.23l7.12,7.12,6.17-9.19v-41.62l-13.29-13.54ZM238.47,309.93c-.67,0-1.22.64-1.22,1.42,0,.78.55,1.42,1.22,1.42.67,0,1.22-.64,1.22-1.42,0-.79-.55-1.42-1.22-1.42ZM137.06,310.75l-7.06,10.51,7.06,7.06v-17.57ZM250.72,310.77v7.89l.09.12-.09.07v75.45h15.86v2.31h-2.01v16.92c.89.45,1.46,1.48,1.46,2.61,0,1.57-1.09,2.85-2.43,2.85-1.34,0-2.42-1.28-2.42-2.85,0-1.11.55-2.12,1.41-2.59v-16.95h-2.82v9.5c.84.48,1.37,1.47,1.37,2.56,0,1.57-1.09,2.85-2.43,2.85-1.34,0-2.42-1.28-2.42-2.85,0-1.15.59-2.19,1.5-2.63v-9.43h-7.06v4.02l10.79,38.88h.03v.09h0v13.2l5.12,5.12v-128.3h-2.6v50.43c.82.48,1.34,1.47,1.34,2.55,0,1.57-1.09,2.85-2.43,2.85-1.34,0-2.42-1.27-2.42-2.85,0-1.16.6-2.21,1.52-2.64v-51.06l-2.43-3.88v45.88c.84.47,1.38,1.47,1.38,2.57,0,1.57-1.09,2.85-2.43,2.85-1.34,0-2.43-1.28-2.43-2.85,0-1.15.59-2.18,1.49-2.63v-48.99l-6.95-11.09ZM171.59,315.15l-19.16,28.55,2.13,2.13,17-25.33.03.03v-5.37ZM257.11,317.06l6.43,10.26h3.12v-10.26h-9.55ZM248.74,320.56l-9.96,8.5v48.72c.86.47,1.41,1.47,1.41,2.58,0,1.57-1.09,2.85-2.43,2.85-1.34,0-2.43-1.28-2.43-2.85,0-1.14.57-2.16,1.46-2.61v-18.89l-31.6,37.61,13,13h14.24l16.27-24.25.03.03v-64.69ZM188.78,323.11v56.94l10.76,10.76,25.56-30.71-36.31-36.99ZM171.59,324.24l-15.51,23.11,15.51,15.51v-38.61ZM143.27,334.54l7.65,7.65,5.14-7.65h-12.79ZM236.8,349.79l-7.51,8.94v5.4s7.51-9.02,7.51-9.02v-5.32ZM226.74,361.76l-25.68,30.56,2.6,2.6,25.52-30.67-2.45-2.49ZM186.79,366.44l-4.67,6.95,2.14,2.14,2.53-3.77v-5.32ZM258.62,372.01c-.67,0-1.22.64-1.22,1.42,0,.78.55,1.42,1.22,1.42.67,0,1.22-.64,1.22-1.42,0-.79-.55-1.42-1.22-1.42ZM186.8,375.21l-1.15,1.71,1.15,1.15v-2.86ZM237.77,378.88c-.67,0-1.22.64-1.22,1.42,0,.78.55,1.42,1.22,1.42.67,0,1.22-.64,1.22-1.42,0-.79-.55-1.42-1.22-1.42ZM263,381.15c-.67,0-1.22.64-1.22,1.42,0,.78.55,1.42,1.22,1.42.67,0,1.22-.64,1.22-1.42,0-.79-.55-1.42-1.22-1.42ZM248.75,388.94l-14.38,21.43v15.27l4.46,4.46v-21.34h.03l-.04-.03,9.93-14.79v-5ZM248.74,397.68l-7.93,11.81v22.59l7.93,7.93v-42.33ZM258.71,407.21c-.67,0-1.22.64-1.22,1.42,0,.78.55,1.42,1.22,1.42.67,0,1.22-.64,1.22-1.42,0-.79-.55-1.42-1.22-1.42ZM250.73,408.1v3.25l6.73,24.26h.03v13.15l2.07,2.07v-10.91l-8.83-31.81ZM220.5,411.77l.81.81h11.07v-.81h-11.88ZM263.61,414.69c-.67,0-1.22.64-1.22,1.42,0,.78.55,1.42,1.22,1.42.67,0,1.22-.64,1.22-1.42,0-.79-.55-1.42-1.22-1.42ZM223.62,414.89l2.35,2.35v-2.35h-2.35ZM227.95,414.89v4.33l4.44,4.44v-8.76h-4.44ZM250.72,418.83v23.16l4.78,4.78v-10.72l-4.78-17.23Z" style="fill:rgba(255,255,255,.98); stroke:#0d0d0d; stroke-miterlimit:11.34; stroke-width:.28px;"/></svg>