<?xml version="1.0" encoding="UTF-8"?><svg id="a" xmlns="http://www.w3.org/2000/svg" viewBox="0 0 266.47 468.94"><path id="b" d="M0,0v114.28h1.88v-14.53c-.89-.39-1.46-1.27-1.46-2.24,0-1.35,1.09-2.45,2.43-2.45,1.34,0,2.43,1.1,2.43,2.45,0,.95-.55,1.82-1.41,2.22v14.55h2.83v-8.15c-.84-.41-1.37-1.26-1.37-2.2,0-1.35,1.09-2.45,2.43-2.44,1.34,0,2.43,1.1,2.43,2.44,0,.99-.59,1.88-1.5,2.26v8.1h7.06v-3.45l-10.8-33.38h-.02v-.08s0,0,0,0V15.9c-.88-.39-1.46-1.27-1.46-2.24,0-1.35,1.09-2.44,2.43-2.44h0c1.34,0,2.43,1.1,2.43,2.44,0,.96-.55,1.82-1.41,2.22v61.22l8.84,27.31v-2.79l-6.74-20.82h-.03v-42.62c-.84-.41-1.38-1.26-1.38-2.2,0-1.35,1.09-2.45,2.43-2.45,1.34,0,2.43,1.1,2.43,2.45,0,.99-.59,1.88-1.5,2.26v42.19l4.79,14.79V31.49c-.88-.39-1.45-1.27-1.45-2.24,0-1.35,1.09-2.45,2.43-2.45,1.34,0,2.43,1.1,2.43,2.45,0,.96-.56,1.83-1.42,2.22v81.88l7.94-10.14v-44.17c-.79-.43-1.28-1.25-1.28-2.15,0-1.35,1.09-2.45,2.43-2.45,1.34,0,2.43,1.1,2.43,2.45,0,1.02-.63,1.94-1.59,2.29v44.67h-.02l.04.03-9.94,12.7v4.29l14.4-18.4v-53.5c-.85-.4-1.39-1.27-1.39-2.21,0-1.35,1.09-2.45,2.43-2.44,1.34,0,2.43,1.09,2.43,2.44,0,.98-.58,1.87-1.48,2.25v49.58h3.28v-5.01s1.17,1.19,1.17,1.19v-37.63c-.89-.39-1.47-1.27-1.47-2.24,0-1.35,1.09-2.45,2.43-2.45,1.34,0,2.43,1.1,2.43,2.45,0,.95-.55,1.82-1.4,2.22v16.22l13.98-18.81L0,0ZM5.89,12.47c-.67,0-1.22.55-1.22,1.22,0,.67.55,1.22,1.22,1.22.67,0,1.22-.55,1.22-1.22,0-.67-.55-1.22-1.22-1.22ZM16.71,28.06c-.67,0-1.22.55-1.22,1.22,0,.67.55,1.22,1.22,1.22.67,0,1.22-.55,1.22-1.22,0-.67-.55-1.22-1.22-1.22ZM10.02,34.79c-.67,0-1.22.55-1.22,1.22,0,.67.55,1.22,1.22,1.22.67,0,1.22-.55,1.22-1.22,0-.67-.55-1.22-1.22-1.22ZM33.16,45.57c-.67,0-1.22.55-1.22,1.22,0,.67.55,1.22,1.22,1.22.67,0,1.22-.55,1.22-1.22,0-.67-.55-1.22-1.22-1.22ZM39.51,53.7c-.67,0-1.22.55-1.22,1.22,0,.67.55,1.22,1.22,1.22.67,0,1.22-.55,1.22-1.22,0-.67-.55-1.22-1.22-1.22ZM26.8,55.7c-.67,0-1.22.55-1.22,1.22,0,.67.55,1.22,1.22,1.22.67,0,1.22-.55,1.22-1.22,0-.67-.55-1.22-1.22-1.22ZM55.92,55.92l-15.39,20.62v4.57l12.61-16.12c-.25-.39-.39-.85-.39-1.32,0-1.35,1.09-2.45,2.43-2.45,1.34,0,2.43,1.1,2.43,2.45,0,1.35-1.09,2.44-2.43,2.44-.13,0-.25,0-.38-.03l-14.28,18.25v12.45l1.77,1.8h15.32v-14c-.9-.38-1.49-1.27-1.5-2.26,0-1.35,1.09-2.45,2.43-2.45,1.34,0,2.43,1.1,2.43,2.45,0,.94-.54,1.8-1.38,2.2v14.05h.02v1.98h-15.37l.68.69h19.67v-14.24c-.93-.37-1.54-1.27-1.54-2.27,0-1.35,1.09-2.45,2.43-2.45,1.34,0,2.43,1.1,2.43,2.45,0,.92-.52,1.77-1.33,2.18v14.33h.01v1.98h-19.72l30.88,31.46v-17.48c-.82-.41-1.34-1.26-1.34-2.19,0-1.35,1.09-2.45,2.43-2.45,1.34,0,2.43,1.1,2.43,2.45,0,1-.61,1.9-1.53,2.27v15.35l13.3-17v-8.36l-.05.04-15.24-19.48h-.01s-.02-.04-.02-.04h.02v-10.08l-21.82-21.82ZM55.19,62.49c-.67,0-1.22.55-1.22,1.22,0,.67.55,1.22,1.22,1.22.67,0,1.22-.55,1.22-1.22,0-.67-.55-1.22-1.22-1.22ZM79.73,79.73v7.69l13.32,17.02v-4.44c-.88-.39-1.44-1.27-1.44-2.24,0-1.35,1.09-2.45,2.43-2.45.52,0,1.03.17,1.45.48h0s0,0,0,0h0l.48.48h0c.32.43.49.95.49,1.48,0,.99-.59,1.88-1.49,2.26v9.9h9.84v-5.11l-25.08-25.08ZM58.55,81.14c-.67,0-1.22.55-1.22,1.22,0,.67.55,1.22,1.22,1.22.67,0,1.22-.55,1.22-1.22,0-.67-.55-1.22-1.22-1.22ZM65.49,83.56c-.67,0-1.22.55-1.22,1.22,0,.67.55,1.22,1.22,1.22.67,0,1.22-.55,1.22-1.22,0-.67-.55-1.22-1.22-1.22ZM2.85,96.32c-.67,0-1.22.55-1.22,1.22,0,.67.55,1.22,1.22,1.22.67,0,1.22-.55,1.22-1.22,0-.67-.55-1.22-1.22-1.22ZM94.03,96.58c-.67,0-1.22.55-1.22,1.22,0,.67.55,1.22,1.22,1.22.67,0,1.22-.55,1.22-1.22,0-.67-.55-1.22-1.22-1.22ZM34.1,100.57v.69h3.28v-.69h-3.28ZM7.75,102.74c-.67,0-1.22.55-1.22,1.22,0,.67.55,1.22,1.22,1.22.67,0,1.22-.55,1.22-1.22,0-.67-.55-1.22-1.22-1.22ZM34.03,103.24l-16.29,20.82h-.02s0,55.52,0,55.52l9.97-7.3v-41.82c-.86-.4-1.41-1.27-1.41-2.22,0-1.35,1.09-2.45,2.43-2.44,1.34,0,2.43,1.09,2.43,2.44,0,.98-.58,1.86-1.46,2.24v16.22l7.73-6.65-.02-36.8h-3.36ZM106.79,106.79v22.06l13.52,18.5-.24.2-13.17,16.83,1.99,2.02,14.83-18.96-14.5-19.81h0s-.01,0-.01,0v-18.41l-2.43-2.43ZM111.21,111.21v15.79l13.79,18.84,8.59-12.25-22.38-22.38ZM94.96,111.9v2.5h9.84v-2.5h-9.84ZM78.85,113.85c-.67,0-1.22.55-1.22,1.22,0,.67.55,1.22,1.22,1.22.67,0,1.22-.55,1.22-1.22,0-.67-.55-1.22-1.22-1.22ZM0,116.26v55.52h2.37v-43.29c-.82-.41-1.35-1.26-1.35-2.19,0-1.35,1.09-2.45,2.43-2.44,1.34,0,2.43,1.09,2.43,2.44,0,1-.6,1.9-1.52,2.27v43.83l2.44,3.33v-39.39c-.85-.41-1.38-1.26-1.38-2.21,0-1.35,1.09-2.45,2.43-2.45,1.34,0,2.43,1.1,2.43,2.45,0,.98-.59,1.87-1.49,2.25v42.06l6.96,9.52v-6.77l-.09-.1.09-.06v-64.77H0ZM104.8,116.39h-9.84v35.84l10.54,10.73,12.28-15.7-12.98-17.76h0s0-.01,0-.01h0s0-13.1,0-13.1ZM93.05,118.62l-13.3,17v1.11l1.51,1.53,11.8-15.07v-4.57ZM3.46,125.11c-.67,0-1.22.55-1.22,1.22,0,.67.55,1.22,1.22,1.22.67,0,1.22-.55,1.22-1.22,0-.67-.55-1.22-1.22-1.22ZM93.05,126.41l-10.39,13.28,10.39,10.58v-23.87ZM28.71,127.06c-.67,0-1.22.55-1.22,1.22,0,.67.55,1.22,1.22,1.22.67,0,1.22-.55,1.22-1.22,0-.67-.55-1.22-1.22-1.22ZM7.84,132.95c-.67,0-1.22.55-1.22,1.22,0,.67.55,1.22,1.22,1.22.67,0,1.22-.55,1.22-1.22,0-.67-.55-1.22-1.22-1.22ZM134.99,134.99l-14.78,20.18h11.34l2.82-4.43c-.2-.37-.31-.78-.31-1.2,0-1.35,1.09-2.44,2.43-2.44,1.34,0,2.43,1.09,2.43,2.44,0,1.35-1.09,2.44-2.43,2.44-.15,0-.29-.02-.44-.04l-6.51,10.23v25.24l.24.24,16.06-20.53c-.23-.38-.35-.82-.35-1.26,0-1.35,1.09-2.45,2.43-2.45,1.34,0,2.43,1.1,2.43,2.45,0,1.35-1.09,2.44-2.43,2.44-.15,0-.3-.02-.45-.04h0l-16.29,20.82,1.99,2.03,12.68-16.2c-.25-.39-.38-.85-.38-1.31,0-1.35,1.09-2.45,2.43-2.45,1.34,0,2.43,1.1,2.43,2.45,0,1.35-1.09,2.44-2.43,2.44-.13,0-.26,0-.39-.03h0l-12.93,16.53,73.31,74.66-90.65,92.15v-35.86l-15.83,19.69v14.25h-.02l.02,1.98h-6.43v2.68c-5.43,6.94-10.9,13.87-16.35,20.8v.09h-3.28v74.59s191.13-191.12,191.13-191.12l-131.48-131.47ZM37.41,143.26l-7.73,6.66v4.57l7.73-6.47v-4.75ZM136.48,148.37c-.67,0-1.22.55-1.22,1.22,0,.67.55,1.22,1.22,1.22.67,0,1.22-.55,1.22-1.22,0-.67-.55-1.22-1.22-1.22ZM37.41,151.23l-7.74,6.47v15.56h0s0,.01,0,.01h0s-.02.01-.02.01l-11.94,8.74v269.19l2.79-2.79v-238.04c-.83-.41-1.35-1.26-1.35-2.19,0-1.35,1.09-2.45,2.43-2.45,1.34,0,2.43,1.1,2.43,2.45,0,1-.6,1.89-1.52,2.26v19.65l4.32-10.15v-30.4c-.76-.44-1.22-1.25-1.22-2.12,0-1.35,1.09-2.44,2.43-2.44h0c1.34,0,2.43,1.1,2.43,2.44,0,1.05-.66,1.98-1.65,2.32v21.41h8.66l-.04-59.93ZM118.42,157.45l-7.91,10.11h13.15l6.44-10.11h-11.67ZM147.91,164.7c-.67,0-1.22.55-1.22,1.22,0,.67.55,1.22,1.22,1.22.67,0,1.22-.55,1.22-1.22,0-.67-.55-1.22-1.22-1.22ZM127.55,165.31l-2.43,3.83v13.8l2.43,2.48v-20.11ZM112.26,169.85l10.86,11.07v-11.07h-10.86ZM147.89,172.43c-.67,0-1.22.55-1.22,1.22,0,.67.55,1.22,1.22,1.22.67,0,1.22-.55,1.22-1.22,0-.67-.55-1.22-1.22-1.22ZM0,173.76v8.81h9.34l-6.44-8.81H0ZM10.79,184.55H0v124.25h15.31l-5.88-13.16h0s0,0,0,0v-24.33l-5.74,10.35v10.74c.94.36,1.56,1.27,1.56,2.29,0,1.35-1.09,2.44-2.43,2.44-1.34,0-2.43-1.09-2.43-2.44,0-.91.5-1.75,1.31-2.17v-11.29h-.01s7.73-13.96,7.73-13.96v-3.03h0s-6.95-14.77-6.95-14.77h-.03v-33.58c-.81-.42-1.31-1.26-1.32-2.17,0-1.35,1.09-2.45,2.43-2.45,1.34,0,2.43,1.1,2.43,2.45,0,1.01-.62,1.92-1.56,2.28v32.99l5,10.61v-10.39c-.92-.37-1.53-1.27-1.53-2.27,0-1.35,1.09-2.45,2.43-2.45,1.34,0,2.43,1.1,2.43,2.45,0,.93-.52,1.77-1.34,2.19v18.57h.02s-.02.04-.02.04v27.43l4.33,9.69v-107.98h-7.19c-.3,1.05-1.25,1.77-2.33,1.77-1.34,0-2.43-1.09-2.43-2.44,0-1.35,1.09-2.45,2.43-2.45.83,0,1.61.43,2.05,1.14h7.47v-3.57l-4.95-6.77ZM28.02,186.26c-.67,0-1.22.55-1.22,1.22,0,.67.55,1.22,1.22,1.22.67,0,1.22-.55,1.22-1.22,0-.67-.55-1.22-1.22-1.22ZM6.21,195.01c-.67,0-1.22.55-1.22,1.22,0,.67.55,1.22,1.22,1.22.67,0,1.22-.55,1.22-1.22,0-.67-.55-1.22-1.22-1.22ZM21.58,207.01c-.67,0-1.22.55-1.22,1.22,0,.67.55,1.22,1.22,1.22.67,0,1.22-.55,1.22-1.22,0-.67-.55-1.22-1.22-1.22ZM3.56,212.53c-.67,0-1.22.55-1.22,1.22,0,.67.55,1.22,1.22,1.22.67,0,1.22-.55,1.22-1.22,0-.67-.55-1.22-1.22-1.22ZM28.79,213.15v.69h8.66v-.69h-8.66ZM28.79,215.83v4.12h8.66v-4.12h-8.66ZM37.46,221.93h-9.38s-5.58,13.13-5.58,13.13v68.83l4.02-5.13v-47.29c-.89-.39-1.46-1.27-1.46-2.24,0-1.35,1.09-2.45,2.43-2.45,1.34,0,2.43,1.1,2.43,2.45,0,.95-.55,1.82-1.41,2.22v47.96h.02s-6.02,7.7-6.02,7.7v3.85l7.72-9.87v-42.27c-.9-.38-1.48-1.27-1.48-2.25,0-1.35,1.09-2.45,2.43-2.45,1.34,0,2.43,1.1,2.43,2.45,0,.94-.54,1.8-1.39,2.21v22.56h5.3l-.04-59.4ZM10.33,245.76c-.67,0-1.22.55-1.22,1.22,0,.67.55,1.22,1.22,1.22.67,0,1.22-.55,1.22-1.22,0-.67-.55-1.22-1.22-1.22ZM27.47,248.04c-.67,0-1.22.55-1.22,1.22,0,.67.55,1.22,1.22,1.22.67,0,1.22-.55,1.22-1.22,0-.67-.55-1.22-1.22-1.22ZM31.16,255.38c-.67,0-1.22.55-1.22,1.22,0,.67.55,1.22,1.22,1.22.67,0,1.22-.55,1.22-1.22,0-.67-.55-1.22-1.22-1.22ZM117.22,266.03l-15.83,15.82v50.34l15.83-19.69v-46.47ZM32.2,283.31v1.19h5.3v-1.19h-5.3ZM99.41,283.83l-4.44,4.44v69.17h4.44v-73.62ZM37.5,286.49h-5.3v15.29h0l-9.7,12.4v85.69l4.28-10.06v-23.04h-.01s.01-.04.01-.04v-17.81c-.89-.39-1.47-1.27-1.47-2.25,0-1.35,1.09-2.45,2.43-2.45,1.34,0,2.43,1.1,2.43,2.45,0,.95-.55,1.81-1.4,2.21v13.17l4.01-9.44v-33.57c-.89-.39-1.47-1.27-1.47-2.25,0-1.35,1.09-2.45,2.43-2.45,1.34,0,2.43,1.1,2.43,2.45,0,.95-.55,1.82-1.4,2.22v17.9l2.6-6.11v5.06s-2.6,6.12-2.6,6.12v10.98h0l-5.99,14.09v13.94h8.8l-.06-94.52ZM93.05,290.19l-9.36,9.35v54.07l.02.03-.02.02v19.53l9.36-11.96v-71.05ZM2.83,293.51c-.67,0-1.22.55-1.22,1.22,0,.67.55,1.22,1.22,1.22.67,0,1.22-.55,1.22-1.22,0-.67-.55-1.22-1.22-1.22ZM81.7,301.53l-1.96,1.96v44.73l1.96,2.69v-49.37ZM77.76,305.48l-2.43,2.43v21.38h2.43v-23.81ZM0,310.79v51.6l2.37-.02v-25.06c-.84-.41-1.38-1.26-1.38-2.2,0-1.35,1.09-2.44,2.43-2.44,1.34,0,2.43,1.09,2.43,2.44,0,.99-.59,1.88-1.49,2.26v43.94l11.38,15.57v-4.57l-8.94-12.22h0s-.01,0-.01,0v-36.66c-.81-.42-1.31-1.26-1.32-2.17,0-1.35,1.09-2.45,2.43-2.45,1.34,0,2.43,1.1,2.43,2.45,0,1.01-.62,1.92-1.56,2.28v35.91l6.96,9.51v-71.36h-6.25c-.4.86-1.26,1.41-2.2,1.41-1.34,0-2.43-1.09-2.43-2.44,0-1.35,1.09-2.45,2.43-2.45.98,0,1.86.59,2.24,1.5h6.22v-4.82H0ZM7.29,315.37c-.67,0-1.22.54-1.22,1.22,0,.67.55,1.22,1.22,1.22.67,0,1.22-.55,1.22-1.22,0-.67-.55-1.22-1.22-1.22ZM33.74,315.63c-.67,0-1.22.55-1.22,1.22,0,.67.55,1.22,1.22,1.22.67,0,1.22-.55,1.22-1.22,0-.67-.55-1.22-1.22-1.22ZM117.22,315.72l-15.83,19.69v4.57l15.83-19.69v-4.57ZM75.33,331.27v2.5h2.43v-2.5h-2.43ZM3.43,333.92c-.67,0-1.22.55-1.22,1.22,0,.67.55,1.22,1.22,1.22.67,0,1.22-.55,1.22-1.22,0-.67-.55-1.22-1.22-1.22ZM75.33,335.75v45.26h2.24l4.17-5.33h-.04v-21.42l-3.94-5.4h0s0-.01,0-.01h0v-13.1h-2.43ZM7.91,340.07c-.67,0-1.22.55-1.22,1.22,0,.67.55,1.22,1.22,1.22.67,0,1.22-.55,1.22-1.22,0-.67-.55-1.22-1.22-1.22ZM27.74,345.5c-.67,0-1.22.55-1.22,1.22,0,.67.55,1.22,1.22,1.22.67,0,1.22-.55,1.22-1.22,0-.67-.55-1.22-1.22-1.22ZM2.37,364.35L0,364.37v2.5l2.37-.02v-2.5ZM2.37,368.84L0,368.86v100.08l15.74-15.74v-52.97l-13.36-18.28h0s0-.01,0-.01h0s0-13.1,0-13.1ZM28.76,383v.69h8.8v-.69h-8.8ZM28.76,385.67v4.12h0l-6.27,15.02v41.63l15.09-15.09-.03-41.98h0v-3.7s-8.8,0-8.8,0Z" style="fill:rgba(255,255,255,.98);"/></svg>